<?xml version="1.0" encoding="UTF-8" ?>
<!DOCTYPE svg PUBLIC "-//W3C//DTD SVG 1.1//EN" "http://www.w3.org/Graphics/SVG/1.1/DTD/svg11.dtd">
<svg width="512pt" height="512pt" viewBox="0 0 512 512" version="1.1" xmlns="http://www.w3.org/2000/svg">
<g id="#ffffffff">
<path fill="#ffffff" opacity="1.00" d=" M 0.00 0.00 L 512.00 0.00 L 512.00 512.00 L 0.00 512.00 L 0.00 0.00 M 259.30 40.80 C 260.53 49.37 259.30 58.15 257.99 66.66 C 260.43 66.80 262.87 67.00 265.31 67.23 C 265.01 63.89 265.23 60.54 265.46 57.20 C 268.62 57.55 272.10 57.86 274.91 56.02 C 279.03 53.64 280.01 46.88 276.07 43.89 C 271.41 39.95 264.87 41.63 259.30 40.80 M 238.86 41.55 C 240.52 49.85 239.88 58.43 240.14 66.85 C 245.34 66.77 250.54 66.51 255.74 66.82 C 255.76 64.73 255.83 62.63 255.93 60.53 C 253.06 62.16 249.78 62.46 246.54 62.18 C 246.31 55.22 245.52 48.22 246.30 41.26 C 243.82 41.41 241.34 41.49 238.86 41.55 M 217.48 43.61 C 209.50 46.83 209.17 57.43 213.05 63.95 C 216.91 71.33 229.28 71.40 233.15 64.02 C 235.80 58.94 235.31 52.46 232.53 47.54 C 229.56 42.47 222.57 41.33 217.48 43.61 M 283.74 42.77 C 283.79 51.36 281.86 59.90 279.79 68.20 C 282.20 68.60 284.61 69.04 287.02 69.50 C 286.97 64.98 287.91 60.54 288.57 56.09 C 289.21 52.03 289.65 47.87 291.27 44.05 C 288.74 43.71 286.23 43.27 283.74 42.77 M 297.29 44.96 C 296.09 53.55 294.22 62.11 291.48 70.34 C 293.85 70.84 296.20 71.39 298.55 71.99 C 298.46 68.26 299.30 64.61 300.28 61.04 C 302.24 65.09 303.62 69.39 305.18 73.60 C 307.46 74.10 309.73 74.60 312.01 75.10 C 310.35 70.95 308.77 66.77 307.15 62.61 C 311.75 62.16 315.95 57.83 314.19 53.04 C 311.39 46.44 303.12 46.83 297.29 44.96 M 187.64 57.09 C 186.97 63.31 189.44 70.83 195.57 73.48 C 200.45 75.47 205.82 73.51 209.90 70.64 C 209.60 68.82 209.28 67.01 208.98 65.19 C 206.35 67.55 202.90 70.76 199.09 69.18 C 194.73 66.21 193.60 60.16 194.26 55.24 C 196.14 51.29 201.33 50.93 204.96 52.43 C 204.35 50.62 203.76 48.81 203.17 47.00 C 196.60 46.40 188.91 50.13 187.64 57.09 M 322.57 51.48 C 320.83 60.03 317.64 68.27 314.34 76.33 C 319.64 78.07 324.91 79.92 330.11 81.96 C 330.74 80.03 331.41 78.11 332.12 76.21 C 328.53 76.75 325.07 75.69 321.83 74.25 C 322.67 71.99 323.49 69.74 324.34 67.48 C 326.35 68.43 328.26 69.59 330.08 70.89 C 330.72 69.29 331.39 67.71 332.05 66.11 C 329.87 65.52 327.70 64.87 325.55 64.21 C 326.41 62.03 327.25 59.84 328.09 57.65 C 330.83 58.44 333.37 59.75 335.56 61.58 C 336.24 60.02 336.93 58.46 337.63 56.90 C 332.53 55.33 327.55 53.39 322.57 51.48 M 162.09 60.90 C 166.54 68.15 169.45 76.26 172.72 84.10 C 174.83 82.92 176.98 81.81 179.17 80.79 C 175.89 76.08 173.94 70.64 171.56 65.45 C 170.38 62.97 169.60 60.32 169.17 57.61 C 166.81 58.71 164.45 59.80 162.09 60.90 M 137.91 73.46 C 143.17 80.32 146.47 88.45 150.46 96.07 C 155.37 93.07 161.72 91.09 164.39 85.58 C 166.75 78.84 162.93 70.62 156.63 67.49 C 149.68 64.85 143.71 70.56 137.91 73.46 M 346.21 88.80 C 348.06 91.75 351.44 93.05 354.66 93.90 C 355.48 95.79 355.93 98.06 357.57 99.46 C 359.32 100.27 361.34 99.65 363.21 99.67 C 362.31 97.71 361.38 95.76 360.44 93.82 C 366.52 91.17 370.83 84.74 370.54 78.06 C 370.30 72.68 365.50 68.60 360.48 67.57 C 349.66 65.24 340.24 79.70 346.21 88.80 M 379.17 78.22 C 376.67 84.03 372.33 88.71 368.76 93.85 C 367.34 95.83 366.11 98.48 367.32 100.88 C 369.51 106.54 376.94 111.50 382.66 107.66 C 388.16 103.34 391.35 96.68 397.12 92.62 C 395.34 91.34 393.62 89.97 391.95 88.56 C 389.00 94.17 384.78 99.04 380.39 103.56 C 377.77 106.51 372.90 103.54 373.04 100.03 C 373.91 97.48 375.69 95.40 377.24 93.25 C 379.98 89.74 382.42 85.89 385.99 83.13 C 383.72 81.47 381.47 79.81 379.17 78.22 M 196.50 89.32 C 162.44 101.24 132.38 124.29 112.15 154.18 C 92.98 181.88 81.75 215.21 81.45 248.97 C 80.88 282.95 90.70 317.14 109.73 345.35 C 129.03 373.86 157.06 396.27 188.96 409.17 C 189.58 409.42 190.81 409.93 191.43 410.19 L 191.44 410.65 C 195.24 412.07 199.34 412.81 203.25 414.02 L 203.22 414.69 C 203.74 414.85 204.79 415.19 205.32 415.35 C 212.78 417.52 220.51 418.70 228.06 420.58 C 229.23 420.43 230.99 421.44 231.82 420.29 C 236.31 421.76 241.05 421.84 245.71 422.33 C 247.10 422.54 248.35 422.46 249.48 422.08 C 266.42 423.28 283.52 421.64 300.04 417.77 C 301.31 417.46 302.58 417.16 303.85 416.84 L 304.00 416.14 C 316.58 413.64 327.96 407.25 339.72 402.35 L 338.92 402.35 C 340.00 401.75 341.07 401.14 342.14 400.52 C 376.34 380.59 404.23 349.44 418.63 312.43 C 431.06 281.03 433.08 245.84 425.46 213.02 C 418.27 182.66 402.84 154.27 381.10 131.87 C 358.95 109.25 330.49 92.92 299.83 85.06 C 265.93 76.71 229.52 77.73 196.50 89.32 M 111.86 92.50 C 113.24 94.45 114.43 96.54 115.15 98.84 C 117.47 105.78 120.06 112.64 122.68 119.47 C 124.33 117.89 126.00 116.34 127.72 114.85 C 126.29 113.00 125.06 111.01 123.96 108.94 C 126.19 107.31 128.21 105.32 130.72 104.13 C 132.35 105.06 133.57 106.51 134.71 107.97 C 136.83 106.25 139.00 104.61 141.19 102.99 C 133.09 98.63 125.62 93.21 117.80 88.37 C 115.81 89.73 113.83 91.12 111.86 92.50 M 405.82 100.85 C 398.37 106.01 390.12 110.06 381.65 113.28 C 383.21 114.89 384.75 116.51 386.27 118.15 C 387.80 117.03 389.37 115.96 390.96 114.93 C 392.93 116.87 394.88 118.84 396.78 120.87 C 395.46 122.25 394.11 123.58 392.71 124.87 C 394.84 126.68 396.85 128.62 398.85 130.58 C 402.24 121.99 406.91 113.94 411.35 105.86 C 409.48 104.21 407.64 102.54 405.82 100.85 M 90.07 114.23 C 91.47 115.52 92.86 116.82 94.25 118.13 C 95.82 115.07 98.17 112.55 100.48 110.05 C 102.59 116.66 104.53 123.31 106.58 129.93 C 106.84 131.28 108.14 131.94 109.02 132.85 C 112.96 128.82 117.03 124.92 121.21 121.15 C 119.70 119.16 118.21 117.16 116.75 115.13 C 116.42 118.90 114.17 121.91 111.53 124.42 C 108.35 116.78 106.81 108.46 102.94 101.14 C 98.63 105.49 94.72 110.23 90.07 114.23 M 420.60 115.43 C 414.63 121.66 407.46 126.59 400.61 131.79 C 403.61 136.04 406.63 140.27 409.74 144.44 C 411.34 143.20 412.95 141.97 414.60 140.78 C 411.71 139.42 409.78 136.85 407.94 134.35 C 413.79 130.06 418.83 124.65 425.17 121.04 C 423.59 119.22 422.07 117.34 420.60 115.43 M 86.28 119.76 C 85.01 121.52 83.72 123.27 82.42 125.01 C 87.34 126.74 91.25 130.33 95.41 133.34 C 89.79 132.62 84.13 132.33 78.53 131.42 C 77.18 133.41 75.77 135.37 74.27 137.25 C 81.89 141.44 89.13 146.51 95.61 152.33 C 96.53 150.49 97.56 148.71 98.70 146.99 C 93.46 144.47 88.90 140.79 84.07 137.59 C 90.70 138.49 97.39 138.71 104.03 139.47 C 104.95 138.28 105.88 137.09 106.81 135.90 C 99.94 130.56 92.37 126.03 86.28 119.76 M 419.70 138.74 C 416.20 141.31 413.27 145.50 413.94 150.04 C 414.55 154.73 417.96 158.47 421.91 160.77 C 423.88 159.52 425.84 158.27 427.84 157.07 C 424.23 156.88 420.05 154.93 419.52 150.96 C 419.06 147.64 422.02 145.29 424.53 143.73 C 427.15 142.29 429.97 140.66 433.07 140.78 C 436.73 141.85 437.65 145.98 437.72 149.32 C 439.26 148.14 440.84 147.00 442.42 145.87 C 441.09 141.94 439.01 137.74 434.99 136.01 C 429.89 133.67 424.00 135.62 419.70 138.74 M 62.97 156.82 C 70.83 160.16 78.30 164.48 85.34 169.30 C 88.20 164.63 90.40 159.52 93.99 155.33 C 92.33 154.48 90.67 153.62 89.03 152.75 C 88.58 155.98 86.52 158.56 84.80 161.21 C 82.90 160.10 81.00 158.99 79.07 157.94 C 80.16 156.56 81.25 155.19 82.36 153.82 C 80.78 152.92 79.22 152.01 77.68 151.07 C 77.15 152.85 76.61 154.63 76.02 156.40 C 74.08 155.28 72.14 154.15 70.18 153.05 C 71.54 150.05 73.28 147.19 75.93 145.16 C 74.20 144.36 72.48 143.52 70.78 142.66 C 68.23 147.41 65.57 152.10 62.97 156.82 M 427.38 162.33 C 425.29 163.36 424.51 165.88 424.85 168.06 C 425.36 172.55 427.77 177.13 431.95 179.18 C 434.10 180.29 436.57 179.41 438.60 178.45 C 443.95 175.86 449.07 172.62 454.95 171.32 C 453.90 169.36 452.90 167.38 451.96 165.38 C 447.37 169.50 441.37 171.49 435.93 174.21 C 431.91 176.48 426.73 168.54 431.82 167.01 C 437.65 164.20 443.19 160.57 449.53 158.98 C 448.17 156.85 447.01 154.61 446.04 152.29 C 440.05 156.06 433.54 158.89 427.38 162.33 M 60.41 161.82 C 59.34 164.18 58.23 166.51 57.04 168.81 C 65.17 171.54 72.74 175.74 80.40 179.56 C 81.29 177.28 82.22 175.02 83.23 172.79 C 75.17 170.23 67.64 166.16 60.41 161.82 M 55.35 173.89 C 53.31 177.29 51.20 180.92 51.30 185.03 C 51.03 188.97 53.60 192.49 56.89 194.41 C 61.29 197.13 67.32 198.99 72.05 195.99 C 76.53 192.90 78.01 187.19 78.54 182.06 C 76.41 181.00 74.35 179.81 72.39 178.46 C 73.92 181.81 74.35 185.93 71.97 189.03 C 70.42 191.27 67.34 190.78 65.05 190.30 C 61.73 189.43 57.78 188.25 56.21 184.89 C 55.42 181.06 58.26 177.66 61.53 176.09 C 59.45 175.43 57.40 174.67 55.35 173.89 M 445.52 182.37 C 441.30 183.79 437.02 185.06 432.62 185.78 C 433.27 187.72 433.85 189.68 434.42 191.64 C 439.21 188.69 444.84 187.70 450.12 185.96 C 445.56 190.52 441.58 195.73 436.36 199.58 C 437.22 201.49 438.02 203.44 438.79 205.39 C 447.07 202.54 455.35 199.40 464.02 197.93 C 463.31 195.90 462.63 193.86 462.01 191.81 C 457.10 195.10 451.17 196.16 445.71 198.18 C 450.15 193.72 454.16 188.75 459.21 184.95 C 458.47 182.65 457.88 180.30 457.38 177.95 C 453.70 180.10 449.50 180.99 445.52 182.37 M 48.27 198.64 C 45.55 202.29 43.50 207.15 45.39 211.64 C 46.69 215.65 51.99 217.49 55.53 215.26 C 58.37 213.36 59.73 210.04 62.16 207.72 C 63.76 206.59 66.09 207.99 65.94 209.90 C 66.19 213.16 63.68 215.52 61.24 217.23 C 63.25 217.68 65.25 218.15 67.26 218.62 C 69.32 214.83 71.61 210.38 70.02 206.01 C 68.44 201.33 61.60 199.52 58.08 203.11 C 55.83 205.50 54.31 208.49 51.93 210.79 C 50.83 209.72 48.78 208.88 49.17 206.99 C 49.06 203.96 51.60 201.98 53.93 200.56 C 52.06 199.87 50.23 199.02 48.27 198.64 M 453.10 206.11 C 449.67 206.81 446.13 208.14 443.91 210.97 C 439.24 216.86 441.96 227.29 449.46 229.35 C 454.30 230.51 459.80 229.86 463.98 227.03 C 469.91 222.79 469.96 213.08 464.60 208.36 C 461.44 205.74 457.00 205.32 453.10 206.11 M 40.42 235.73 C 40.37 238.47 40.23 241.21 39.99 243.94 C 48.68 245.47 56.86 249.30 64.51 253.60 C 62.81 253.96 61.10 254.30 59.40 254.62 C 60.21 257.38 60.49 260.26 60.58 263.14 C 53.66 263.21 46.76 263.85 39.84 263.50 C 40.00 266.09 40.13 268.69 40.12 271.29 C 48.28 269.09 56.96 269.13 65.30 269.98 C 64.93 261.98 63.84 253.88 65.37 245.95 C 63.34 246.22 61.32 245.88 59.34 245.48 C 59.57 242.92 59.79 240.35 60.04 237.80 C 61.99 237.61 63.95 237.48 65.90 237.44 C 65.90 234.85 65.93 232.26 66.00 229.68 C 57.52 231.86 49.01 234.02 40.42 235.73 M 446.32 234.16 C 444.37 235.34 444.38 238.35 446.29 239.56 C 448.52 241.33 451.90 238.59 451.17 236.01 C 450.54 234.14 448.03 232.76 446.32 234.16 M 447.25 244.23 C 443.47 245.68 446.51 251.99 449.98 249.97 C 453.62 248.44 450.93 242.04 447.25 244.23 M 447.38 254.39 C 445.27 255.14 444.61 258.18 446.38 259.62 C 447.86 261.32 450.82 260.57 451.55 258.51 C 452.80 256.15 449.72 253.21 447.38 254.39 M 446.05 264.92 C 442.48 267.35 446.81 272.94 449.98 270.07 C 453.15 267.67 449.27 262.73 446.05 264.92 M 401.28 362.13 C 399.65 364.34 397.92 366.46 396.16 368.58 C 402.27 372.44 408.57 376.00 414.73 379.78 C 415.87 378.30 417.03 376.83 418.17 375.35 C 412.49 371.01 406.98 366.45 401.28 362.13 M 88.24 382.16 C 86.89 388.99 92.16 395.39 98.27 397.71 C 100.55 397.37 102.52 395.77 104.62 394.83 C 100.47 393.74 95.74 391.63 94.71 387.00 C 94.41 383.50 96.95 380.53 99.12 378.05 C 101.81 375.41 105.85 372.58 109.71 374.46 C 113.35 376.05 114.93 379.97 115.73 383.60 C 117.06 381.78 118.41 379.98 119.75 378.17 C 117.30 372.63 112.31 367.68 105.94 367.49 C 97.38 367.01 90.13 374.23 88.24 382.16 M 419.38 378.49 C 417.49 379.99 417.45 383.10 419.54 384.45 C 421.94 386.55 426.00 384.18 425.55 381.08 C 425.50 378.15 421.50 376.31 419.38 378.49 M 384.03 384.35 C 387.59 388.25 389.86 393.05 392.40 397.63 C 394.96 402.29 397.55 406.94 399.62 411.85 C 401.54 409.80 403.54 407.83 405.63 405.96 C 403.37 404.68 401.64 402.75 400.17 400.65 C 402.39 398.51 404.61 396.37 406.82 394.22 C 409.03 395.36 411.15 396.68 412.88 398.51 C 414.72 396.24 416.66 394.04 418.63 391.89 C 408.94 387.88 399.80 382.67 390.13 378.61 C 388.15 380.58 386.13 382.51 384.03 384.35 M 120.16 386.10 C 113.74 388.40 109.09 394.60 107.51 401.11 C 105.56 410.47 116.57 418.89 125.19 415.32 C 131.42 412.62 136.29 406.65 137.35 399.89 C 138.65 390.99 128.36 383.58 120.16 386.10 M 379.75 388.96 C 373.74 393.65 368.32 399.13 361.79 403.10 C 363.08 404.61 364.35 406.14 365.62 407.67 C 367.52 405.88 369.45 404.12 371.37 402.36 C 376.50 409.01 382.01 415.41 386.42 422.58 C 388.48 420.88 390.54 419.18 392.61 417.50 C 386.37 411.49 381.78 404.03 376.56 397.17 C 378.94 395.69 381.45 394.44 384.01 393.29 C 382.59 391.84 381.18 390.39 379.75 388.96 M 145.87 399.97 C 144.08 403.93 141.33 407.33 139.00 410.98 C 135.72 415.82 132.79 420.93 128.93 425.35 C 131.04 426.67 133.11 428.08 135.08 429.63 C 137.28 422.96 141.89 417.47 145.39 411.46 C 145.33 419.38 145.20 427.30 144.73 435.21 C 146.22 436.28 147.71 437.35 149.19 438.45 C 151.68 433.62 154.76 429.14 157.69 424.57 C 160.28 420.72 162.59 416.60 165.91 413.30 C 163.86 412.01 161.82 410.68 159.83 409.31 C 158.02 414.99 154.01 419.59 151.05 424.69 C 151.53 417.89 151.71 411.08 152.22 404.29 C 150.05 402.92 147.93 401.48 145.87 399.97 M 343.14 414.86 C 346.44 417.75 348.35 421.76 350.59 425.45 C 353.42 430.51 356.79 435.33 358.73 440.84 C 363.80 437.35 368.95 433.95 374.34 430.97 C 373.33 429.13 372.33 427.29 371.37 425.44 C 368.90 428.20 365.82 430.26 362.69 432.19 C 361.14 430.02 359.70 427.79 358.27 425.55 C 360.58 424.06 363.14 423.04 365.81 422.40 C 364.71 420.70 363.64 418.98 362.59 417.25 C 360.72 419.01 358.63 420.52 356.49 421.91 C 355.16 419.39 353.97 416.79 352.95 414.13 C 355.68 412.34 358.67 411.02 361.81 410.12 C 360.60 408.68 359.39 407.24 358.19 405.81 C 353.38 409.16 348.20 411.92 343.14 414.86 M 332.29 419.77 C 336.61 424.25 337.74 430.60 340.49 436.01 C 334.78 431.77 329.33 427.19 323.37 423.31 C 320.66 424.54 317.90 425.68 315.13 426.77 C 318.65 429.37 319.77 433.75 321.48 437.56 C 323.67 443.29 326.51 448.82 327.70 454.89 C 329.98 453.85 332.30 452.88 334.65 451.95 C 330.54 446.17 328.75 439.19 325.71 432.85 C 332.11 437.93 339.47 441.91 344.96 448.03 C 346.81 447.12 348.67 446.24 350.54 445.37 C 347.65 441.14 346.23 436.17 344.35 431.46 C 342.55 426.47 340.19 421.61 339.43 416.31 C 337.12 417.61 334.74 418.76 332.29 419.77 M 180.18 419.53 C 178.90 427.30 174.79 434.25 173.19 441.92 C 171.33 451.74 186.20 459.24 192.87 451.84 C 197.54 444.85 198.66 436.09 203.35 429.09 C 200.93 428.38 198.54 427.57 196.18 426.70 C 196.85 430.06 195.21 433.15 194.08 436.21 C 192.49 440.14 191.24 444.27 188.97 447.87 C 186.81 451.39 180.84 449.73 179.90 446.02 C 179.86 442.62 181.42 439.50 182.49 436.36 C 184.26 431.88 185.57 427.15 188.36 423.16 C 185.60 422.02 182.88 420.78 180.18 419.53 M 206.77 429.89 C 207.88 433.57 206.73 437.30 206.04 440.94 C 204.58 447.29 203.60 453.82 201.17 459.89 C 203.71 460.26 206.24 460.71 208.74 461.34 C 208.42 454.44 210.79 447.80 211.92 441.06 C 214.36 448.60 217.58 455.87 219.81 463.47 C 221.80 463.89 223.78 464.30 225.77 464.69 C 226.46 456.69 228.29 448.84 229.97 441.00 C 230.41 438.86 231.15 436.79 232.02 434.79 C 229.43 434.31 226.86 433.75 224.31 433.12 C 225.71 439.23 223.00 445.25 222.14 451.25 C 219.93 444.66 217.68 438.09 215.44 431.52 C 212.54 430.99 209.64 430.51 206.77 429.89 M 296.54 431.41 C 297.58 436.26 296.55 441.17 296.27 446.04 C 295.64 451.95 295.41 457.96 293.72 463.69 C 296.27 463.03 298.82 462.44 301.41 461.95 C 301.09 459.42 300.99 456.87 300.96 454.33 C 303.88 453.54 306.79 452.74 309.72 451.99 C 311.11 454.03 312.34 456.23 312.56 458.75 C 315.49 457.79 318.46 456.97 321.46 456.22 C 317.93 452.00 315.28 447.15 312.37 442.52 C 309.85 438.21 306.97 434.10 305.06 429.48 C 302.24 430.22 299.40 430.84 296.54 431.41 M 275.90 435.01 C 277.84 438.36 277.87 442.29 278.29 446.04 C 278.75 452.41 280.01 458.75 279.53 465.16 C 282.37 464.75 285.22 464.40 288.08 464.09 C 286.43 459.55 286.29 454.69 285.72 449.94 C 285.28 444.62 284.28 439.31 284.70 433.95 C 281.79 434.50 278.85 434.92 275.90 435.01 M 249.54 436.47 C 251.68 440.28 251.01 444.82 251.31 449.02 C 251.23 454.72 252.10 460.50 250.87 466.14 C 253.68 465.99 256.49 465.88 259.30 465.95 C 258.12 462.14 258.34 458.12 258.13 454.19 C 262.22 453.83 266.98 454.26 270.20 451.19 C 274.14 447.73 273.70 440.45 268.99 437.85 C 263.06 434.42 255.97 436.94 249.54 436.47 Z" />
<path fill="#ffffff" opacity="1.00" d=" M 219.29 47.31 C 221.52 45.80 224.94 46.33 226.08 48.93 C 227.82 53.01 228.64 57.61 228.17 62.03 C 227.72 65.41 222.89 66.78 220.69 64.23 C 218.29 61.06 217.67 56.92 217.35 53.05 C 217.27 51.04 217.24 48.41 219.29 47.31 Z" />
<path fill="#ffffff" opacity="1.00" d=" M 357.57 72.56 C 360.56 70.13 365.49 73.40 364.76 77.08 C 364.04 81.65 361.11 85.53 358.00 88.81 C 357.76 88.05 357.27 86.53 357.03 85.78 C 355.71 86.02 354.40 86.28 353.10 86.55 C 353.34 87.41 353.81 89.14 354.05 90.01 C 352.39 88.76 350.18 87.43 350.51 85.00 C 351.14 80.22 353.72 75.51 357.57 72.56 Z" />
<path fill="#ffffff" opacity="1.00" d=" M 177.63 126.65 C 184.51 121.89 193.49 122.93 201.16 124.84 C 217.31 129.09 231.70 138.12 244.98 148.00 C 255.09 155.89 264.77 164.40 273.18 174.11 C 272.66 174.55 271.62 175.42 271.10 175.86 C 260.32 163.62 247.83 152.93 234.32 143.79 C 222.71 136.16 210.16 129.46 196.43 126.71 C 190.21 125.59 183.00 125.64 178.00 130.06 C 172.58 134.65 171.56 142.28 171.73 148.98 C 172.15 158.00 174.03 166.93 176.72 175.54 C 176.01 175.73 174.58 176.12 173.87 176.32 C 171.02 166.44 168.75 156.26 168.84 145.94 C 169.00 138.75 171.27 130.77 177.63 126.65 Z" />
<path fill="#ffffff" opacity="1.00" d=" M 352.55 181.67 C 363.75 179.16 376.27 181.31 385.21 188.77 C 398.81 199.85 401.59 221.48 391.95 235.98 C 384.10 248.38 368.29 255.04 353.95 251.73 C 344.04 249.40 334.25 243.71 329.49 234.40 C 321.83 218.97 325.88 198.32 339.69 187.70 C 343.48 184.81 347.88 182.70 352.55 181.67 M 357.15 188.23 C 353.46 189.72 351.23 193.29 349.84 196.84 C 347.07 203.85 347.01 211.53 347.16 218.96 C 347.41 226.26 348.60 233.94 352.85 240.06 C 355.45 243.91 360.49 245.92 364.98 244.53 C 369.14 243.13 371.64 239.11 373.23 235.26 C 375.99 227.86 376.08 219.79 375.74 212.00 C 375.33 204.44 373.93 196.25 368.51 190.56 C 365.74 187.42 360.93 186.52 357.15 188.23 Z" />
<path fill="#ffffff" opacity="1.00" d=" M 133.33 181.84 C 145.04 181.85 156.75 181.87 168.46 181.82 C 168.47 182.91 168.48 184.01 168.50 185.10 C 164.99 185.43 162.64 188.28 162.63 191.75 C 162.00 204.45 162.88 217.20 162.24 229.91 C 161.81 238.10 157.12 246.03 149.64 249.64 C 136.53 256.17 118.52 253.66 109.07 241.99 C 113.42 240.30 117.63 238.25 121.81 236.17 C 123.02 238.49 124.16 241.04 126.41 242.57 C 129.81 245.00 135.06 243.98 137.35 240.49 C 140.06 236.56 140.04 231.55 140.10 226.97 C 139.77 215.62 139.98 204.27 139.87 192.92 C 139.77 190.86 139.72 188.45 138.08 186.95 C 136.78 185.69 134.87 185.61 133.22 185.15 C 133.25 184.04 133.29 182.94 133.33 181.84 Z" />
<path fill="#ffffff" opacity="1.00" d=" M 173.14 181.84 C 185.19 181.85 197.23 181.87 209.28 181.82 C 209.27 182.66 209.25 184.32 209.24 185.15 C 206.33 185.91 202.35 187.25 202.47 190.93 C 202.46 203.64 202.07 216.35 202.38 229.05 C 202.39 234.33 204.23 240.23 209.08 243.00 C 213.58 245.93 220.10 244.58 223.27 240.31 C 225.88 237.15 226.49 232.93 226.49 228.96 C 226.55 217.29 226.45 205.61 226.58 193.94 C 226.50 191.61 226.71 188.88 224.96 187.06 C 223.45 185.75 221.36 185.63 219.50 185.16 C 219.52 184.04 219.54 182.94 219.56 181.83 C 226.81 181.86 234.06 181.85 241.31 181.83 C 241.30 182.63 241.27 184.23 241.26 185.04 C 239.67 185.72 237.52 185.82 236.61 187.49 C 235.18 190.08 235.40 193.13 235.29 195.98 C 235.23 207.00 234.90 218.02 234.90 229.03 C 234.87 235.95 232.39 243.39 226.51 247.49 C 218.02 253.26 207.00 254.06 197.22 251.73 C 191.01 250.31 185.13 246.55 182.19 240.76 C 179.63 236.31 179.46 231.04 179.38 226.05 C 179.25 215.72 179.04 205.39 179.16 195.05 C 179.11 192.61 179.27 190.05 178.31 187.75 C 177.37 185.78 174.98 185.50 173.13 184.93 C 173.13 184.16 173.14 182.61 173.14 181.84 Z" />
<path fill="#ffffff" opacity="1.00" d=" M 247.54 181.83 C 259.37 181.98 271.21 181.58 283.03 182.05 C 293.10 182.43 303.62 185.86 310.31 193.74 C 322.40 208.27 319.71 233.08 304.11 244.07 C 297.68 248.59 289.67 250.44 281.90 250.26 C 272.29 245.33 261.06 242.81 250.33 244.63 C 252.06 242.81 253.64 240.65 253.49 238.00 C 253.74 224.67 253.39 211.33 253.72 197.99 C 253.69 194.83 254.00 191.59 253.28 188.48 C 252.58 185.96 249.67 185.69 247.58 184.95 C 247.57 184.17 247.55 182.61 247.54 181.83 M 275.26 189.17 C 275.00 207.32 274.90 225.46 275.03 243.60 C 278.82 243.62 282.85 243.38 286.02 241.05 C 292.93 236.49 295.57 227.88 296.01 219.99 C 296.52 211.14 295.70 201.30 289.71 194.27 C 286.25 190.08 280.60 187.98 275.26 189.17 Z" />
<path fill="#ffffff" opacity="1.00" d=" M 453.51 212.75 C 456.15 212.19 458.96 211.73 461.63 212.43 C 464.71 213.75 465.61 218.73 462.71 220.75 C 459.10 223.27 454.35 223.79 450.07 223.40 C 446.69 223.31 444.55 219.12 446.53 216.37 C 448.21 214.25 451.02 213.50 453.51 212.75 Z" />
<path fill="#ffffff" opacity="1.00" d=" M 317.81 238.42 C 318.40 237.64 318.99 236.86 319.58 236.09 C 327.45 247.84 334.17 260.39 339.19 273.61 C 343.24 284.92 346.52 296.89 345.62 309.02 C 345.07 316.95 340.61 324.72 333.30 328.23 C 324.35 333.09 313.85 331.69 304.21 330.30 C 304.97 329.46 305.67 328.57 306.38 327.68 C 312.59 328.48 318.97 329.31 325.19 328.12 C 331.52 326.64 337.90 322.98 340.63 316.81 C 344.15 309.07 343.01 300.21 341.57 292.11 C 337.69 272.72 328.53 254.86 317.81 238.42 Z" />
<path fill="#ffffff" opacity="1.00" d=" M 47.20 240.79 C 49.97 240.05 52.78 239.46 55.60 238.99 C 55.42 240.62 55.22 242.26 55.02 243.89 C 52.39 242.91 49.77 241.92 47.20 240.79 Z" />
<path fill="#ffffff" opacity="1.00" d=" M 124.47 391.64 C 128.14 389.45 133.29 394.04 131.15 397.87 C 128.87 402.67 125.52 407.20 121.01 410.09 C 117.24 412.61 111.40 407.93 113.70 403.74 C 116.21 398.96 119.71 394.34 124.47 391.64 Z" />
</g>
<g id="#01386dff">
<path fill="#01386d" opacity="1.00" d=" M 259.30 40.80 C 264.87 41.63 271.41 39.95 276.07 43.89 C 280.01 46.88 279.03 53.64 274.91 56.02 C 272.10 57.86 268.62 57.55 265.46 57.20 C 265.23 60.54 265.01 63.89 265.31 67.23 C 262.87 67.00 260.43 66.80 257.99 66.66 C 259.30 58.15 260.53 49.37 259.30 40.80 M 266.59 44.29 C 266.18 47.30 265.92 50.33 265.70 53.36 C 267.38 53.22 269.27 53.85 270.83 52.96 C 272.84 51.06 272.72 47.35 270.56 45.60 C 269.32 44.94 267.93 44.66 266.59 44.29 Z" />
<path fill="#01386d" opacity="1.00" d=" M 162.09 60.90 C 164.45 59.80 166.81 58.71 169.17 57.61 C 169.60 60.32 170.38 62.97 171.56 65.45 C 173.94 70.64 175.89 76.08 179.17 80.79 C 176.98 81.81 174.83 82.92 172.72 84.10 C 169.45 76.26 166.54 68.15 162.09 60.90 Z" />
<path fill="#01386d" opacity="1.00" d=" M 401.28 362.13 C 406.98 366.45 412.49 371.01 418.17 375.35 C 417.03 376.83 415.87 378.30 414.73 379.78 C 408.57 376.00 402.27 372.44 396.16 368.58 C 397.92 366.46 399.65 364.34 401.28 362.13 Z" />
<path fill="#01386d" opacity="1.00" d=" M 379.75 388.96 C 381.18 390.39 382.59 391.84 384.01 393.29 C 381.45 394.44 378.94 395.69 376.56 397.17 C 381.78 404.03 386.37 411.49 392.61 417.50 C 390.54 419.18 388.48 420.88 386.42 422.58 C 382.01 415.41 376.50 409.01 371.37 402.36 C 369.45 404.12 367.52 405.88 365.62 407.67 C 364.35 406.14 363.08 404.61 361.79 403.10 C 368.32 399.13 373.74 393.65 379.75 388.96 Z" />
<path fill="#01386d" opacity="1.00" d=" M 145.87 399.97 C 147.93 401.48 150.05 402.92 152.22 404.29 C 151.71 411.08 151.53 417.89 151.05 424.69 C 154.01 419.59 158.02 414.99 159.83 409.31 C 161.82 410.68 163.86 412.01 165.91 413.30 C 162.59 416.60 160.28 420.72 157.69 424.57 C 154.76 429.14 151.68 433.62 149.19 438.45 C 147.71 437.35 146.22 436.28 144.73 435.21 C 145.20 427.30 145.33 419.38 145.39 411.46 C 141.89 417.47 137.28 422.96 135.08 429.63 C 133.11 428.08 131.04 426.67 128.93 425.35 C 132.79 420.93 135.72 415.82 139.00 410.98 C 141.33 407.33 144.08 403.93 145.87 399.97 Z" />
<path fill="#01386d" opacity="1.00" d=" M 343.14 414.86 C 348.20 411.92 353.38 409.16 358.19 405.81 C 359.39 407.24 360.60 408.68 361.81 410.12 C 358.67 411.02 355.68 412.34 352.95 414.13 C 353.97 416.79 355.16 419.39 356.49 421.91 C 358.63 420.52 360.72 419.01 362.59 417.25 C 363.64 418.98 364.71 420.70 365.81 422.40 C 363.14 423.04 360.58 424.06 358.27 425.55 C 359.70 427.79 361.14 430.02 362.69 432.19 C 365.82 430.26 368.90 428.20 371.37 425.44 C 372.33 427.29 373.33 429.13 374.34 430.97 C 368.95 433.95 363.80 437.35 358.73 440.84 C 356.79 435.33 353.42 430.51 350.59 425.45 C 348.35 421.76 346.44 417.75 343.14 414.86 Z" />
<path fill="#01386d" opacity="1.00" d=" M 206.77 429.89 C 209.64 430.51 212.54 430.99 215.44 431.52 C 217.68 438.09 219.93 444.66 222.14 451.25 C 223.00 445.25 225.71 439.23 224.31 433.12 C 226.86 433.75 229.43 434.31 232.02 434.79 C 231.15 436.79 230.41 438.86 229.97 441.00 C 228.29 448.84 226.46 456.69 225.77 464.69 C 223.78 464.30 221.80 463.89 219.81 463.47 C 217.58 455.87 214.36 448.60 211.92 441.06 C 210.79 447.80 208.42 454.44 208.74 461.34 C 206.24 460.71 203.71 460.26 201.17 459.89 C 203.60 453.82 204.58 447.29 206.04 440.94 C 206.73 437.30 207.88 433.57 206.77 429.89 Z" />
</g>
<g id="#01376cff">
<path fill="#01376c" opacity="1.00" d=" M 238.86 41.55 C 241.34 41.49 243.82 41.41 246.30 41.26 C 245.52 48.22 246.31 55.22 246.54 62.18 C 249.78 62.46 253.06 62.16 255.93 60.53 C 255.83 62.63 255.76 64.73 255.74 66.82 C 250.54 66.51 245.34 66.77 240.14 66.85 C 239.88 58.43 240.52 49.85 238.86 41.55 Z" />
</g>
<g id="#01386eff">
<path fill="#01386e" opacity="1.00" d=" M 217.48 43.61 C 222.57 41.33 229.56 42.47 232.53 47.54 C 235.31 52.46 235.80 58.94 233.15 64.02 C 229.28 71.40 216.91 71.33 213.05 63.95 C 209.17 57.43 209.50 46.83 217.48 43.61 M 219.29 47.31 C 217.24 48.41 217.27 51.04 217.35 53.05 C 217.67 56.92 218.29 61.06 220.69 64.23 C 222.89 66.78 227.72 65.41 228.17 62.03 C 228.64 57.61 227.82 53.01 226.08 48.93 C 224.94 46.33 221.52 45.80 219.29 47.31 Z" />
<path fill="#01386e" opacity="1.00" d=" M 283.74 42.77 C 286.23 43.27 288.74 43.71 291.27 44.05 C 289.65 47.87 289.21 52.03 288.57 56.09 C 287.91 60.54 286.97 64.98 287.02 69.50 C 284.61 69.04 282.20 68.60 279.79 68.20 C 281.86 59.90 283.79 51.36 283.74 42.77 Z" />
<path fill="#01386e" opacity="1.00" d=" M 297.29 44.96 C 303.12 46.83 311.39 46.44 314.19 53.04 C 315.95 57.83 311.75 62.16 307.15 62.61 C 308.77 66.77 310.35 70.95 312.01 75.10 C 309.73 74.60 307.46 74.10 305.18 73.60 C 303.62 69.39 302.24 65.09 300.28 61.04 C 299.30 64.61 298.46 68.26 298.55 71.99 C 296.20 71.39 293.85 70.84 291.48 70.34 C 294.22 62.11 296.09 53.55 297.29 44.96 M 303.16 49.87 C 302.42 52.41 301.73 54.95 301.07 57.51 C 302.68 57.89 304.29 58.37 305.95 58.55 C 308.01 57.39 308.90 54.38 307.56 52.35 C 306.56 50.88 304.69 50.53 303.16 49.87 Z" />
<path fill="#01386e" opacity="1.00" d=" M 90.07 114.23 C 94.72 110.23 98.63 105.49 102.94 101.14 C 106.81 108.46 108.35 116.78 111.53 124.42 C 114.17 121.91 116.42 118.90 116.75 115.13 C 118.21 117.16 119.70 119.16 121.21 121.15 C 117.03 124.92 112.96 128.82 109.02 132.85 C 108.14 131.94 106.84 131.28 106.58 129.93 C 104.53 123.31 102.59 116.66 100.48 110.05 C 98.17 112.55 95.82 115.07 94.25 118.13 C 92.86 116.82 91.47 115.52 90.07 114.23 Z" />
<path fill="#01386e" opacity="1.00" d=" M 48.27 198.64 C 50.23 199.02 52.06 199.87 53.93 200.56 C 51.60 201.98 49.06 203.96 49.17 206.99 C 48.78 208.88 50.83 209.72 51.93 210.79 C 54.31 208.49 55.83 205.50 58.08 203.11 C 61.60 199.52 68.44 201.33 70.02 206.01 C 71.61 210.38 69.32 214.83 67.26 218.62 C 65.25 218.15 63.25 217.68 61.24 217.23 C 63.68 215.52 66.19 213.16 65.94 209.90 C 66.09 207.99 63.76 206.59 62.16 207.72 C 59.73 210.04 58.37 213.36 55.53 215.26 C 51.99 217.49 46.69 215.65 45.39 211.64 C 43.50 207.15 45.55 202.29 48.27 198.64 Z" />
</g>
<g id="#fefefeff">
<path fill="#fefefe" opacity="1.00" d=" M 266.59 44.29 C 267.93 44.66 269.32 44.94 270.56 45.60 C 272.72 47.35 272.84 51.06 270.83 52.96 C 269.27 53.85 267.38 53.22 265.70 53.36 C 265.92 50.33 266.18 47.30 266.59 44.29 Z" />
<path fill="#fefefe" opacity="1.00" d=" M 303.16 49.87 C 304.69 50.53 306.56 50.88 307.56 52.35 C 308.90 54.38 308.01 57.39 305.95 58.55 C 304.29 58.37 302.68 57.89 301.07 57.51 C 301.73 54.95 302.42 52.41 303.16 49.87 Z" />
<path fill="#fefefe" opacity="1.00" d=" M 145.79 72.97 C 147.95 72.22 150.48 70.57 152.63 72.28 C 156.17 74.71 158.33 78.86 159.21 82.99 C 159.80 86.27 156.60 87.99 154.28 89.42 C 151.25 84.05 148.19 78.66 145.79 72.97 Z" />
<path fill="#fefefe" opacity="1.00" d=" M 257.33 341.72 C 255.51 339.37 259.96 338.50 260.08 340.94 C 259.35 341.92 258.43 342.18 257.33 341.72 Z" />
<path fill="#fefefe" opacity="1.00" d=" M 257.81 440.02 C 260.03 440.30 262.73 439.79 264.40 441.64 C 266.26 443.60 266.34 447.43 263.96 449.03 C 262.14 449.78 260.10 449.68 258.18 449.97 C 257.98 446.65 257.85 443.33 257.81 440.02 Z" />
</g>
<g id="#01396dff">
<path fill="#01396d" opacity="1.00" d=" M 187.64 57.09 C 188.91 50.13 196.60 46.40 203.17 47.00 C 203.76 48.81 204.35 50.62 204.96 52.43 C 201.33 50.93 196.14 51.29 194.26 55.24 C 193.60 60.16 194.73 66.21 199.09 69.18 C 202.90 70.76 206.35 67.55 208.98 65.19 C 209.28 67.01 209.60 68.82 209.90 70.64 C 205.82 73.51 200.45 75.47 195.57 73.48 C 189.44 70.83 186.97 63.31 187.64 57.09 Z" />
<path fill="#01396d" opacity="1.00" d=" M 405.82 100.85 C 407.64 102.54 409.48 104.21 411.35 105.86 C 406.91 113.94 402.24 121.99 398.85 130.58 C 396.85 128.62 394.84 126.68 392.71 124.87 C 394.11 123.58 395.46 122.25 396.78 120.87 C 394.88 118.84 392.93 116.87 390.96 114.93 C 389.37 115.96 387.80 117.03 386.27 118.15 C 384.75 116.51 383.21 114.89 381.65 113.28 C 390.12 110.06 398.37 106.01 405.82 100.85 M 394.74 113.00 C 396.06 114.21 397.38 115.42 398.71 116.64 C 400.38 113.78 402.01 110.89 403.64 108.01 C 400.68 109.69 397.72 111.36 394.74 113.00 Z" />
<path fill="#01396d" opacity="1.00" d=" M 419.70 138.74 C 424.00 135.62 429.89 133.67 434.99 136.01 C 439.01 137.74 441.09 141.94 442.42 145.87 C 440.84 147.00 439.26 148.14 437.72 149.32 C 437.65 145.98 436.73 141.85 433.07 140.78 C 429.97 140.66 427.15 142.29 424.53 143.73 C 422.02 145.29 419.06 147.64 419.52 150.96 C 420.05 154.93 424.23 156.88 427.84 157.07 C 425.84 158.27 423.88 159.52 421.91 160.77 C 417.96 158.47 414.55 154.73 413.94 150.04 C 413.27 145.50 416.20 141.31 419.70 138.74 Z" />
<path fill="#01396d" opacity="1.00" d=" M 88.24 382.16 C 90.13 374.23 97.38 367.01 105.94 367.49 C 112.31 367.68 117.30 372.63 119.75 378.17 C 118.41 379.98 117.06 381.78 115.73 383.60 C 114.93 379.97 113.35 376.05 109.71 374.46 C 105.85 372.58 101.81 375.41 99.12 378.05 C 96.95 380.53 94.41 383.50 94.71 387.00 C 95.74 391.63 100.47 393.74 104.62 394.83 C 102.52 395.77 100.55 397.37 98.27 397.71 C 92.16 395.39 86.89 388.99 88.24 382.16 Z" />
<path fill="#01396d" opacity="1.00" d=" M 180.18 419.53 C 182.88 420.78 185.60 422.02 188.36 423.16 C 185.57 427.15 184.26 431.88 182.49 436.36 C 181.42 439.50 179.86 442.62 179.90 446.02 C 180.84 449.73 186.81 451.39 188.97 447.87 C 191.24 444.27 192.49 440.14 194.08 436.21 C 195.21 433.15 196.85 430.06 196.18 426.70 C 198.54 427.57 200.93 428.38 203.35 429.09 C 198.66 436.09 197.54 444.85 192.87 451.84 C 186.20 459.24 171.33 451.74 173.19 441.92 C 174.79 434.25 178.90 427.30 180.18 419.53 Z" />
</g>
<g id="#01396eff">
<path fill="#01396e" opacity="1.00" d=" M 322.57 51.48 C 327.55 53.39 332.53 55.33 337.63 56.90 C 336.93 58.46 336.24 60.02 335.56 61.58 C 333.37 59.75 330.83 58.44 328.09 57.65 C 327.25 59.84 326.41 62.03 325.55 64.21 C 327.70 64.87 329.87 65.52 332.05 66.11 C 331.39 67.71 330.72 69.29 330.08 70.89 C 328.26 69.59 326.35 68.43 324.34 67.48 C 323.49 69.74 322.67 71.99 321.83 74.25 C 325.07 75.69 328.53 76.75 332.12 76.21 C 331.41 78.11 330.74 80.03 330.11 81.96 C 324.91 79.92 319.64 78.07 314.34 76.33 C 317.64 68.27 320.83 60.03 322.57 51.48 Z" />
<path fill="#01396e" opacity="1.00" d=" M 137.91 73.46 C 143.71 70.56 149.68 64.85 156.63 67.49 C 162.93 70.62 166.75 78.84 164.39 85.58 C 161.72 91.09 155.37 93.07 150.46 96.07 C 146.47 88.45 143.17 80.32 137.91 73.46 M 145.79 72.97 C 148.19 78.66 151.25 84.05 154.28 89.42 C 156.60 87.99 159.80 86.27 159.21 82.99 C 158.33 78.86 156.17 74.71 152.63 72.28 C 150.48 70.57 147.95 72.22 145.79 72.97 Z" />
<path fill="#01396e" opacity="1.00" d=" M 346.21 88.80 C 340.24 79.70 349.66 65.24 360.48 67.57 C 365.50 68.60 370.30 72.68 370.54 78.06 C 370.83 84.74 366.52 91.17 360.44 93.82 C 361.38 95.76 362.31 97.71 363.21 99.67 C 361.34 99.65 359.32 100.27 357.57 99.46 C 355.93 98.06 355.48 95.79 354.66 93.90 C 351.44 93.05 348.06 91.75 346.21 88.80 M 357.57 72.56 C 353.72 75.51 351.14 80.22 350.51 85.00 C 350.18 87.43 352.39 88.76 354.05 90.01 C 353.81 89.14 353.34 87.41 353.10 86.55 C 354.40 86.28 355.71 86.02 357.03 85.78 C 357.27 86.53 357.76 88.05 358.00 88.81 C 361.11 85.53 364.04 81.65 364.76 77.08 C 365.49 73.40 360.56 70.13 357.57 72.56 Z" />
<path fill="#01396e" opacity="1.00" d=" M 379.17 78.22 C 381.47 79.81 383.72 81.47 385.99 83.13 C 382.42 85.89 379.98 89.74 377.24 93.25 C 375.69 95.40 373.91 97.48 373.04 100.03 C 372.90 103.54 377.77 106.51 380.39 103.56 C 384.78 99.04 389.00 94.17 391.95 88.56 C 393.62 89.97 395.34 91.34 397.12 92.62 C 391.35 96.68 388.16 103.34 382.66 107.66 C 376.94 111.50 369.51 106.54 367.32 100.88 C 366.11 98.48 367.34 95.83 368.76 93.85 C 372.33 88.71 376.67 84.03 379.17 78.22 Z" />
<path fill="#01396e" opacity="1.00" d=" M 111.86 92.50 C 113.83 91.12 115.81 89.73 117.80 88.37 C 125.62 93.21 133.09 98.63 141.19 102.99 C 139.00 104.61 136.83 106.25 134.71 107.97 C 133.57 106.51 132.35 105.06 130.72 104.13 C 128.21 105.32 126.19 107.31 123.96 108.94 C 125.06 111.01 126.29 113.00 127.72 114.85 C 126.00 116.34 124.33 117.89 122.68 119.47 C 120.06 112.64 117.47 105.78 115.15 98.84 C 114.43 96.54 113.24 94.45 111.86 92.50 M 119.50 97.11 C 120.57 99.62 121.55 102.16 122.56 104.70 C 123.96 103.69 125.36 102.69 126.77 101.68 C 124.67 100.20 122.57 98.75 120.46 97.30 C 120.22 97.25 119.74 97.15 119.50 97.11 Z" />
<path fill="#01396e" opacity="1.00" d=" M 420.60 115.43 C 422.07 117.34 423.59 119.22 425.17 121.04 C 418.83 124.65 413.79 130.06 407.94 134.35 C 409.78 136.85 411.71 139.42 414.60 140.78 C 412.95 141.97 411.34 143.20 409.74 144.44 C 406.63 140.27 403.61 136.04 400.61 131.79 C 407.46 126.59 414.63 121.66 420.60 115.43 Z" />
<path fill="#01396e" opacity="1.00" d=" M 86.28 119.76 C 92.37 126.03 99.94 130.56 106.81 135.90 C 105.88 137.09 104.95 138.28 104.03 139.47 C 97.39 138.71 90.70 138.49 84.07 137.59 C 88.90 140.79 93.46 144.47 98.70 146.99 C 97.56 148.71 96.53 150.49 95.61 152.33 C 89.13 146.51 81.89 141.44 74.27 137.25 C 75.77 135.37 77.18 133.41 78.53 131.42 C 84.13 132.33 89.79 132.62 95.41 133.34 C 91.25 130.33 87.34 126.74 82.42 125.01 C 83.72 123.27 85.01 121.52 86.28 119.76 Z" />
<path fill="#01396e" opacity="1.00" d=" M 62.97 156.82 C 65.57 152.10 68.23 147.41 70.78 142.66 C 72.48 143.52 74.20 144.36 75.93 145.16 C 73.28 147.19 71.54 150.05 70.18 153.05 C 72.14 154.15 74.08 155.28 76.02 156.40 C 76.61 154.63 77.15 152.85 77.68 151.07 C 79.22 152.01 80.78 152.92 82.36 153.82 C 81.25 155.19 80.16 156.56 79.07 157.94 C 81.00 158.99 82.90 160.10 84.80 161.21 C 86.52 158.56 88.58 155.98 89.03 152.75 C 90.67 153.62 92.33 154.48 93.99 155.33 C 90.40 159.52 88.20 164.63 85.34 169.30 C 78.30 164.48 70.83 160.16 62.97 156.82 Z" />
<path fill="#01396e" opacity="1.00" d=" M 427.38 162.33 C 433.54 158.89 440.05 156.06 446.04 152.29 C 447.01 154.61 448.17 156.85 449.53 158.98 C 443.19 160.57 437.65 164.20 431.82 167.01 C 426.73 168.54 431.91 176.48 435.93 174.21 C 441.37 171.49 447.37 169.50 451.96 165.38 C 452.90 167.38 453.90 169.36 454.95 171.32 C 449.07 172.62 443.95 175.86 438.60 178.45 C 436.57 179.41 434.10 180.29 431.95 179.18 C 427.77 177.13 425.36 172.55 424.85 168.06 C 424.51 165.88 425.29 163.36 427.38 162.33 Z" />
<path fill="#01396e" opacity="1.00" d=" M 55.35 173.89 C 57.40 174.67 59.45 175.43 61.53 176.09 C 58.26 177.66 55.42 181.06 56.21 184.89 C 57.78 188.25 61.73 189.43 65.05 190.30 C 67.34 190.78 70.42 191.27 71.97 189.03 C 74.35 185.93 73.92 181.81 72.39 178.46 C 74.35 179.81 76.41 181.00 78.54 182.06 C 78.01 187.19 76.53 192.90 72.05 195.99 C 67.32 198.99 61.29 197.13 56.89 194.41 C 53.60 192.49 51.03 188.97 51.30 185.03 C 51.20 180.92 53.31 177.29 55.35 173.89 Z" />
<path fill="#01396e" opacity="1.00" d=" M 445.52 182.37 C 449.50 180.99 453.70 180.10 457.38 177.95 C 457.88 180.30 458.47 182.65 459.21 184.95 C 454.16 188.75 450.15 193.72 445.71 198.18 C 451.17 196.16 457.10 195.10 462.01 191.81 C 462.63 193.86 463.31 195.90 464.02 197.93 C 455.35 199.40 447.07 202.54 438.79 205.39 C 438.02 203.44 437.22 201.49 436.36 199.58 C 441.58 195.73 445.56 190.52 450.12 185.96 C 444.84 187.70 439.21 188.69 434.42 191.64 C 433.85 189.68 433.27 187.72 432.62 185.78 C 437.02 185.06 441.30 183.79 445.52 182.37 Z" />
<path fill="#01396e" opacity="1.00" d=" M 453.10 206.11 C 457.00 205.32 461.44 205.74 464.60 208.36 C 469.96 213.08 469.91 222.79 463.98 227.03 C 459.80 229.86 454.30 230.51 449.46 229.35 C 441.96 227.29 439.24 216.86 443.91 210.97 C 446.13 208.14 449.67 206.81 453.10 206.11 M 453.51 212.75 C 451.02 213.50 448.21 214.25 446.53 216.37 C 444.55 219.12 446.69 223.31 450.07 223.40 C 454.35 223.79 459.10 223.27 462.71 220.75 C 465.61 218.73 464.71 213.75 461.63 212.43 C 458.96 211.73 456.15 212.19 453.51 212.75 Z" />
<path fill="#01396e" opacity="1.00" d=" M 120.16 386.10 C 128.36 383.58 138.65 390.99 137.35 399.89 C 136.29 406.65 131.42 412.62 125.19 415.32 C 116.57 418.89 105.56 410.47 107.51 401.11 C 109.09 394.60 113.74 388.40 120.16 386.10 M 124.47 391.64 C 119.71 394.34 116.21 398.96 113.70 403.74 C 111.40 407.93 117.24 412.61 121.01 410.09 C 125.52 407.20 128.87 402.67 131.15 397.87 C 133.29 394.04 128.14 389.45 124.47 391.64 Z" />
</g>
<g id="#00386cff">
<path fill="#00386c" opacity="1.00" d=" M 196.50 89.32 C 229.52 77.73 265.93 76.71 299.83 85.06 C 330.49 92.92 358.95 109.25 381.10 131.87 C 402.84 154.27 418.27 182.66 425.46 213.02 C 433.08 245.84 431.06 281.03 418.63 312.43 C 404.23 349.44 376.34 380.59 342.14 400.52 C 340.20 393.85 338.52 387.00 334.94 380.98 C 329.43 371.56 320.11 364.85 310.05 360.98 C 305.23 359.03 299.79 357.82 296.15 353.84 C 292.87 350.27 289.86 346.29 288.05 341.77 C 288.28 339.85 289.35 338.17 290.12 336.44 C 295.21 335.57 300.67 334.41 304.21 330.30 C 313.85 331.69 324.35 333.09 333.30 328.23 C 340.61 324.72 345.07 316.95 345.62 309.02 C 346.52 296.89 343.24 284.92 339.19 273.61 C 334.17 260.39 327.45 247.84 319.58 236.09 C 318.99 236.86 318.40 237.64 317.81 238.42 C 328.53 254.86 337.69 272.72 341.57 292.11 C 343.01 300.21 344.15 309.07 340.63 316.81 C 337.90 322.98 331.52 326.64 325.19 328.12 C 318.97 329.31 312.59 328.48 306.38 327.68 C 309.84 322.03 313.07 315.73 313.00 308.95 C 313.03 304.70 309.91 301.55 307.05 298.84 C 308.71 285.95 308.53 271.04 298.98 261.05 C 295.72 257.73 290.53 257.87 287.05 254.89 C 285.26 253.43 283.65 251.75 281.90 250.26 C 289.67 250.44 297.68 248.59 304.11 244.07 C 319.71 233.08 322.40 208.27 310.31 193.74 C 303.62 185.86 293.10 182.43 283.03 182.05 C 271.21 181.58 259.37 181.98 247.54 181.83 C 247.55 182.61 247.57 184.17 247.58 184.95 C 249.67 185.69 252.58 185.96 253.28 188.48 C 254.00 191.59 253.69 194.83 253.72 197.99 C 253.39 211.33 253.74 224.67 253.49 238.00 C 253.64 240.65 252.06 242.81 250.33 244.63 C 236.58 245.99 223.97 254.41 216.67 266.03 C 214.10 263.34 211.86 260.37 209.77 257.31 C 208.65 257.38 207.52 257.45 206.40 257.53 C 209.24 261.29 211.99 265.12 215.06 268.69 C 210.54 277.95 209.11 288.79 212.44 298.67 C 210.80 300.50 208.54 302.24 208.45 304.91 C 208.01 309.49 208.41 314.15 209.46 318.63 C 210.47 323.32 214.80 326.34 215.99 330.97 C 219.16 342.35 225.61 353.03 235.17 360.15 C 229.03 362.97 223.10 366.23 216.93 368.96 C 210.06 372.25 202.97 376.24 198.81 382.86 C 193.80 390.88 191.66 400.21 188.96 409.17 C 157.06 396.27 129.03 373.86 109.73 345.35 C 90.70 317.14 80.88 282.95 81.45 248.97 C 81.75 215.21 92.98 181.88 112.15 154.18 C 132.38 124.29 162.44 101.24 196.50 89.32 M 249.18 99.34 C 247.48 100.30 249.76 103.17 250.95 101.83 C 253.33 100.85 251.01 97.37 249.18 99.34 M 288.26 106.07 C 287.49 106.81 286.92 108.26 288.02 108.99 C 289.10 109.95 290.11 108.36 291.11 108.03 C 290.24 107.26 289.49 106.25 288.26 106.07 M 217.57 107.57 C 216.51 108.63 217.60 109.67 218.14 110.66 C 218.60 110.50 219.52 110.19 219.98 110.04 C 220.14 109.57 220.45 108.63 220.61 108.16 C 219.64 107.70 218.64 106.84 217.57 107.57 M 177.63 126.65 C 171.27 130.77 169.00 138.75 168.84 145.94 C 168.75 156.26 171.02 166.44 173.87 176.32 C 174.58 176.12 176.01 175.73 176.72 175.54 C 174.03 166.93 172.15 158.00 171.73 148.98 C 171.56 142.28 172.58 134.65 178.00 130.06 C 183.00 125.64 190.21 125.59 196.43 126.71 C 210.16 129.46 222.71 136.16 234.32 143.79 C 247.83 152.93 260.32 163.62 271.10 175.86 C 271.62 175.42 272.66 174.55 273.18 174.11 C 264.77 164.40 255.09 155.89 244.98 148.00 C 231.70 138.12 217.31 129.09 201.16 124.84 C 193.49 122.93 184.51 121.89 177.63 126.65 M 326.55 123.58 C 325.08 125.17 328.46 126.94 329.20 125.07 C 330.18 123.51 327.44 121.32 326.55 123.58 M 247.58 128.48 C 245.07 129.63 248.46 132.69 249.63 130.67 C 251.43 129.86 248.22 126.94 247.58 128.48 M 285.68 137.15 C 286.30 139.51 288.76 138.58 289.68 136.98 C 288.34 135.96 286.30 134.60 285.68 137.15 M 343.45 150.67 C 343.95 151.16 344.94 152.14 345.44 152.63 C 345.88 151.79 348.09 151.08 346.78 150.07 C 345.83 148.41 344.33 149.66 343.45 150.67 M 199.87 157.20 C 200.93 158.42 202.11 156.65 203.06 156.19 C 202.30 155.48 201.54 154.77 200.78 154.06 C 200.37 154.97 198.33 156.42 199.87 157.20 M 221.46 169.45 C 219.80 170.38 221.64 173.06 223.00 171.98 C 225.43 171.29 223.22 167.49 221.46 169.45 M 352.55 181.67 C 347.88 182.70 343.48 184.81 339.69 187.70 C 325.88 198.32 321.83 218.97 329.49 234.40 C 334.25 243.71 344.04 249.40 353.95 251.73 C 368.29 255.04 384.10 248.38 391.95 235.98 C 401.59 221.48 398.81 199.85 385.21 188.77 C 376.27 181.31 363.75 179.16 352.55 181.67 M 133.33 181.84 C 133.29 182.94 133.25 184.04 133.22 185.15 C 134.87 185.61 136.78 185.69 138.08 186.95 C 139.72 188.45 139.77 190.86 139.87 192.92 C 139.98 204.27 139.77 215.62 140.10 226.97 C 140.04 231.55 140.06 236.56 137.35 240.49 C 135.06 243.98 129.81 245.00 126.41 242.57 C 124.16 241.04 123.02 238.49 121.81 236.17 C 117.63 238.25 113.42 240.30 109.07 241.99 C 118.52 253.66 136.53 256.17 149.64 249.64 C 157.12 246.03 161.81 238.10 162.24 229.91 C 162.88 217.20 162.00 204.45 162.63 191.75 C 162.64 188.28 164.99 185.43 168.50 185.10 C 168.48 184.01 168.47 182.91 168.46 181.82 C 156.75 181.87 145.04 181.85 133.33 181.84 M 173.14 181.84 C 173.14 182.61 173.13 184.16 173.13 184.93 C 174.98 185.50 177.37 185.78 178.31 187.75 C 179.27 190.05 179.11 192.61 179.16 195.05 C 179.04 205.39 179.25 215.72 179.38 226.05 C 179.46 231.04 179.63 236.31 182.19 240.76 C 185.13 246.55 191.01 250.31 197.22 251.73 C 207.00 254.06 218.02 253.26 226.51 247.49 C 232.39 243.39 234.87 235.95 234.90 229.03 C 234.90 218.02 235.23 207.00 235.29 195.98 C 235.40 193.13 235.18 190.08 236.61 187.49 C 237.52 185.82 239.67 185.72 241.26 185.04 C 241.27 184.23 241.30 182.63 241.31 181.83 C 234.06 181.85 226.81 181.86 219.56 181.83 C 219.54 182.94 219.52 184.04 219.50 185.16 C 221.36 185.63 223.45 185.75 224.96 187.06 C 226.71 188.88 226.50 191.61 226.58 193.94 C 226.45 205.61 226.55 217.29 226.49 228.96 C 226.49 232.93 225.88 237.15 223.27 240.31 C 220.10 244.58 213.58 245.93 209.08 243.00 C 204.23 240.23 202.39 234.33 202.38 229.05 C 202.07 216.35 202.46 203.64 202.47 190.93 C 202.35 187.25 206.33 185.91 209.24 185.15 C 209.25 184.32 209.27 182.66 209.28 181.82 C 197.23 181.87 185.19 181.85 173.14 181.84 M 147.43 270.51 C 145.69 271.45 148.46 274.51 149.55 272.53 C 151.44 271.70 148.24 268.59 147.43 270.51 M 373.27 271.49 C 370.80 272.01 372.03 275.31 374.22 274.53 C 375.75 273.45 374.90 271.65 373.27 271.49 M 181.61 281.58 C 182.49 281.98 183.40 282.27 184.31 282.60 C 184.27 281.54 184.90 278.90 183.03 279.22 C 181.75 278.85 181.16 280.63 181.61 281.58 M 133.19 293.31 C 131.11 294.01 133.74 297.93 134.83 295.79 C 136.91 295.04 134.38 291.22 133.19 293.31 M 370.19 295.30 C 368.27 296.35 370.41 299.66 372.03 298.07 C 373.73 296.90 371.98 294.25 370.19 295.30 M 327.38 297.50 C 325.21 297.52 325.54 301.17 327.83 300.61 C 329.95 300.32 329.30 297.42 327.38 297.50 M 158.62 307.62 C 157.06 309.02 160.54 311.33 161.16 309.00 C 162.04 307.49 159.45 305.72 158.62 307.62 M 192.69 311.76 C 191.92 313.24 194.48 314.79 195.29 313.23 C 196.84 311.72 193.42 309.22 192.69 311.76 M 366.86 322.38 C 369.15 321.58 368.04 319.71 367.00 318.39 C 365.12 319.28 364.33 321.75 366.86 322.38 M 133.34 326.47 C 131.62 327.30 133.29 328.62 133.82 329.69 C 134.62 329.07 135.43 328.46 136.24 327.84 C 135.32 327.48 134.27 325.13 133.34 326.47 M 169.59 330.75 C 167.38 331.92 170.67 334.72 171.73 332.78 C 173.55 331.76 170.51 329.27 169.59 330.75 M 343.52 347.46 C 341.23 348.81 344.24 352.04 345.56 349.67 C 346.98 348.69 344.76 346.76 343.52 347.46 M 153.16 363.25 C 155.81 362.55 154.99 360.14 152.94 359.22 C 152.25 360.67 151.08 362.34 153.16 363.25 Z" />
<path fill="#00386c" opacity="1.00" d=" M 357.15 188.23 C 360.93 186.52 365.74 187.42 368.51 190.56 C 373.93 196.25 375.33 204.44 375.74 212.00 C 376.08 219.79 375.99 227.86 373.23 235.26 C 371.64 239.11 369.14 243.13 364.98 244.53 C 360.49 245.92 355.45 243.91 352.85 240.06 C 348.60 233.94 347.41 226.26 347.16 218.96 C 347.01 211.53 347.07 203.85 349.84 196.84 C 351.23 193.29 353.46 189.72 357.15 188.23 Z" />
<path fill="#00386c" opacity="1.00" d=" M 275.26 189.17 C 280.60 187.98 286.25 190.08 289.71 194.27 C 295.70 201.30 296.52 211.14 296.01 219.99 C 295.57 227.88 292.93 236.49 286.02 241.05 C 282.85 243.38 278.82 243.62 275.03 243.60 C 274.90 225.46 275.00 207.32 275.26 189.17 Z" />
<path fill="#00386c" opacity="1.00" d=" M 249.54 436.47 C 255.97 436.94 263.06 434.42 268.99 437.85 C 273.70 440.45 274.14 447.73 270.20 451.19 C 266.98 454.26 262.22 453.83 258.13 454.19 C 258.34 458.12 258.12 462.14 259.30 465.95 C 256.49 465.88 253.68 465.99 250.87 466.14 C 252.10 460.50 251.23 454.72 251.31 449.02 C 251.01 444.82 251.68 440.28 249.54 436.47 M 257.81 440.02 C 257.85 443.33 257.98 446.65 258.18 449.97 C 260.10 449.68 262.14 449.78 263.96 449.03 C 266.34 447.43 266.26 443.60 264.40 441.64 C 262.73 439.79 260.03 440.30 257.81 440.02 Z" />
</g>
<g id="#fdfcfdff">
<path fill="#fdfcfd" opacity="1.00" d=" M 119.50 97.11 C 119.74 97.15 120.22 97.25 120.46 97.30 C 122.57 98.75 124.67 100.20 126.77 101.68 C 125.36 102.69 123.96 103.69 122.56 104.70 C 121.55 102.16 120.57 99.62 119.50 97.11 Z" />
<path fill="#fdfcfd" opacity="1.00" d=" M 249.18 99.34 C 251.01 97.37 253.33 100.85 250.95 101.83 C 249.76 103.17 247.48 100.30 249.18 99.34 Z" />
<path fill="#fdfcfd" opacity="1.00" d=" M 288.26 106.07 C 289.49 106.25 290.24 107.26 291.11 108.03 C 290.11 108.36 289.10 109.95 288.02 108.99 C 286.92 108.26 287.49 106.81 288.26 106.07 Z" />
<path fill="#fdfcfd" opacity="1.00" d=" M 217.57 107.57 C 218.64 106.84 219.64 107.70 220.61 108.16 C 220.45 108.63 220.14 109.57 219.98 110.04 C 219.52 110.19 218.60 110.50 218.14 110.66 C 217.60 109.67 216.51 108.63 217.57 107.57 Z" />
<path fill="#fdfcfd" opacity="1.00" d=" M 326.55 123.58 C 327.44 121.32 330.18 123.51 329.20 125.07 C 328.46 126.94 325.08 125.17 326.55 123.58 Z" />
<path fill="#fdfcfd" opacity="1.00" d=" M 247.58 128.48 C 248.22 126.94 251.43 129.86 249.63 130.67 C 248.46 132.69 245.07 129.63 247.58 128.48 Z" />
<path fill="#fdfcfd" opacity="1.00" d=" M 285.68 137.15 C 286.30 134.60 288.34 135.96 289.68 136.98 C 288.76 138.58 286.30 139.51 285.68 137.15 Z" />
<path fill="#fdfcfd" opacity="1.00" d=" M 343.45 150.67 C 344.33 149.66 345.83 148.41 346.78 150.07 C 348.09 151.08 345.88 151.79 345.44 152.63 C 344.94 152.14 343.95 151.16 343.45 150.67 Z" />
<path fill="#fdfcfd" opacity="1.00" d=" M 199.87 157.20 C 198.33 156.42 200.37 154.97 200.78 154.06 C 201.54 154.77 202.30 155.48 203.06 156.19 C 202.11 156.65 200.93 158.42 199.87 157.20 Z" />
<path fill="#fdfcfd" opacity="1.00" d=" M 221.46 169.45 C 223.22 167.49 225.43 171.29 223.00 171.98 C 221.64 173.06 219.80 170.38 221.46 169.45 Z" />
<path fill="#fdfcfd" opacity="1.00" d=" M 206.40 257.53 C 207.52 257.45 208.65 257.38 209.77 257.31 C 211.86 260.37 214.10 263.34 216.67 266.03 C 216.10 266.90 215.57 267.78 215.06 268.69 C 211.99 265.12 209.24 261.29 206.40 257.53 Z" />
<path fill="#fdfcfd" opacity="1.00" d=" M 147.43 270.51 C 148.24 268.59 151.44 271.70 149.55 272.53 C 148.46 274.51 145.69 271.45 147.43 270.51 Z" />
<path fill="#fdfcfd" opacity="1.00" d=" M 373.27 271.49 C 374.90 271.65 375.75 273.45 374.22 274.53 C 372.03 275.31 370.80 272.01 373.27 271.49 Z" />
<path fill="#fdfcfd" opacity="1.00" d=" M 181.61 281.58 C 181.16 280.63 181.75 278.85 183.03 279.22 C 184.90 278.90 184.27 281.54 184.31 282.60 C 183.40 282.27 182.49 281.98 181.61 281.58 Z" />
<path fill="#fdfcfd" opacity="1.00" d=" M 133.19 293.31 C 134.38 291.22 136.91 295.04 134.83 295.79 C 133.74 297.93 131.11 294.01 133.19 293.31 Z" />
<path fill="#fdfcfd" opacity="1.00" d=" M 370.19 295.30 C 371.98 294.25 373.73 296.90 372.03 298.07 C 370.41 299.66 368.27 296.35 370.19 295.30 Z" />
<path fill="#fdfcfd" opacity="1.00" d=" M 327.38 297.50 C 329.30 297.42 329.95 300.32 327.83 300.61 C 325.54 301.17 325.21 297.52 327.38 297.50 Z" />
<path fill="#fdfcfd" opacity="1.00" d=" M 158.62 307.62 C 159.45 305.72 162.04 307.49 161.16 309.00 C 160.54 311.33 157.06 309.02 158.62 307.62 Z" />
<path fill="#fdfcfd" opacity="1.00" d=" M 192.69 311.76 C 193.42 309.22 196.84 311.72 195.29 313.23 C 194.48 314.79 191.92 313.24 192.69 311.76 Z" />
<path fill="#fdfcfd" opacity="1.00" d=" M 366.86 322.38 C 364.33 321.75 365.12 319.28 367.00 318.39 C 368.04 319.71 369.15 321.58 366.86 322.38 Z" />
<path fill="#fdfcfd" opacity="1.00" d=" M 133.34 326.47 C 134.27 325.13 135.32 327.48 136.24 327.84 C 135.43 328.46 134.62 329.07 133.82 329.69 C 133.29 328.62 131.62 327.30 133.34 326.47 Z" />
<path fill="#fdfcfd" opacity="1.00" d=" M 169.59 330.75 C 170.51 329.27 173.55 331.76 171.73 332.78 C 170.67 334.72 167.38 331.92 169.59 330.75 Z" />
<path fill="#fdfcfd" opacity="1.00" d=" M 343.52 347.46 C 344.76 346.76 346.98 348.69 345.56 349.67 C 344.24 352.04 341.23 348.81 343.52 347.46 Z" />
<path fill="#fdfcfd" opacity="1.00" d=" M 153.16 363.25 C 151.08 362.34 152.25 360.67 152.94 359.22 C 154.99 360.14 155.81 362.55 153.16 363.25 Z" />
</g>
<g id="#fbfbfbff">
<path fill="#fbfbfb" opacity="1.00" d=" M 394.74 113.00 C 397.72 111.36 400.68 109.69 403.64 108.01 C 402.01 110.89 400.38 113.78 398.71 116.64 C 397.38 115.42 396.06 114.21 394.74 113.00 Z" />
</g>
<g id="#00386eff">
<path fill="#00386e" opacity="1.00" d=" M 60.41 161.82 C 67.64 166.16 75.17 170.23 83.23 172.79 C 82.22 175.02 81.29 177.28 80.40 179.56 C 72.74 175.74 65.17 171.54 57.04 168.81 C 58.23 166.51 59.34 164.18 60.41 161.82 Z" />
</g>
<g id="#00386dff">
<path fill="#00386d" opacity="1.00" d=" M 40.42 235.73 C 49.01 234.02 57.52 231.86 66.00 229.68 C 65.93 232.26 65.90 234.85 65.90 237.44 C 63.95 237.48 61.99 237.61 60.04 237.80 C 59.79 240.35 59.57 242.92 59.34 245.48 C 61.32 245.88 63.34 246.22 65.37 245.95 C 63.84 253.88 64.93 261.98 65.30 269.98 C 56.96 269.13 48.28 269.09 40.12 271.29 C 40.13 268.69 40.00 266.09 39.84 263.50 C 46.76 263.85 53.66 263.21 60.58 263.14 C 60.49 260.26 60.21 257.38 59.40 254.62 C 61.10 254.30 62.81 253.96 64.51 253.60 C 56.86 249.30 48.68 245.47 39.99 243.94 C 40.23 241.21 40.37 238.47 40.42 235.73 M 47.20 240.79 C 49.77 241.92 52.39 242.91 55.02 243.89 C 55.22 242.26 55.42 240.62 55.60 238.99 C 52.78 239.46 49.97 240.05 47.20 240.79 Z" />
<path fill="#00386d" opacity="1.00" d=" M 384.03 384.35 C 386.13 382.51 388.15 380.58 390.13 378.61 C 399.80 382.67 408.94 387.88 418.63 391.89 C 416.66 394.04 414.72 396.24 412.88 398.51 C 411.15 396.68 409.03 395.36 406.82 394.22 C 404.61 396.37 402.39 398.51 400.17 400.65 C 401.64 402.75 403.37 404.68 405.63 405.96 C 403.54 407.83 401.54 409.80 399.62 411.85 C 397.55 406.94 394.96 402.29 392.40 397.63 C 389.86 393.05 387.59 388.25 384.03 384.35 M 393.01 387.15 C 394.61 390.24 396.26 393.31 398.02 396.32 C 399.51 394.97 401.00 393.61 402.48 392.25 C 399.33 390.54 396.18 388.82 393.01 387.15 Z" />
<path fill="#00386d" opacity="1.00" d=" M 332.29 419.77 C 334.74 418.76 337.12 417.61 339.43 416.31 C 340.19 421.61 342.55 426.47 344.35 431.46 C 346.23 436.17 347.65 441.14 350.54 445.37 C 348.67 446.24 346.81 447.12 344.96 448.03 C 339.47 441.91 332.11 437.93 325.71 432.85 C 328.75 439.19 330.54 446.17 334.65 451.95 C 332.30 452.88 329.98 453.85 327.70 454.89 C 326.51 448.82 323.67 443.29 321.48 437.56 C 319.77 433.75 318.65 429.37 315.13 426.77 C 317.90 425.68 320.66 424.54 323.37 423.31 C 329.33 427.19 334.78 431.77 340.49 436.01 C 337.74 430.60 336.61 424.25 332.29 419.77 Z" />
<path fill="#00386d" opacity="1.00" d=" M 296.54 431.41 C 299.40 430.84 302.24 430.22 305.06 429.48 C 306.97 434.10 309.85 438.21 312.37 442.52 C 315.28 447.15 317.93 452.00 321.46 456.22 C 318.46 456.97 315.49 457.79 312.56 458.75 C 312.34 456.23 311.11 454.03 309.72 451.99 C 306.79 452.74 303.88 453.54 300.96 454.33 C 300.99 456.87 301.09 459.42 301.41 461.95 C 298.82 462.44 296.27 463.03 293.72 463.69 C 295.41 457.96 295.64 451.95 296.27 446.04 C 296.55 441.17 297.58 436.26 296.54 431.41 M 302.16 439.18 C 301.92 442.65 301.65 446.13 301.36 449.61 C 303.39 449.06 305.43 448.53 307.47 448.02 C 305.72 445.05 303.94 442.12 302.16 439.18 Z" />
<path fill="#00386d" opacity="1.00" d=" M 275.90 435.01 C 278.85 434.92 281.79 434.50 284.70 433.95 C 284.28 439.31 285.28 444.62 285.72 449.94 C 286.29 454.69 286.43 459.55 288.08 464.09 C 285.22 464.40 282.37 464.75 279.53 465.16 C 280.01 458.75 278.75 452.41 278.29 446.04 C 277.87 442.29 277.84 438.36 275.90 435.01 Z" />
</g>
<g id="#03396fff">
<path fill="#03396f" opacity="1.00" d=" M 446.32 234.16 C 448.03 232.76 450.54 234.14 451.17 236.01 C 451.90 238.59 448.52 241.33 446.29 239.56 C 444.38 238.35 444.37 235.34 446.32 234.16 Z" />
</g>
<g id="#191b1fff">
<path fill="#191b1f" opacity="1.00" d=" M 250.33 244.63 C 261.06 242.81 272.29 245.33 281.90 250.26 C 283.65 251.75 285.26 253.43 287.05 254.89 C 290.53 257.87 295.72 257.73 298.98 261.05 C 308.53 271.04 308.71 285.95 307.05 298.84 C 309.91 301.55 313.03 304.70 313.00 308.95 C 313.07 315.73 309.84 322.03 306.38 327.68 C 305.67 328.57 304.97 329.46 304.21 330.30 C 300.67 334.41 295.21 335.57 290.12 336.44 C 289.35 338.17 288.28 339.85 288.05 341.77 C 289.86 346.29 292.87 350.27 296.15 353.84 C 299.79 357.82 305.23 359.03 310.05 360.98 C 320.11 364.85 329.43 371.56 334.94 380.98 C 338.52 387.00 340.20 393.85 342.14 400.52 C 341.07 401.14 340.00 401.75 338.92 402.35 L 338.58 402.35 C 336.46 394.43 334.56 386.15 329.66 379.39 C 322.19 369.71 310.83 363.61 299.12 360.77 C 291.31 370.31 282.66 379.14 274.66 388.54 C 265.24 398.90 257.16 410.40 249.48 422.08 C 248.35 422.46 247.10 422.54 245.71 422.33 C 259.31 398.81 277.79 378.70 296.14 358.85 C 293.05 355.87 290.35 352.51 288.14 348.83 C 283.79 355.74 278.23 361.74 272.44 367.46 C 259.70 380.85 247.42 394.88 237.73 410.69 C 235.73 413.87 233.86 417.13 231.82 420.29 C 230.99 421.44 229.23 420.43 228.06 420.58 C 228.87 417.84 229.16 414.97 228.54 412.17 C 226.02 397.24 225.74 381.73 229.78 367.04 C 222.32 371.32 213.48 373.06 206.96 378.94 C 201.74 383.02 199.94 389.66 197.19 395.39 C 194.92 400.19 194.17 405.60 191.43 410.19 C 190.81 409.93 189.58 409.42 188.96 409.17 C 191.66 400.21 193.80 390.88 198.81 382.86 C 202.97 376.24 210.06 372.25 216.93 368.96 C 223.10 366.23 229.03 362.97 235.17 360.15 C 225.61 353.03 219.16 342.35 215.99 330.97 C 214.80 326.34 210.47 323.32 209.46 318.63 C 208.41 314.15 208.01 309.49 208.45 304.91 C 208.54 302.24 210.80 300.50 212.44 298.67 C 209.11 288.79 210.54 277.95 215.06 268.69 C 215.57 267.78 216.10 266.90 216.67 266.03 C 223.97 254.41 236.58 245.99 250.33 244.63 M 243.92 249.11 C 230.77 253.08 220.39 264.01 215.69 276.74 C 213.79 282.67 212.36 289.33 214.76 295.34 C 215.84 286.05 217.73 276.45 223.93 269.08 C 223.06 269.39 221.32 270.01 220.45 270.32 C 223.63 267.12 227.12 264.08 231.35 262.37 C 231.49 262.00 231.78 261.26 231.92 260.89 C 236.15 257.88 239.88 253.78 244.88 252.11 C 249.19 252.13 254.40 251.60 257.97 254.41 C 253.69 254.02 249.35 253.60 245.07 254.05 C 241.46 255.82 237.95 257.86 234.80 260.36 C 242.67 256.77 251.49 255.66 260.05 256.78 C 266.03 259.00 271.67 261.98 277.55 264.42 C 281.16 267.02 283.12 271.54 283.68 275.87 C 284.34 280.22 282.84 284.49 282.76 288.81 C 284.52 291.74 287.27 294.11 288.35 297.43 C 289.30 301.07 289.56 304.85 289.59 308.61 C 290.26 308.39 291.58 307.95 292.25 307.74 C 292.75 305.19 293.72 302.79 295.35 300.76 C 292.04 296.86 289.40 292.44 287.29 287.80 C 289.73 288.54 290.66 291.05 291.92 293.01 C 293.38 295.61 295.36 297.87 297.38 300.06 C 297.93 299.78 299.04 299.21 299.59 298.93 C 297.99 296.99 296.42 295.01 295.20 292.81 C 298.51 293.92 299.93 297.51 302.83 299.29 C 303.36 297.14 304.14 294.98 303.99 292.74 C 304.61 288.31 304.65 283.78 303.91 279.36 C 303.71 275.83 302.40 272.42 300.79 269.31 C 297.84 264.31 293.13 258.94 286.65 260.05 C 285.12 256.51 281.79 254.35 278.57 252.51 C 268.14 246.71 255.27 245.23 243.92 249.11 M 234.20 264.14 C 226.41 268.13 221.86 276.34 219.55 284.47 C 216.88 293.10 218.69 302.16 218.61 310.99 C 218.87 316.35 217.96 321.69 218.24 327.05 C 219.36 336.93 224.54 345.97 231.28 353.11 C 232.06 352.69 232.83 352.27 233.62 351.86 C 234.10 353.92 234.54 356.28 236.64 357.33 C 244.59 362.35 254.73 360.79 263.16 357.85 C 263.61 356.47 264.04 355.08 264.50 353.71 C 265.22 354.58 265.92 355.45 266.63 356.34 C 271.69 354.22 276.61 351.39 280.19 347.14 C 284.06 342.64 285.79 336.84 287.87 331.40 C 290.21 332.73 292.97 333.57 295.59 332.47 C 301.55 330.23 305.38 324.52 307.90 318.94 C 309.60 314.44 311.23 308.86 308.36 304.50 C 306.30 301.19 301.52 300.70 298.23 302.30 C 295.29 303.94 295.34 307.93 293.09 310.14 C 291.22 310.81 289.24 311.13 287.31 311.61 C 287.29 306.82 287.48 301.80 285.52 297.32 C 284.21 294.34 281.52 292.14 280.48 289.05 C 280.68 283.73 282.61 278.28 280.75 273.04 C 279.65 270.09 278.21 266.58 274.95 265.52 C 271.28 264.17 267.80 262.37 264.16 260.94 C 254.42 256.95 243.15 259.16 234.20 264.14 M 211.55 307.99 C 211.70 313.09 211.41 318.78 214.64 323.07 C 215.68 316.12 216.35 308.77 214.09 301.99 C 212.60 303.67 211.31 305.63 211.55 307.99 M 266.60 359.54 C 258.19 364.04 248.09 365.23 238.95 362.40 C 237.58 373.39 240.38 384.24 244.55 394.33 C 254.55 381.21 265.63 368.94 277.28 357.28 C 280.63 353.45 284.42 349.77 286.21 344.88 C 281.21 351.52 274.48 356.78 266.60 359.54 M 230.81 376.53 C 229.73 388.75 229.82 401.17 232.09 413.27 C 235.46 407.27 239.27 401.54 243.22 395.92 C 235.83 387.11 235.03 374.73 235.78 363.73 C 231.59 366.56 231.59 372.04 230.81 376.53 Z" />
</g>
<g id="#033b71ff">
<path fill="#033b71" opacity="1.00" d=" M 447.25 244.23 C 450.93 242.04 453.62 248.44 449.98 249.97 C 446.51 251.99 443.47 245.68 447.25 244.23 Z" />
</g>
<g id="#dcddddff">
<path fill="#dcdddd" opacity="1.00" d=" M 243.92 249.11 C 255.27 245.23 268.14 246.71 278.57 252.51 C 281.79 254.35 285.12 256.51 286.65 260.05 C 293.13 258.94 297.84 264.31 300.79 269.31 C 302.40 272.42 303.71 275.83 303.91 279.36 C 302.91 283.78 302.76 288.34 303.99 292.74 C 304.14 294.98 303.36 297.14 302.83 299.29 C 299.93 297.51 298.51 293.92 295.20 292.81 C 296.42 295.01 297.99 296.99 299.59 298.93 C 299.04 299.21 297.93 299.78 297.38 300.06 C 295.36 297.87 293.38 295.61 291.92 293.01 C 290.66 291.05 289.73 288.54 287.29 287.80 C 289.40 292.44 292.04 296.86 295.35 300.76 C 293.72 302.79 292.75 305.19 292.25 307.74 C 291.58 307.95 290.26 308.39 289.59 308.61 C 289.56 304.85 289.30 301.07 288.35 297.43 C 287.27 294.11 284.52 291.74 282.76 288.81 C 282.84 284.49 284.34 280.22 283.68 275.87 C 283.12 271.54 281.16 267.02 277.55 264.42 C 271.67 261.98 266.03 259.00 260.05 256.78 C 259.38 255.97 258.70 255.16 257.97 254.41 C 254.40 251.60 249.19 252.13 244.88 252.11 C 239.88 253.78 236.15 257.88 231.92 260.89 C 231.78 261.26 231.49 262.00 231.35 262.37 C 227.12 264.08 223.63 267.12 220.45 270.32 C 221.32 270.01 223.06 269.39 223.93 269.08 C 217.73 276.45 215.84 286.05 214.76 295.34 C 212.36 289.33 213.79 282.67 215.69 276.74 C 220.39 264.01 230.77 253.08 243.92 249.11 M 268.59 256.13 C 272.21 258.58 276.11 260.64 279.97 262.69 C 277.82 258.61 272.91 256.82 268.59 256.13 Z" />
</g>
<g id="#ecebedff">
<path fill="#ecebed" opacity="1.00" d=" M 234.80 260.36 C 237.95 257.86 241.46 255.82 245.07 254.05 C 249.35 253.60 253.69 254.02 257.97 254.41 C 258.70 255.16 259.38 255.97 260.05 256.78 C 251.49 255.66 242.67 256.77 234.80 260.36 Z" />
</g>
<g id="#043a6fff">
<path fill="#043a6f" opacity="1.00" d=" M 447.38 254.39 C 449.72 253.21 452.80 256.15 451.55 258.51 C 450.82 260.57 447.86 261.32 446.38 259.62 C 444.61 258.18 445.27 255.14 447.38 254.39 Z" />
</g>
<g id="#0a0d12ff">
<path fill="#0a0d12" opacity="1.00" d=" M 268.59 256.13 C 272.91 256.82 277.82 258.61 279.97 262.69 C 276.11 260.64 272.21 258.58 268.59 256.13 Z" />
<path fill="#0a0d12" opacity="1.00" d=" M 300.51 307.59 C 301.84 305.71 304.54 307.28 305.05 309.07 C 305.93 311.43 304.69 313.76 303.15 315.50 C 303.10 313.29 303.30 311.05 302.67 308.91 C 300.69 310.04 299.94 312.41 298.63 314.16 C 300.78 318.46 299.87 325.06 294.52 326.36 C 295.73 323.95 296.93 321.53 297.73 318.94 C 296.96 317.67 296.20 316.39 295.45 315.12 C 297.07 312.57 298.56 309.91 300.51 307.59 Z" />
<path fill="#0a0d12" opacity="1.00" d=" M 227.33 315.87 C 229.37 316.54 231.39 317.28 233.42 318.01 C 230.98 319.29 228.38 318.55 227.33 315.87 Z" />
<path fill="#0a0d12" opacity="1.00" d=" M 242.01 365.52 C 244.89 366.76 247.74 368.09 250.71 369.11 C 252.52 368.77 254.34 368.56 256.19 368.45 C 251.51 371.19 244.68 370.79 242.01 365.52 Z" />
</g>
<g id="#f9ac86ff">
<path fill="#f9ac86" opacity="1.00" d=" M 234.20 264.14 C 243.15 259.16 254.42 256.95 264.16 260.94 C 267.80 262.37 271.28 264.17 274.95 265.52 C 278.21 266.58 279.65 270.09 280.75 273.04 C 282.61 278.28 280.68 283.73 280.48 289.05 C 281.52 292.14 284.21 294.34 285.52 297.32 C 287.48 301.80 287.29 306.82 287.31 311.61 C 289.24 311.13 291.22 310.81 293.09 310.14 C 295.34 307.93 295.29 303.94 298.23 302.30 C 301.52 300.70 306.30 301.19 308.36 304.50 C 311.23 308.86 309.60 314.44 307.90 318.94 C 305.38 324.52 301.55 330.23 295.59 332.47 C 292.97 333.57 290.21 332.73 287.87 331.40 C 285.79 336.84 284.06 342.64 280.19 347.14 C 276.61 351.39 271.69 354.22 266.63 356.34 C 265.92 355.45 265.22 354.58 264.50 353.71 C 264.04 355.08 263.61 356.47 263.16 357.85 C 254.73 360.79 244.59 362.35 236.64 357.33 C 234.54 356.28 234.10 353.92 233.62 351.86 C 232.83 352.27 232.06 352.69 231.28 353.11 C 224.54 345.97 219.36 336.93 218.24 327.05 C 217.96 321.69 218.87 316.35 218.61 310.99 C 218.69 302.16 216.88 293.10 219.55 284.47 C 221.86 276.34 226.41 268.13 234.20 264.14 M 230.81 280.33 C 239.60 284.29 249.60 282.46 258.64 280.42 C 253.75 280.27 248.93 281.35 244.04 281.27 C 239.60 281.33 235.24 280.41 230.81 280.33 M 243.98 286.18 C 239.19 286.34 234.46 285.34 229.68 285.22 C 239.35 289.45 250.31 287.55 260.08 284.68 C 254.68 284.82 249.40 286.26 243.98 286.18 M 255.00 292.90 C 252.22 293.98 250.06 297.40 252.03 300.17 C 255.25 299.43 257.64 296.54 261.03 296.31 C 265.34 296.41 268.77 299.45 272.72 300.78 C 272.00 298.56 271.33 296.21 269.70 294.46 C 266.16 290.18 259.57 290.73 255.00 292.90 M 224.78 292.66 C 220.93 294.12 221.37 298.71 221.53 302.03 C 223.50 300.43 225.12 297.75 227.97 297.88 C 231.45 297.51 233.90 300.55 237.11 301.14 C 238.78 298.62 236.36 296.01 234.50 294.44 C 231.74 292.53 228.02 291.88 224.78 292.66 M 261.38 302.38 C 258.94 304.87 258.43 310.06 261.14 312.52 C 264.26 312.59 264.79 308.29 264.84 305.91 C 265.11 304.19 263.38 300.69 261.38 302.38 M 229.15 302.97 C 227.84 304.66 227.91 306.94 227.87 308.98 C 227.91 310.94 228.01 313.44 230.13 314.36 C 234.09 312.81 233.61 307.60 232.63 304.28 C 232.42 302.88 229.99 301.13 229.15 302.97 M 239.40 304.24 C 236.02 312.68 235.64 322.58 229.76 329.88 C 227.01 332.79 226.51 337.05 226.55 340.87 C 227.42 340.93 229.16 341.03 230.02 341.08 C 231.17 342.14 232.31 343.49 234.07 343.31 C 238.40 343.45 242.68 344.17 247.01 344.28 C 249.34 344.16 251.62 343.41 253.98 343.61 C 259.12 344.22 263.74 341.32 268.24 339.27 C 264.48 332.51 258.16 327.90 252.12 323.33 C 251.45 323.76 250.12 324.62 249.45 325.05 C 249.58 326.56 249.74 328.07 249.91 329.58 C 250.60 328.39 251.27 327.20 251.94 326.00 C 252.41 326.27 253.34 326.80 253.81 327.06 C 250.37 334.58 239.82 335.28 234.02 330.18 C 236.95 321.91 240.47 313.68 241.53 304.91 C 242.01 303.16 239.89 302.57 239.40 304.24 M 300.51 307.59 C 298.56 309.91 297.07 312.57 295.45 315.12 C 296.20 316.39 296.96 317.67 297.73 318.94 C 296.93 321.53 295.73 323.95 294.52 326.36 C 299.87 325.06 300.78 318.46 298.63 314.16 C 299.94 312.41 300.69 310.04 302.67 308.91 C 303.30 311.05 303.10 313.29 303.15 315.50 C 304.69 313.76 305.93 311.43 305.05 309.07 C 304.54 307.28 301.84 305.71 300.51 307.59 M 256.55 314.87 C 258.16 317.15 260.60 318.65 263.47 317.72 C 261.26 316.55 258.91 315.68 256.55 314.87 M 227.33 315.87 C 228.38 318.55 230.98 319.29 233.42 318.01 C 231.39 317.28 229.37 316.54 227.33 315.87 M 239.27 347.73 C 239.24 347.91 239.17 348.27 239.14 348.45 C 243.34 349.52 248.02 350.36 251.90 347.84 C 247.69 347.86 243.46 348.36 239.27 347.73 Z" />
</g>
<g id="#023a6fff">
<path fill="#023a6f" opacity="1.00" d=" M 446.05 264.92 C 449.27 262.73 453.15 267.67 449.98 270.07 C 446.81 272.94 442.48 267.35 446.05 264.92 Z" />
</g>
<g id="#16171bff">
<path fill="#16171b" opacity="1.00" d=" M 230.81 280.33 C 235.24 280.41 239.60 281.33 244.04 281.27 C 248.93 281.35 253.75 280.27 258.64 280.42 C 249.60 282.46 239.60 284.29 230.81 280.33 Z" />
<path fill="#16171b" opacity="1.00" d=" M 243.98 286.18 C 249.40 286.26 254.68 284.82 260.08 284.68 C 250.31 287.55 239.35 289.45 229.68 285.22 C 234.46 285.34 239.19 286.34 243.98 286.18 Z" />
<path fill="#16171b" opacity="1.00" d=" M 239.27 347.73 C 243.46 348.36 247.69 347.86 251.90 347.84 C 248.02 350.36 243.34 349.52 239.14 348.45 C 239.17 348.27 239.24 347.91 239.27 347.73 Z" />
<path fill="#16171b" opacity="1.00" d=" M 203.25 414.02 C 203.89 405.17 204.06 395.79 208.18 387.74 C 210.72 391.31 208.49 395.60 208.31 399.51 C 207.29 404.57 207.96 409.93 206.61 414.86 C 206.29 414.98 205.64 415.23 205.32 415.35 C 204.79 415.19 203.74 414.85 203.22 414.69 L 203.25 414.02 Z" />
</g>
<g id="#eff0f0ff">
<path fill="#eff0f0" opacity="1.00" d=" M 303.99 292.74 C 302.76 288.34 302.91 283.78 303.91 279.36 C 304.65 283.78 304.61 288.31 303.99 292.74 Z" />
</g>
<g id="#1c1b1fff">
<path fill="#1c1b1f" opacity="1.00" d=" M 255.00 292.90 C 259.57 290.73 266.16 290.18 269.70 294.46 C 271.33 296.21 272.00 298.56 272.72 300.78 C 268.77 299.45 265.34 296.41 261.03 296.31 C 257.64 296.54 255.25 299.43 252.03 300.17 C 250.06 297.40 252.22 293.98 255.00 292.90 Z" />
<path fill="#1c1b1f" opacity="1.00" d=" M 256.55 314.87 C 258.91 315.68 261.26 316.55 263.47 317.72 C 260.60 318.65 258.16 317.15 256.55 314.87 Z" />
</g>
<g id="#191a1dff">
<path fill="#191a1d" opacity="1.00" d=" M 224.78 292.66 C 228.02 291.88 231.74 292.53 234.50 294.44 C 236.36 296.01 238.78 298.62 237.11 301.14 C 233.90 300.55 231.45 297.51 227.97 297.88 C 225.12 297.75 223.50 300.43 221.53 302.03 C 221.37 298.71 220.93 294.12 224.78 292.66 Z" />
</g>
<g id="#1a1b1eff">
<path fill="#1a1b1e" opacity="1.00" d=" M 261.38 302.38 C 263.38 300.69 265.11 304.19 264.84 305.91 C 264.79 308.29 264.26 312.59 261.14 312.52 C 258.43 310.06 258.94 304.87 261.38 302.38 Z" />
</g>
<g id="#feb089ff">
<path fill="#feb089" opacity="1.00" d=" M 211.55 307.99 C 211.31 305.63 212.60 303.67 214.09 301.99 C 216.35 308.77 215.68 316.12 214.64 323.07 C 211.41 318.78 211.70 313.09 211.55 307.99 Z" />
</g>
<g id="#191a1eff">
<path fill="#191a1e" opacity="1.00" d=" M 229.15 302.97 C 229.99 301.13 232.42 302.88 232.63 304.28 C 233.61 307.60 234.09 312.81 230.13 314.36 C 228.01 313.44 227.91 310.94 227.87 308.98 C 227.91 306.94 227.84 304.66 229.15 302.97 Z" />
</g>
<g id="#0f1015ff">
<path fill="#0f1015" opacity="1.00" d=" M 239.40 304.24 C 239.89 302.57 242.01 303.16 241.53 304.91 C 240.47 313.68 236.95 321.91 234.02 330.18 C 239.82 335.28 250.37 334.58 253.81 327.06 C 253.34 326.80 252.41 326.27 251.94 326.00 C 251.27 327.20 250.60 328.39 249.91 329.58 C 249.74 328.07 249.58 326.56 249.45 325.05 C 250.12 324.62 251.45 323.76 252.12 323.33 C 258.16 327.90 264.48 332.51 268.24 339.27 C 263.74 341.32 259.12 344.22 253.98 343.61 C 251.62 343.41 249.34 344.16 247.01 344.28 C 242.68 344.17 238.40 343.45 234.07 343.31 C 232.31 343.49 231.17 342.14 230.02 341.08 C 229.16 341.03 227.42 340.93 226.55 340.87 C 226.51 337.05 227.01 332.79 229.76 329.88 C 235.64 322.58 236.02 312.68 239.40 304.24 M 247.50 335.27 C 241.98 336.29 235.22 335.68 231.64 330.80 C 229.24 333.21 228.84 336.59 228.40 339.80 C 229.63 338.91 230.85 338.01 232.07 337.11 C 232.21 338.45 232.35 339.80 232.47 341.15 C 234.12 341.39 235.77 341.37 237.24 340.45 C 238.95 341.12 240.68 341.72 242.44 342.26 C 242.77 340.50 242.78 338.35 245.10 338.27 C 244.96 338.99 244.68 340.44 244.54 341.17 C 245.88 342.27 247.68 342.12 249.29 342.41 C 249.42 341.67 249.66 340.20 249.79 339.47 C 251.89 340.78 256.44 342.05 256.01 338.00 C 259.18 337.99 262.24 338.91 265.34 339.45 C 263.11 335.33 259.77 331.91 255.82 329.42 C 253.51 331.93 250.99 334.56 247.50 335.27 M 257.33 341.72 C 258.43 342.18 259.35 341.92 260.08 340.94 C 259.96 338.50 255.51 339.37 257.33 341.72 Z" />
</g>
<g id="#ebe9e4ff">
<path fill="#ebe9e4" opacity="1.00" d=" M 247.50 335.27 C 250.99 334.56 253.51 331.93 255.82 329.42 C 259.77 331.91 263.11 335.33 265.34 339.45 C 262.24 338.91 259.18 337.99 256.01 338.00 C 256.44 342.05 251.89 340.78 249.79 339.47 C 249.66 340.20 249.42 341.67 249.29 342.41 C 247.68 342.12 245.88 342.27 244.54 341.17 C 244.68 340.44 244.96 338.99 245.10 338.27 C 242.78 338.35 242.77 340.50 242.44 342.26 C 240.68 341.72 238.95 341.12 237.24 340.45 C 235.77 341.37 234.12 341.39 232.47 341.15 C 232.35 339.80 232.21 338.45 232.07 337.11 C 230.85 338.01 229.63 338.91 228.40 339.80 C 228.84 336.59 229.24 333.21 231.64 330.80 C 235.22 335.68 241.98 336.29 247.50 335.27 Z" />
</g>
<g id="#f9ac85ff">
<path fill="#f9ac85" opacity="1.00" d=" M 266.60 359.54 C 274.48 356.78 281.21 351.52 286.21 344.88 C 284.42 349.77 280.63 353.45 277.28 357.28 C 265.63 368.94 254.55 381.21 244.55 394.33 C 240.38 384.24 237.58 373.39 238.95 362.40 C 248.09 365.23 258.19 364.04 266.60 359.54 M 242.01 365.52 C 244.68 370.79 251.51 371.19 256.19 368.45 C 254.34 368.56 252.52 368.77 250.71 369.11 C 247.74 368.09 244.89 366.76 242.01 365.52 Z" />
</g>
<g id="#ffe7d4ff">
<path fill="#ffe7d4" opacity="1.00" d=" M 272.44 367.46 C 278.23 361.74 283.79 355.74 288.14 348.83 C 290.35 352.51 293.05 355.87 296.14 358.85 C 277.79 378.70 259.31 398.81 245.71 422.33 C 241.05 421.84 236.31 421.76 231.82 420.29 C 233.86 417.13 235.73 413.87 237.73 410.69 C 247.42 394.88 259.70 380.85 272.44 367.46 Z" />
</g>
<g id="#ffe8d4ff">
<path fill="#ffe8d4" opacity="1.00" d=" M 274.66 388.54 C 282.66 379.14 291.31 370.31 299.12 360.77 C 310.83 363.61 322.19 369.71 329.66 379.39 C 334.56 386.15 336.46 394.43 338.58 402.35 L 338.92 402.35 L 339.72 402.35 C 327.96 407.25 316.58 413.64 304.00 416.14 C 305.49 406.06 310.88 397.23 313.75 387.59 C 311.62 389.16 309.62 390.98 308.36 393.34 C 304.05 400.83 301.08 409.16 300.04 417.77 C 283.52 421.64 266.42 423.28 249.48 422.08 C 257.16 410.40 265.24 398.90 274.66 388.54 Z" />
<path fill="#ffe8d4" opacity="1.00" d=" M 230.81 376.53 C 231.59 372.04 231.59 366.56 235.78 363.73 C 235.03 374.73 235.83 387.11 243.22 395.92 C 239.27 401.54 235.46 407.27 232.09 413.27 C 229.82 401.17 229.73 388.75 230.81 376.53 Z" />
<path fill="#ffe8d4" opacity="1.00" d=" M 206.96 378.94 C 213.48 373.06 222.32 371.32 229.78 367.04 C 225.74 381.73 226.02 397.24 228.54 412.17 C 229.16 414.97 228.87 417.84 228.06 420.58 C 220.51 418.70 212.78 417.52 205.32 415.35 C 205.64 415.23 206.29 414.98 206.61 414.86 C 207.96 409.93 207.29 404.57 208.31 399.51 C 208.49 395.60 210.72 391.31 208.18 387.74 C 204.06 395.79 203.89 405.17 203.25 414.02 C 199.34 412.81 195.24 412.07 191.44 410.65 L 191.43 410.19 C 194.17 405.60 194.92 400.19 197.19 395.39 C 199.94 389.66 201.74 383.02 206.96 378.94 Z" />
</g>
<g id="#01396fff">
<path fill="#01396f" opacity="1.00" d=" M 419.38 378.49 C 421.50 376.31 425.50 378.15 425.55 381.08 C 426.00 384.18 421.94 386.55 419.54 384.45 C 417.45 383.10 417.49 379.99 419.38 378.49 Z" />
</g>
<g id="#f9f9fbff">
<path fill="#f9f9fb" opacity="1.00" d=" M 393.01 387.15 C 396.18 388.82 399.33 390.54 402.48 392.25 C 401.00 393.61 399.51 394.97 398.02 396.32 C 396.26 393.31 394.61 390.24 393.01 387.15 Z" />
</g>
<g id="#1a1d20ff">
<path fill="#1a1d20" opacity="1.00" d=" M 308.36 393.34 C 309.62 390.98 311.62 389.16 313.75 387.59 C 310.88 397.23 305.49 406.06 304.00 416.14 L 303.85 416.84 C 302.58 417.16 301.31 417.46 300.04 417.77 C 301.08 409.16 304.05 400.83 308.36 393.34 Z" />
</g>
<g id="#fbfbfdff">
<path fill="#fbfbfd" opacity="1.00" d=" M 302.16 439.18 C 303.94 442.12 305.72 445.05 307.47 448.02 C 305.43 448.53 303.39 449.06 301.36 449.61 C 301.65 446.13 301.92 442.65 302.16 439.18 Z" />
</g>
</svg>
