<?xml version="1.0" encoding="utf-8"?>
<!-- Generator: Adobe Illustrator 18.1.1, SVG Export Plug-In . SVG Version: 6.00 Build 0)  -->
<svg version="1.1" xmlns="http://www.w3.org/2000/svg" xmlns:xlink="http://www.w3.org/1999/xlink" x="0px" y="0px"
	 viewBox="0 0 670 460" enable-background="new 0 0 670 460" xml:space="preserve">
<g id="Tori">
	<path id="hand_1_" fill="#FFFFFF" stroke="#000000" stroke-linecap="round" stroke-linejoin="round" d="M480.5,229.7l12.7-33.8
		l-13.4-18.3c0,0-10.6-13.4-16.2-22.5c-5.6-9.2-7.8-14.8-12-19c-4.2-4.2-24.7-8.5-28.2-8.5s-11.3,15.5-8.5,21.1
		c2.8,5.6,10.3,2.8,13.8,9.9c3.5,7,8,25.4,11.6,26.8c3.5,1.4,16.2,14.1,26.1,13.4C475.6,207.8,480.5,229.7,480.5,229.7z"/>
	<g id="Head">
		<path fill="#F9C6A0" stroke="#704425" stroke-width="2" stroke-linecap="round" stroke-linejoin="round" d="M622.7,289.4
			c0,0-3.5-11.9,0-17.9c5.2-8.8,24.2-16.5,28.8-28.3c3.1-7.9,6.6-20.1,5.2-28.6c-1.4-8.4-8.2-21.7-18.1-28c-8.3-5.3-26.6-9.4-37-6.7
			c-12.9,3.6-11.3,6.7-15.7,9.4c-3.2,2-15.2,11.9-20.9,21.2c4.1,11.8-10.9,14.3-11.8,20.1c-0.5,3.6,3.3,4.9,4.9,6.6
			c0.5,1.6-6.9,13.7-4.4,21.4S622.7,289.4,622.7,289.4z"/>
		<path fill="#3D1A03" stroke="#190D06" stroke-width="3" stroke-linecap="round" stroke-linejoin="round" d="M585.9,189.4
			c4.4-2.7,2.8-5.9,15.7-9.4c10.4-2.7,28.7,1.4,37,6.7c9.9,6.3,16.8,19.6,18.1,28c1.4,8.5-2.1,20.7-5.2,28.6
			c-4.7,11.8-21.2,16.5-26.4,25.3l-4.7-7.7c0,0,4.4-9.1,8.8-10.2c4.4-1.1,7.1-13.7,1.6-15.9c-5.5-2.2-14.8,1.1-15.7,3.3
			c-0.8,2.2-7.1-2.7-7.1-2.7s1.9-12.1,3-16.5c0.8-3.2,10.2-17.7,3-23.9C605.9,187.8,585.9,189.4,585.9,189.4z"/>
	</g>
	<g id="Gi_top">
		<path fill="#FCFCFC" stroke="#8C8C8C" stroke-width="3" stroke-linecap="round" stroke-linejoin="round" d="M450.2,220.5
			c0,0,16.2-43.7,29.6-43c13.4,0.7,15.5,22.5,20.4,28.2c4.9,5.6,22.5,21.1,32.4,31.7c9.9,10.6,18.4,20.4,25.4,24.7
			c7.6,4.6,14.1,9.2,38,9.2c19.7,0,24.7,12.7,31.7,17.6c7,4.9,21.1,24.7,16.2,38.8c-4.9,14.1-13.4,38-27.5,47.9
			c-14.1,9.9-28.9,22.5-56.4,17.6L481.2,305l-21.8-33.1l23.3-7C482.6,264.9,447.4,227.5,450.2,220.5z"/>
		<path fill="#FCFCFC" stroke="#8C8C8C" stroke-width="3" stroke-linecap="round" stroke-linejoin="round" d="M497.4,278.3
			c0,0-23.3,2.1-27.5,7"/>
		<path fill="#FCFCFC" stroke="#8C8C8C" stroke-width="3" stroke-linecap="round" stroke-linejoin="round" d="M603.1,364.9
			c0,0-21.8-2.8-49.3-15.5c-27.5-12.7-40.9-48.6-48.6-56.4c-7.8-7.8-24-31.7-29.6-40.2"/>
		<path fill="#FCFCFC" stroke="#8C8C8C" stroke-width="3" stroke-linecap="round" stroke-linejoin="round" d="M584.1,372
			c0,0,0-11.3-2.1-12.7"/>
		<path fill="#FCFCFC" stroke="#8C8C8C" stroke-width="3" stroke-linecap="round" stroke-linejoin="round" d="M529.1,238.1
			c0,0,10.6,12,12.7,20.4c2.1,8.5,12.7,22.5,19,24.7"/>
		<path fill="#FCFCFC" stroke="#8C8C8C" stroke-width="3" stroke-linecap="round" stroke-linejoin="round" d="M598.9,310
			c0,0-9.9-34.5-50.7-45.8"/>
		<path fill="#FCFCFC" stroke="#8C8C8C" stroke-width="3" stroke-linecap="round" stroke-linejoin="round" d="M489.7,233.9
			c0,0,22.5,39.5,22.5,64.1"/>
		<path fill="#FCFCFC" stroke="#8C8C8C" stroke-width="3" stroke-linecap="round" stroke-linejoin="round" d="M512.9,274.8
			c0,0,1.4,30.3,11.3,40.9"/>
	</g>
	<g id="pants_x0026_foot">
		<path id="left_foot_1_" fill="#F9C6A0" stroke="#704425" stroke-width="2" stroke-linecap="round" stroke-linejoin="round" d="
			M166.6,87.4c0,0-6-18.7-12.7-24.1c-5.6-4.6-4.6-14.5-12.8-10.7c-8.9,4.1-14.2,16-14.3,21.7c-0.2,5.7,2.9,18.7,6.2,23.2
			c1.8,3.3,8.4,13.9,9.8,21L166.6,87.4z"/>
		<path fill="#FCFCFC" stroke="#8C8C8C" stroke-width="3" stroke-linecap="round" stroke-linejoin="round" d="M303.7,140.9
			c0,0,83.8,2.1,95.8,5.6c12,3.5,21.1,2.8,27.5,10.6c6.3,7.8,18.3,47.9,22.5,55c4.2,7,1.4,35.9,2.1,50c0.7,14.1,5.6,47.9,0.7,58.5
			c0,0,6.3,12.7,7.8,22.5c1.4,9.9,19.7,14.8,19.7,14.8l29.9,52.8c0,0-8.6,17.2-19.2,20.7c-10.6,3.5-17.7,7.5-32.5,5.6
			c-4.2,5.3-18.3,14.3-40.9,13.8c-28.9-0.7-60.6-26.1-69-35.2c-8.5-9.2-25.4-15.5-28.2-24.7c-2.8-9.2-0.7-22.5-0.7-22.5
			s-11.3-4.9-12-16.9c-0.7-12,0.7-27.5,0.7-27.5s-14.8-10.6-14.1-55.7C294.5,223.3,303.7,140.9,303.7,140.9z"/>
		<path fill="#FCFCFC" stroke="#8C8C8C" stroke-width="3" stroke-linecap="round" stroke-linejoin="round" d="M338.2,190.9
			c0,0,2.1,1.4,7.8,1.4c5.6,0,23.3-14.8,31-14.1"/>
		<path fill="#FCFCFC" stroke="#8C8C8C" stroke-width="3" stroke-linecap="round" stroke-linejoin="round" d="M350.2,209.9
			c0,0,3.5,7.5,22.5,3.9c7.8-2.8,12.7-5.3,15.5-5.3"/>
		<path fill="#FCFCFC" stroke="#8C8C8C" stroke-width="3" stroke-linecap="round" stroke-linejoin="round" d="M352.3,219.8
			c0,0-2.1,12,19,13.4"/>
		<path fill="#FCFCFC" stroke="#8C8C8C" stroke-width="3" stroke-linecap="round" stroke-linejoin="round" d="M372.7,307.2
			c0,0-16.9-8.5-19-31"/>
		<path fill="#FCFCFC" stroke="#8C8C8C" stroke-width="3" stroke-linecap="round" stroke-linejoin="round" d="M380.5,367.8
			c0,0-16.9-13.4-20.4-25.4c-3.5-12-2.8-27.7-2.8-30.5"/>
		<path fill="#FCFCFC" stroke="#8C8C8C" stroke-width="3" stroke-linecap="round" stroke-linejoin="round" d="M356.5,355.1
			c0,0,9.2,40.2,47.9,51.4"/>
		<path fill="#FCFCFC" stroke="#8C8C8C" stroke-width="3" stroke-linecap="round" stroke-linejoin="round" d="M410.8,420.6
			c0,0-15.5,2.8-23.3,0.7c-7.8-2.1-35.9-26.8-38-33.8"/>
		<path fill="#FCFCFC" stroke="#8C8C8C" stroke-width="3" stroke-linecap="round" stroke-linejoin="round" d="M351.2,293.1
			c0,0-7.5,11.3-6,24c1.4,12.7,10.3,21.1,10.3,28.2"/>
		<path fill="#FCFCFC" stroke="#8C8C8C" stroke-width="3" stroke-linecap="round" stroke-linejoin="round" d="M331.8,333.2
			c0,0,11.2-6.3,12.3-16.2"/>
		<path fill="#FCFCFC" stroke="#8C8C8C" stroke-width="3" stroke-linecap="round" stroke-linejoin="round" d="M429.8,375.5
			c0,0,26.1-24,31-44.4c14.8-1.4,6.3,32.4-9.2,45.1"/>
		<path fill="#FCFCFC" stroke="#8C8C8C" stroke-width="3" stroke-linecap="round" stroke-linejoin="round" d="M341.7,375.5
			c0,0-3.9-11.3-2.5-19.7c2.3-13.9,7.6-28.4,6.9-36.8"/>
		<path fill="#FCFCFC" stroke="#8C8C8C" stroke-width="3" stroke-linecap="round" stroke-linejoin="round" d="M496,405.1
			c0,0-17.6,18.7-43,23c-25.4,4.2-37.6,25.2-77,8.9"/>
	</g>
	<path fill="#404040" stroke="#252525" stroke-linecap="round" stroke-linejoin="round" d="M547,398c0,0-25,22-39,17s-28-55-28-55
		L547,398z"/>
	<path id="gi_rollover_1_" fill="#FCFCFC" stroke="#8C8C8C" stroke-width="3" stroke-linecap="round" stroke-linejoin="round" d="
		M460.8,329c0,0,8.5,19,8.5,40.9s-10.6,33.8-10.6,33.8s34.5,16.2,53.5,9.9c7.8-7,5.6-22.5,5.6-30.3S491.1,353,491.1,353L460.8,329z"
		/>
</g>
<g id="Uke">
	<g id="left_foot">
		<path fill="#FFD4AE" stroke="#7F4E29" stroke-width="2" stroke-linecap="round" stroke-linejoin="round" d="M94.5,351.5
			c0,0-24.3,24-29.8,37.5c-5.5,13.5-10.6,28-10.8,37.5c-0.3,9.5-4.8,24-16.6,23.8c-11.9-0.3-11.6-17.4-18.2-22.4
			c-6.6-5-9.5-19.5-6.9-25.6c2.6-6.1,17.4-14,23.8-15.3c6.3-1.3,15.6-72.1,15.6-72.1L94.5,351.5z"/>
		<path fill="#FFD4AE" stroke="#7F4E29" stroke-width="2" stroke-linecap="round" stroke-linejoin="round" d="M37.7,384.8
			c0,0-4.2,18.2-9.3,22.2"/>
		<path fill="#FFD4AE" stroke="#7F4E29" stroke-width="2" stroke-linecap="round" stroke-linejoin="round" d="M37.2,424.1
			c0,0,12.4-18.5,6.9-46.5"/>
		<path fill="#FFD4AE" stroke="#7F4E29" stroke-width="2" stroke-linecap="round" stroke-linejoin="round" d="M54.1,423.6
			c0,0,5.8-7.6,6.8-11.4c0.8-3.2,0.7-15.5,0.7-15.5"/>
	</g>
	<g id="right_foot">
		<path fill="#FFD4AE" stroke="#7F4E29" stroke-width="2" stroke-linecap="round" stroke-linejoin="round" d="M447,331.7
			c0,0,40.2,20.2,51.2,33.7c11.1,13.5,28.1,25.2,31,30c2.9,4.8-4.3,15.9,1.9,20.2c6.2,4.3,14.7,6,24.8-0.2
			c7.7-4.6,14.9,2.2,22.1,0.2c4.5-1.2,14.2-3.6,14.2-9.6c-1.4-4.8-11.1-1.9-16.3-4.6c-5.3-2.6-7.9-7-13.7-12
			c-5.8-5-20.6-17.5-24.5-21.7c-30-32.7-57-69-57-69L447,331.7z"/>
		<path fill="#FFD4AE" stroke="#7F4E29" stroke-width="2" stroke-linecap="round" stroke-linejoin="round" d="M524.3,374.7
			c0,0,3.3,9.7,7.3,12.3s7,5.7,8.7,8"/>
		<path fill="#FFD4AE" stroke="#7F4E29" stroke-width="2" stroke-linecap="round" stroke-linejoin="round" d="M477.3,307
			c0,0,11,10.7,19.7,26.3"/>
	</g>
	<g id="Gi_pants">
		<path fill="#2937B7" stroke="#151E56" stroke-width="3" stroke-linecap="round" stroke-linejoin="round" d="M359.8,290.4
			c-5.8,0.3-35-12.9-41.1-15.9c-6.1-3.1-17-1.4-30.9-6.4c-17.2-6.3-25.6-8.5-38.6-9c-16.6-0.7-31.6-9.2-35.3-8.8
			c-3.7,0.3-15.5,15.9-26.5,20.9c-7.1,3.2-25.2,7.9-27.9,13.3c-2.7,5.4-14.3,27.1-23.1,36.3c-8.8,9.2-24.4,35-26.5,36.6
			c-2,1.7-26.5,5-44.5-0.4c-18-5.4-20.4-25-20.4-25s4.1-28.2,9.5-38c5.4-9.8,22.7-44.8,31.6-48.5c8.8-3.7,2-24.4,8.1-41.1
			s9.5-23.1,14.9-28.5s31.9-34.6,35.3-48.9c3.4-14.3,168,31.1,168,31.1l33.7,40.9l100.3,44.9c0,0,10.4,18.5,17.6,28.1
			c7.2,9.6,13.6,21.7,16.8,24.1c3.2,2.4-6.4,21.7-11.2,24.1c-4.8,2.4-22.5,11.2-22.5,11.2L359.8,290.4z"/>
		<path fill="#2937B7" stroke="#151E56" stroke-width="3" stroke-linecap="round" stroke-linejoin="round" d="M86.2,245.3
			c0,0,1,16.9,17.8,20.1c16.8,3.2,27.3,3.2,35.3-1.6"/>
		<path fill="#2937B7" stroke="#151E56" stroke-width="3" stroke-linecap="round" stroke-linejoin="round" d="M117.7,256.6
			c0,0,20.1,0.8,36.1-4.8"/>
		<path fill="#2937B7" stroke="#151E56" stroke-width="3" stroke-linecap="round" stroke-linejoin="round" d="M85.6,272.6
			c0,0,12.9,18.4,22.5,20.9c9.6,2.4,20.1-4.8,20.1-4.8"/>
		<path fill="#2937B7" stroke="#151E56" stroke-width="3" stroke-linecap="round" stroke-linejoin="round" d="M104.9,304.7
			c0,0,24.1-3.2,34.5-8c10.4-4.8,14.9-11.5,27.7-17.9"/>
		<path fill="#2937B7" stroke="#151E56" stroke-width="3" stroke-linecap="round" stroke-linejoin="round" d="M105.7,331.2
			c0,0,22.3-12.3,30.8-10.6s10.1-15.9,10.1-15.9"/>
		<path fill="#2937B7" stroke="#151E56" stroke-width="3" stroke-linecap="round" stroke-linejoin="round" d="M254.9,240.5
			c0,0,10.4,1.6,31.3,3.2c20.9,1.6,32.9-0.8,32.9-0.8"/>
		<path fill="#2937B7" stroke="#151E56" stroke-width="3" stroke-linecap="round" stroke-linejoin="round" d="M266.9,249.3
			c0,0,10.4,4,31.3,3.2c21.7-0.8,32.9-0.8,32.9-0.8"/>
		<path fill="#2937B7" stroke="#151E56" stroke-width="3" stroke-linecap="round" stroke-linejoin="round" d="M68,299.9
			c0,0-7.2-20.1,4-36.9"/>
		
			<line fill="#2937B7" stroke="#151E56" stroke-width="3" stroke-linecap="round" stroke-linejoin="round" x1="223.6" y1="242.1" x2="210.7" y2="250.9"/>
	</g>
	<g id="Gi_top_rollover">
		<path fill="#2937B7" stroke="#151E56" stroke-width="3" stroke-linecap="round" stroke-linejoin="round" d="M176.2,75.3
			c14.4-8,48.1-8.8,66.6-1.6c18.5,7.2,69,43.3,70.6,53.7c1.6,10.4-1.6,23.3,2.4,31.3c4,8,17.6,29.7,25.7,33.7c8,4-6.4,34.5-8.8,42.5
			c-14.4,0.8-49.7-13.8-65.8-17c-29.4-5.9-85.8-35.1-101.1-41.5c-15.2-6.4-32.1-5.6-36.9-0.8c-4.8,4.8-10.4,11.2-14.4,16.8
			c-3.2-7.2-2.4-25.7-2.4-25.7s-5.6,15.2-15.2,19.3c0-10.4,3.3-14.2,2.4-27.3c-0.8-11.2,5.5-20.2,11.2-26.5c8-8.8,34.5-12,34.5-20.9
			S161.8,83.3,176.2,75.3z"/>
		<path fill="#2937B7" stroke="#151E56" stroke-width="3" stroke-linecap="round" stroke-linejoin="round" d="M110.5,177.1
			c4-10.4,8.7-20.5,22.5-29.7c9.6-6.4,13.6-21.7,12.8-32.9"/>
		<path fill="#2937B7" stroke="#151E56" stroke-width="3" stroke-linecap="round" stroke-linejoin="round" d="M293.4,124.2
			c0,0,12,15.2,20.9,20.1"/>
		<path fill="#2937B7" stroke="#151E56" stroke-width="3" stroke-linecap="round" stroke-linejoin="round" d="M302.2,149.1
			c0,0,20.9,20.1,24.9,28.9"/>
		<path fill="#2937B7" stroke="#151E56" stroke-width="3" stroke-linecap="round" stroke-linejoin="round" d="M329.5,194.8
			c0,0,2.4,18.4-11.2,20.9"/>
		<path fill="#2937B7" stroke="#151E56" stroke-width="3" stroke-linecap="round" stroke-linejoin="round" d="M203.5,140.2
			c0,0,20.9,37.7,86.6,73.8"/>
		<path fill="#2937B7" stroke="#151E56" stroke-width="3" stroke-linecap="round" stroke-linejoin="round" d="M236.4,186
			c0,0-38.5-23.3-48.9-48.9"/>
	</g>
	<g id="head">
		<path fill="#FFD4AE" stroke="#7F4E29" stroke-width="2" stroke-linecap="round" stroke-linejoin="round" d="M351.4,25.1
			c0,0,12.2-13.6,29.1-13.3c16.9,0.4,29.8,7.5,35.5,14c5.7,6.5,18.3,20.1,22.2,37.7c3.1,13.7-7.2,28-11.5,30.1
			c-4.3,2.2-9,2.2-10.4,5.7c-1.4,3.6-70.7-70.7-70.7-70.7L351.4,25.1z"/>
		<path fill="#7F4E29" stroke="#492D1A" stroke-width="2" stroke-linecap="round" stroke-linejoin="round" d="M351.4,25.1
			c0,0,12.2-13.6,29.1-13.3c16.9,0.4,29.8,7.5,35.5,14c5.7,6.5,18.3,20.1,22.2,37.7c3.1,13.7-7.2,28-11.5,30.1
			c0,0,3.9-18.3-6.5-25.8c-5.7-4.1-14.1-9.7-18.7-7.2c-0.2,0.4-5-3.3-6.1-5.7c-0.9-2,1.9-2.4,2.2-5c1.2-10.7-3.2-9.7-5.4-11.5
			c-2.2-1.8-9.7,0-10.4,2.9c-0.7,2.9-4.7,7.5-4.7,7.5L351.4,25.1z"/>
	</g>
	<g id="Gi_jacket_1_">
		<path id="Gi_jacket" fill="#2937B7" stroke="#151E56" stroke-width="3" stroke-linecap="round" stroke-linejoin="round" d="
			M173.8,76.1c0,0-2.4-22.5,28.9-44.1c31.3-21.7,18.4-16,36.1-20.1c17.6-4,24.1-1.6,40.9-0.8c16.8,0.8,41.7-3.2,56.2,4.8
			c14.4,8,28.9,20.1,38.5,27.3c9.6,7.2,36.9,36.9,39.3,45.7c2.4,8.8,30.5,50,30.2,43.5c-22.5,0.8-24.6,20.6-24.6,20.6L315,143.4
			l-23.3-49.7L230,65.6L173.8,76.1z"/>
		<path fill="#2937B7" stroke="#151E56" stroke-width="3" stroke-linecap="round" stroke-linejoin="round" d="M403.3,131.4
			c0,0-20-15.1-30.5-36.1c-9.8-19.6-24.6-38.2-27.3-40.1"/>
		<path fill="#2937B7" stroke="#151E56" stroke-width="3" stroke-linecap="round" stroke-linejoin="round" d="M400.1,84.9
			c0,0-42.5-42.5-62.6-48.1"/>
		<path fill="#2937B7" stroke="#151E56" stroke-width="3" stroke-linecap="round" stroke-linejoin="round" d="M322.2,36.8
			c0,0,0,19.3,20.1,52.9"/>
		<path fill="#2937B7" stroke="#151E56" stroke-width="3" stroke-linecap="round" stroke-linejoin="round" d="M298.2,76.9
			c0,0,38.5,20.9,48.1,52.1c-5.6-32.9-48.1-82.6-48.1-82.6"/>
		<path fill="#2937B7" stroke="#151E56" stroke-width="3" stroke-linecap="round" stroke-linejoin="round" d="M328.7,113.8
			c0,0-8.8,10.4,8.8,37.7"/>
		<path fill="#2937B7" stroke="#151E56" stroke-width="3" stroke-linecap="round" stroke-linejoin="round" d="M413.7,136.2
			c0,0-6.4-3.2-12-16.8"/>
	</g>
	<path id="Blackbelt" fill="#EDEEF4" stroke="#595959" stroke-width="3" stroke-linecap="round" stroke-linejoin="round" d="
		M165.2,80.9c0,0,22.3-20.8,37.5-24.1c11.8-2.5,41.7,0,60.2,8c20.7,9,54.5,33.7,53.7,77c0,0-15.4-23.4-29.7-37.7
		c-11.2-11.2-26.5-20.1-44.9-26.5c-17.1-5.9-29.6-6.4-39.3-6.4C192.3,71.2,173.2,75.2,165.2,80.9z"/>
	<g id="Tori_overlay">
		<path fill="#FCFCFC" stroke="#8C8C8C" stroke-width="3" stroke-linecap="round" stroke-linejoin="round" d="M346,309
			c0-3,3-16,11-19c-7-12,1-55-3-63c-1.8-3.6-1-10,1-16c-10-6-13-16-13-20c-7,0-21-26-24-28s-2-18-2-18s71.5-2,83.5,1.5
			c12,3.5,21.1,2.8,27.5,10.6c6.3,7.8,18.3,47.9,22.5,55c4.2,7,1.4,35.9,2.1,50c0,0,5.4,24.9,5.4,36.9s3.7,27,2,34c-2,8-24,20-27,20
			"/>
		<path fill="#FCFCFC" stroke="#8C8C8C" stroke-width="3" stroke-linecap="round" stroke-linejoin="round" d="M341.2,190.9
			c0,0,2.1,1.4,7.8,1.4c5.6,0,23.3-14.8,31-14.1"/>
		<path fill="#FCFCFC" stroke="#8C8C8C" stroke-width="3" stroke-linecap="round" stroke-linejoin="round" d="M353.2,209.9
			c0,0,2.5,7.5,21.5,3.9c7.8-2.8,12.7-5.3,15.5-5.3"/>
		<path fill="#FCFCFC" stroke="#8C8C8C" stroke-width="3" stroke-linecap="round" stroke-linejoin="round" d="M352.3,219.8
			c0,0-2.1,12,19,13.4"/>
		<path fill="#FCFCFC" stroke="#8C8C8C" stroke-width="3" stroke-linecap="round" stroke-linejoin="round" d="M372.7,307.2
			c0,0-16.9-8.5-19-31"/>
		<path id="hand_2_" fill="#F9C6A0" stroke="#704425" stroke-width="2" stroke-linecap="round" stroke-linejoin="round" d="
			M480.5,229.7l12.7-33.8l-13.4-18.3c0,0-10.6-13.4-16.2-22.5c-5.6-9.2-7.8-14.8-12-19c-4.2-4.2-24.7-8.5-28.2-8.5
			s-11.3,15.5-8.5,21.1c2.8,5.6,10.3,2.8,13.8,9.9c3.5,7,8,25.4,11.6,26.8c3.5,1.4,16.2,14.1,26.1,13.4
			C475.6,207.8,480.5,229.7,480.5,229.7z"/>
		<path fill="#FCFCFC" stroke="#8C8C8C" stroke-width="3" stroke-linecap="round" stroke-linejoin="round" d="M482.6,263.9
			c0,0-35.2-36.3-32.4-43.4c0,0,16.2-43.7,29.6-43c13.4,0.7,15.5,22.5,20.4,28.2"/>
		
			<line fill="#2937B7" stroke="#151E56" stroke-linecap="round" stroke-linejoin="round" x1="173.2" y1="78.5" x2="165.3" y2="81.7"/>
		<path id="left_foot_3_" fill="none" stroke="#704425" stroke-width="2" stroke-linecap="round" stroke-linejoin="round" d="
			M164.6,81.6c0,0-5.6-13.9-10.7-18.3"/>
	</g>
</g>
</svg>
