<?xml version="1.0" encoding="utf-8"?>
<!-- Generator: Adobe Illustrator 18.1.1, SVG Export Plug-In . SVG Version: 6.00 Build 0)  -->
<svg version="1.1" xmlns="http://www.w3.org/2000/svg" xmlns:xlink="http://www.w3.org/1999/xlink" x="0px" y="0px"
	 viewBox="0 0 490 755" enable-background="new 0 0 490 755" xml:space="preserve">
<g id="Uke">
	<path id="right_leg_inside_1_" fill="#2937B7" stroke="#151E56" stroke-width="3" d="M81.9,688.3c0,0,27,15.5,39.6,5
		C71.7,651.2,61,672.5,61,672.5L81.9,688.3z"/>
	<path id="right_foot_2_" fill="#FFD4AE" stroke="#7F4E29" stroke-width="2" d="M63.3,674.3c0,0-9.3,31.8-12.8,36.8s2.7,20.9,3.9,26
		c1.2,5,19.4,4.7,26.8,6.6c7.4,1.9,18.6,1.9,21.3-1.2c2.7-3.1,4.7-10.5,1.2-13.6s-11.2-7-10.9-16.3c0.4-9.3,0-24,1.9-27.5
		c1.9-3.5,8.9-20.9,15.5-24.8c6.6-3.9-37.2-25.8-37.2-25.8S66.4,664.6,63.3,674.3z"/>
	<path id="left_foot" fill="#FFD4AE" stroke="#7F4E29" stroke-width="2" d="M319.9,684.7c0,0,1,8.1,0,13.2c-1,5.2-4.5,23.9,5,26.8
		s27.2-5,35.1-1.9s14.4-7,13.6-17.7c-0.9-10.7-8.8-31.6-8.8-31.6l-44.4,10.8"/>
	<path id="left_gi_pantleg" fill="#2937B7" stroke="#151E56" stroke-width="3" d="M311.1,690.5c0,0,28.8,7.3,60.3,1.8
		c31.5-5.5-48.9-204.2-48.9-204.2l-37.9-42.9L231.1,500c0,0,34.7-17.8,41.1-1.8c6.4,16,18.3,62.6,19.6,75.8
		C293.3,587.3,309.2,664.5,311.1,690.5z"/>
	<path id="right_gi_pantleg" fill="#2937B7" stroke="#151E56" stroke-width="3" d="M62.1,670.8c0,0,19.6-85.6,42.2-135
		c15.3-48.7,26-120,34.7-142.7l49.3,30.7l-11.8,127.9c-1.6,14-11.7,55.5-17.5,77.2c-5.4,20.6-16.6,48.1-26.7,56.3
		c-4.5,3.6-9.3,9.3-19.3,11.3C107.2,691.8,89.2,668.9,62.1,670.8z"/>
	<path id="gir_top_rollover" fill="#2937B7" stroke="#151E56" stroke-width="3" d="M162,301.5l122.5,2.5L198,430.5
		c0,0-37.5-4.5-53.5-27.5c0,0-3,1-6.5,5.5c-6-1-21.5-11.5-21.5-16.5S124,338,162,301.5z"/>
	<path id="gi_back_collar" fill="#2937B7" stroke="#151E56" stroke-width="3" d="M217.2,81.8c0,0-10.5,2-10.9,3.9
		c-0.5,1.8,3.7,22.4,3.7,22.4l13-15L217.2,81.8z"/>
	<path id="head__x0026__chest" fill="#FFD4AE" stroke="#7F4E29" stroke-width="2" d="M237.4,129.2c0,0,55.5,56.9,55.5,61.4
		c0,4.5,5.7-43.3,4.8-57.8c-0.8-14.4-10.5-32-10.5-32s13-13.7,9.3-35.5c-27,1.5-37.6-5.9-43.9-17.7C245.9,53,243.1,63.2,238,72
		c0-7.4-4.8-30.9-12.5-19.5c-4.7,7-4.8,19.5-2,23.2c-2,5.3-3,9.3-9.5,1.3c0,0,0.9,13.5-2.5,18C208.1,99.5,237.4,129.2,237.4,129.2z"
		/>
	<path id="wrinkle_rollover1" fill="none" stroke="#151E56" stroke-width="3" d="M160.5,303c0,0,10,54.5-16,100"/>
	<path id="wrinkle_rollover2" fill="none" stroke="#151E56" stroke-width="3" d="M150,316c0,0-0.5,53.5-11,70.5"/>
	<path id="grey_belt" fill="#EDEEF4" stroke="#595959" stroke-width="3" d="M157.9,304.5c0,0,23.8,11.6,57.9,10.8
		c34.2-0.8,59-13,69-14s2.1-13.9,2.1-13.9s-34.5,1.9-54.7,1.7c-20.2-0.2-70.6,0.2-71.4-1.4C160.1,286.2,154.4,299.4,157.9,304.5z"/>
	<path id="gi_left_lapel" fill="#2937B7" stroke="#151E56" stroke-width="3" d="M285.3,105.4c0,0,10.8,73.6,6.8,86.1
		c-2.5,7.9,28.9-5,28.9-5s9.8-55,14.4-58.7c12.7-10.2-25.8-53.8-28.6-55.5c-2.8-1.7-19.8,10.8-22.9,17
		C280.7,95.5,285.3,105.4,285.3,105.4z"/>
	<path id="gi_left_lapel_crease" fill="none" stroke="#151E56" stroke-width="3" d="M291.5,98.3c0,0,15.6,16.7,13,39.4
		c-2.5,22.7-3.1,43.3-1.7,49.5"/>
	<path id="gi_top" fill="#2937B7" stroke="#151E56" stroke-width="3" d="M298,288.5c0,0-27.7-0.2-32.6,3.5
		c-6.8,5.2-43.9,5.8-49.7,3.2c-5.8-2.6-13.9,10.6-21.9,10c-8.1-0.6-19-5.2-29-15.2c-10-10-21.6-15.2-16.1-24.2
		c5.5-9,16.4-17.1,17.4-23.9c1.4-9.9,4.2-31.3-2.6-49c-13.2-16.1-5.2-46.8,0-53.2c5.2-6.4,30.6-33.9,31.6-37.7
		c1-3.9,7.7-9.7,10-14.2c2.9,5.8,12.4,19.9,21.6,28.1c8.1,7.1,28.7,21.6,35.8,31.6c7.1,10,25.8,34.8,26.4,40
		c13.9-3.5,42.6-10.3,53.5-14.8c11-4.5,24.5-5.8,26.4-8.1c1.9-2.3,2.6,38.4,13.5,45.1c4.8,10-30.6,21.9-37.7,22.9
		c-7.1,1-24.4,2.4-38.1,5.5c-10.7,3.3-6.3,15.1-7.7,26.3C302.5,266.1,298,288.5,298,288.5z"/>
	<path id="arm_wrinkle_Y" fill="none" stroke="#151E56" stroke-width="3" d="M208.3,116.3c0,0,11,23.2,27.7,33.5
		c13.5,8.3,23,17.8,30.3,25.8c7.7,8.4,12.3,15.5,12.3,15.5s-10.6-14.5-18.7-20c-8.1-5.5-19.3-17.4-39-18.4"/>
	<path id="arm_wrinke_v" fill="#2937B7" stroke="#151E56" stroke-width="3" d="M260.2,204.6c5.6-7.2,28.7-17.1,28.7-17.1
		s-15.8,0.6-25.2,5.2"/>
	<path fill="#2937B7" stroke="#151E56" stroke-width="2" d="M287.5,217.1c-3.5,6.5,1.9,10.5,1.9,10.5s2.2,4,0.3,4
		c-1.9,0-6.7-2.2-7.3-9.2c-0.5-7,0.3-8.3,2.7-11.8"/>
	<path id="trunk_wrinkle" fill="none" stroke="#151E56" stroke-width="3" d="M163.7,278.8c0,0,1.8-15.1,21.2-16.6
		c19.4-1.5,27.7-2.6,34.9-7.7"/>
	<path id="elbow_wrinke" fill="none" stroke="#151E56" stroke-width="3" d="M253.1,204.6c0,0-8.7,7.7-1.3,24.8"/>
	<path id="lower_arm_definition" fill="none" stroke="#151E56" stroke-width="3" d="M303.8,239.1c0,0-26.2,3.4-31.7,6
		c-5.5,2.6-24.7,1.4-31.5-1.5c-6.8-4.8-16.2-10.9-28.7-25.8c-13.7-16.2-19.6-24-26.1-28.7"/>
	<path id="trunk_wrinkle2" fill="none" stroke="#151E56" stroke-width="3" d="M187,284.6c0,0,0.7-7.9,13.1-9.7"/>
	<path id="trunk_wrinkle3" fill="none" stroke="#151E56" stroke-width="3" d="M192.6,271.5c0,0,14.2-7.6,26.7,2"/>
	<path id="trunk_wrinkle4" fill="none" stroke="#151E56" stroke-width="3" d="M214.8,266.4c0,0,5.1,3.8,20.9,1.4"/>
	<path id="trunk_wrinkle5" fill="none" stroke="#151E56" stroke-width="3" d="M218.8,285c0,0,13.5-1.3,19.3-6.8"/>
	<path id="face" fill="#FFD4AE" stroke="#7F4E29" stroke-width="2" d="M246.2,110.5c0,0,6.2,14.7,15.9,15
		c9.6,0.3,17.6-12.2,21.8-14.7c2.1-1.3,6.5,3,6.8-6.8c0.3-10-2-15.6,3.7-19.3c3.2-3.6,3.1-16.1,2.3-17.6"/>
	<path id="head__x0026__chest_3_" fill="#7F4E29" stroke="#492D1A" stroke-width="2" d="M216.1,35.4c3.2-10.9,15.4-24.5,28.1-26.8
		c8.7-1.5,29.1-2.7,43.6,12.3c14.5,15,14.8,23.7,15.7,29.6c0.8,5.3-2.8,12-6.9,15c-25.2,2.5-37.8-6-44-17.9
		c-6.8,5.4-9.6,15.6-14.7,24.3c0-7.4-4.8-30.9-12.5-19.5c-4.7,7-4.8,19.5-2,23.2c-2,5.3-1.8,9.9-9.5,1.3
		C209.8,60.3,212.9,46.2,216.1,35.4z"/>
	<path fill="none" stroke="#7F4E29" d="M280.8,107.2c0,0,1.3,2.5,4.9,3"/>
	<path fill="#2937B7" stroke="#151E56" stroke-width="2" d="M282.1,230c0,0-12.7-9.7-4-21.8"/>
	<path fill="#EDEEF4" stroke="#595959" stroke-width="3" d="M263.6,305c0,0-14.1,16.7-18,35.6c-4,18.9,4.2,7.5,4.2,7.5l23.7-33.6
		L263.6,305z"/>
	<path fill="#FFFFFF" stroke="#595959" stroke-width="3" d="M267.1,292.9c0,0-6.8,9.7-3.5,13.2c3.3,3.5,5.9,4,7.9,2
		c2-2,12.3-15.6,12.3-15.6S277.3,283,267.1,292.9z"/>
	<path fill="none" stroke="#595959" stroke-width="3" d="M276.2,306.7c0,0-9.2-9-6.2-15.2c3.1-6.2,6.4-3.7,6.4-3.7"/>
</g>
<g id="Tori">
	<g id="lower_half">
		<path id="left_foot_2_" fill="#F9C6A0" stroke="#704425" stroke-width="2" d="M373.1,715.7c-1.8,5.2-11.4,11.7-13.9,14.8
			c-2.5,3.1-8.7,7.2-9.6,8.5c-0.9,1.3-1.1,8.1,3.6,9.4c4.7,1.3,13.9,1.6,19.3,2.5c5.4,0.9,27.1,0,29.4-2.2c2.2-2.2,9.6-7.2,11.2-8.3
			c2.4-1.7,13.8-11.4,15.5-12.3c2.7-1.6,2.2-13.2-5.6-19.1c-2.9-3.8-2.2-10.5-2.2-10.5l-45.7,4.5C374.9,703,374.9,710.6,373.1,715.7
			z"/>
		<path fill="#CCCCCC" stroke="#7F7F7F" stroke-width="3" d="M113.7,613.5c0,0-5.9,1.2-18.3-8.4c-14.9-11.4,9.9-27.6,9.9-27.6
			L113.7,613.5z"/>
		<path id="right_foot_1_" fill="#F9C6A0" stroke="#704425" stroke-width="2" d="M115,604.5c0,0-48.8,30.9-56,46
			c-4.5,9.4-23.2,23.8-25.8,24.6c-1.5,0.5-5.4,4.1-8,4c-2-0.1-6.5-3.4-6.8-6.8c-7-2.7-8.9-16-8.6-20.9c0.3-4.8,3.8-10.6,9.2-18.9
			c5.4-8.4,22.8-18,25.9-23c-0.3-6.5-0.9-24.2,13.4-26.2c13.8-2,17.8-6.5,23-11.3C86.6,567.2,115,604.5,115,604.5z"/>
		<path id="gi_pants_1_" fill="#FCFCFC" stroke="#8C8C8C" stroke-width="3" d="M428,439.5l-2-73l-173.7-26c0,0-16.3,20.3-24.3,30
			s-67,86.4-84.7,97.3c-7,4.3-9,16.3-9,21.3c-17,7-29.7,26.7-35.3,50c-10,3.7-12.6,7.7-14.7,10c-6.6,7.2-10.3,20-14,29
			c8-2.3,14.5,2.4,20,5.7c13.7,8,20.7,21.7,23.3,29.7c5.7,1.3,20-10,26-15.7c28.7-22.7,74.7-63,86-76.3c9.6-11.3,52-55,66-57
			c11.9-1.7,16,11.7,19,19.7s17,84.7,26.3,105.3c7.7,17,23.7,99,27.7,108s2.5,28.1,24.2,28.8c22.3,0.6,38.4-10.8,41.8-19.8
			c-0.3-11.3-0.7-24-1-39c-0.3-13,0-82.7-3.3-102.7c-3.5-21-0.1-38.4-2.7-63C421.3,479.2,425,465.8,428,439.5z"/>
		<path id="rightleg_wrinkle_2_1_" fill="none" stroke="#8C8C8C" stroke-width="3" d="M87.7,545.5c-2.3,3.3,7-9,33-10
			s54.3-11,68.7-24"/>
		<path id="rightleg_wrinkle_1_1_" fill="none" stroke="#8C8C8C" stroke-width="3" d="M134.7,486.8c-2,4,1.7,11,10.7,10"/>
		<path id="crotch_wrinkle_2_1_" fill="none" stroke="#8C8C8C" stroke-width="3" d="M305,471.2c0,0-17.3-35.3-50.7-27"/>
		<path id="crotch_wrinkle1_1_" fill="none" stroke="#8C8C8C" stroke-width="3" d="M288,465.2c0,0-17.7-3.3-38.7-2.7
			c-21,0.7-51.3,2-49,18.3"/>
		<path id="leftleg_wrinkle2_1_" fill="none" stroke="#8C8C8C" stroke-width="3" d="M374.3,501.8c0,0-14.7,31.3-22,38
			c-7.3,6.7,0.7,10,0.7,10s16,18.7,22,48"/>
		<path id="leftleg_wrinkle_1_" fill="none" stroke="#8C8C8C" stroke-width="3" d="M389.7,535.8c0,0,32.7-64.7,38-103.3
			c-3.3,60-22.7,111-35.3,127.3"/>
		<path id="gi_top_rollover-back_1_" fill="#FCFCFC" stroke="#8C8C8C" stroke-width="3" d="M394.4,385.6c0,0,11.3-3.3,18.6,12.5
			c8,17.4,12.5,35.1,11.3,56.6c4,1.9,10.9,1.3,10.9,1.3s5.9-79.5-4.2-98.9c-3.1-5.9-13.6-14.2-13.6-14.2l-37.8,14.8L394.4,385.6z"/>
		<path id="gi_top_rollover-front_1_" fill="#FCFCFC" stroke="#8C8C8C" stroke-width="3" d="M285.7,300.4c0,0,20,38,41.3,46.1
			c21.4,8.1,72.6,2.1,82.9-6c10.4-8.1,11.1-7,11.1-7l1.9,14.1c0,0-19.4,26.2-23,31.7c-5.8,10-16.5,31.4-18.4,42.1
			c-2.4,13.4-2.6,22.4-3.2,29.8c-2.6,1.6-7.3,3.1-11,3.5c-8.2,0.8-21,2.6-34.3,1.3c-13.3-1.3-36.6-9.1-51.5-17.5
			c-14.9-8.4-36.6-29.4-44-37.5c-6.5-7.1-19.5-23-19.5-27.5c3.9-5.2,18.3-16.9,25.9-27.8c6.8-9.7,12.6-17.5,17.5-23.6
			c6.1-7.8,21.7-29.1,21.7-29.1L285.7,300.4z"/>
	</g>
	<g id="upper_half">
		<path id="chest" fill="#F9C6A0" d="M346.2,187.6c0,0,40.9-21.5,48.4-35.5c7.5-14,18.3-44.7,18.3-44.7s-7-22.6-24.8-22.6
			c-17.8,0-57.1,48.4-57.1,48.4L346.2,187.6z"/>
		<path id="gi_top_1_" fill="#FCFCFC" stroke="#8C8C8C" stroke-width="3" d="M288.6,298.5c0,0,3.2,43.1,40.4,52.7
			c0,0,26.9,10.8,67.3-1.1c16.7-5.9,16.7-8.1,24.8-14c8.1-5.9,12.9-19.9,18.8-26.9c5.9-7,21-33.4,23.7-45.2
			c2.7-11.8,6.5-17.2,8.6-23.7c3.8-7.5,4.8-26.9,4.8-42.5s-4.8-38.8-10.8-54.4c-5.4-14-22.6-33.4-38.8-32.3
			c3.4,5.1-22.3-33-33.4-25.8c8.1,7.5,23.1,23.7-0.5,52.2c-16.7,18.8-24.8,29.1-43.6,40.9c-4.3-15.6-2.7-30.7,0.5-33.9
			c-10.2-7-15.1-12.9-19.9-16.7c-8.6,10.8-26.4,50.1-25.3,61.4c1.1,11.3,1.1,44.1,1.1,44.1s-12.9,16.1-13.5,26.4
			c-0.5,10.2-1.1,23.7-2.2,29.6C289.7,295.3,288.6,298.5,288.6,298.5z"/>
		<path fill="#F9C6A0" stroke="#704425" stroke-width="2" d="M305.8,265.7c-6.5-3.8-24.8-13.4-34.5-14.4c-5.9-6.2-6.7-6.7-10.7-14.1
			c-0.5-8.1-0.6-12.6,1.1-14c2-1.8,9.3-5,12-5c1.8,5.3,7.4,14.2,16.5,11c1.4-0.5,0-6.8,1.1-7c6.1-1.1,10.5,7.9,11.8,9.7
			c1.6,2.2,7.5,8.1,9.2,7.5C313.9,238.8,305.8,265.7,305.8,265.7z"/>
		<path id="wrinkle_1" fill="none" stroke="#8C8C8C" stroke-width="3" d="M346.7,322.2c-12.4,14.5-24.2,13.5-24.2,13.5
			s35,6.5,42.5-10.8"/>
		<path id="lil_wrinkle" fill="none" stroke="#8C8C8C" stroke-width="3" d="M368.2,347c0,0,8.6,1.1,17.8-6.5"/>
		<path id="arm_wrinkle" fill="#FCFCFC" stroke="#8C8C8C" stroke-width="3" d="M468.3,241.6c-5.9-1.1-39.8,24.6-37.6,32.1
			c2.2,7.5-8.1,22.6-10.2,20.5c-2.2-2.2-15.6-1.1-25.3,1.1c-9.7,2.2-10.2,7-30.1,10.8c-19.9,3.8-21.5-1.6-30.7-2.2
			c-9.1-0.5-19.9,2.7-25.8,1.1c-5.9-1.6-15.1-6.5-16.1-30.7c-1.1-24.2,17.8-40.4,17.8-40.4s22.6,1.6,29.1-0.5
			c6.5-2.2,17.2-4.8,26.9-9.7c9.7-4.8,15.6-7,17.8-8.1c2.2-1.1,7.5-19.9,18.8-22.6c11.3-2.7,33.4-25.8,36.6-36.6"/>
		<path id="elbow_wrinkle" fill="none" stroke="#8C8C8C" stroke-width="3" d="M403.2,226.4c-2.2-11.3-22.6-9.1-22.6-9.1
			s-10.8,5.9-4.8,15.6c-3.2,10.2-7.7,11.9-14.5,16.7c-9.2,6.5-12.4,25.3,7,13.5"/>
		<path id="forearm_wrinkle" fill="none" stroke="#8C8C8C" stroke-width="3" d="M355.3,228.6c0,0-11.3,16.1-25.8,22.1"/>
		<path id="shoulder_wrinkle" fill="none" stroke="#8C8C8C" stroke-width="3" d="M421.5,149.4c-13.5,7-17.8,42-17.8,42
			s-5.9-39.8,18.8-58.7"/>
		<path id="right_lapel" fill="none" stroke="#8C8C8C" stroke-width="3" d="M339.7,137.6c0,0-17.2,21-16.1,48.4"/>
		<path id="armpit_wrinkle" fill="none" stroke="#8C8C8C" stroke-width="3" d="M448.4,271.1c0,0,5.4-22.1,20.5-30.1"/>
		<path id="elbow_wrinkle_2" fill="none" stroke="#8C8C8C" stroke-width="3" d="M420.3,293.9c0,0-7.9-7.8-47.7,3"/>
		<path id="left_lapel" fill="none" stroke="#8C8C8C" stroke-width="3" d="M350.5,193c24.2-7,46.3-30.1,54.9-49s20.5-32.8,20.5-32.8
			"/>
		<path fill="#F9C6A0" stroke="#704425" stroke-width="3" d="M403.8,104.5"/>
		<path fill="#F9C6A0" stroke="#704425" stroke-width="3" d="M370.8,130c-1,4.5-18.7,20.6-23.9,18c-11.3-5-18.3-19.1-18.8-20.2
			c-1.6,1.3-5.5,2.6-7.1-1c-2.6-5,1-14.4-5.2-17.8c-6.3-3.4-5.6-7-9.4-20.5C302,72.5,311,51.6,317,44.5c6.5-7.6,19.4-13.5,30.9-14.7
			c10.2-1,19.9,1.1,27.8,5.3c7.9,4.2,13.5,9.4,19.4,23c3.7,8.6,2.3,27.8,2,31.5c-0.5,9.2,5.8,13.5,6.4,15.2"/>
		<path fill="#3D1A03" stroke="#190D06" stroke-width="3" d="M397.1,89.6c0.2-3.6,1.6-22.8-2-31.5c-5.8-13.7-11.5-18.8-19.4-23
			c-7.9-4.2-17.6-6.3-27.8-5.3c-11.5,1.2-24.5,7.1-30.9,14.7c-6,7.1-15,28-10.6,43.9c0,0,2.5,4.3,8.6,2.7c6.1-1.7,16.3-9.4,23.2-8.6
			c2.5,8.8,16.6,7.2,18.2,12.4c1.9,6.1,8.6,1.5,8.6,1.5s-0.9-4.3,2.2-8.5c3-4.1,6.6-4.7,8.3-0.6c1.7,4.1,2.8,6.6,2.8,9.4
			c0,2.8,0.6,11.3-4.4,10.5c3.3,1.7,9.4,2.2,12.2,1.1c2.5,0,6.1-3.1,8.8-5.8c1.4-2.5,1.9-5.5,1.9-5.5L397.1,89.6z"/>
		<path fill="#F9C6A0" stroke="#704425" stroke-width="2" d="M266.1,221.1c-1.5,4.7-0.3,13.8-0.3,13.8l5.6,7.6"/>
		<path fill="#F9C6A0" stroke="#704425" stroke-width="2" d="M269.9,219.2c0,0,0.3,12.7,1.2,14.2c0.9,1.5,5,7.3,6.2,8.5"/>
	</g>
	<g id="blackbelt">
		<path fill="#404040" stroke="#252525" d="M277.8,308.1c0,0-1.3-6.1,0-9.1c1.3-3,5.1-10.4,9.8-12.5c4.4,7.3,11.8,24.2,16.2,28.3
			c5.7,5.4,14.2,18.9,16.5,18.5c2.4-0.3,7.4-2.7,14.2,3c6.7,5.7,5.4,9.4,6.4,9.8c1,0.3,18.5,1.7,29.7-0.3c11.1-2,28.3-0.7,38.8-6.7
			c10.4-6.1,15.8-10.1,18.2-12.8c2.4-2.7,3.4,5.7,3.4,9.4c0,3.7,0,8.4-4.4,14.2c-6.7,4-20.2,11.1-27.6,13.8
			c-9.1,3.3-24.9,6.4-37.1,6.4c-12.1,0-23.6,1-31.7,0c-4,3.7-10.8,5.4-17.9,2.7c-5.8-2.2-12.1-12.1-12.1-18.2s0.7-7.1-2-10.1
			s-7.4-11.5-10.8-17.2C283.9,321.6,280.1,315.5,277.8,308.1z"/>
		<path fill="#404040" stroke="#252525" d="M327.7,362.7c0,0,0,51.2-8.1,77.2c-4.8,15.4-13.8,46.9-19.2,60.7
			c5.7,8.4,16.9,8.8,16.9,8.8s14.5-49.1,18.9-69.4c3.7-17.2,4.7-64.7,2.7-77.2c-0.5-7.5-2.4-17.6-2.4-17.6L327.7,362.7z"/>
		<path fill="#404040" stroke="#252525" d="M312.7,360.3c0,0-6.5,4.7-10.8,0.9c-4.3-3.8-1.8-7.4-1.8-7.4l6-6.3c0,0,2.4,6.1,12.2-1.1
			c9.8-7.2,3.2,1.4,3.2,1.4L312.7,360.3z"/>
		<path fill="#404040" stroke="#252525" d="M304.8,350.2c-2,4.3-11.9,44.4-16.9,71.1c-2.9,15.8-10.5,43.1-11.5,62
			c-4.4,9.1-17.9,7.1-17.9,7.1s7.9-48.6,15.5-75.5c4.8-16.9,23.7-64.5,27-68.8c6.4-8.4,13.7-8.9,19.4-8.8
			C320.4,337.4,308.9,341.2,304.8,350.2z"/>
		<path fill="#404040" stroke="#252525" d="M333.4,357.9c-5.1,3.7-6.6,14.6-6.6,14.6s-6.6,3.7-15.2,1.8c-8.6-1.9,1.4-21.3,4.8-25.3
			c4.6-5.3,14.7-12.6,19.4-11.7c4.4,4.7,5.7,10.9,5.6,16.8C338.6,355.3,336.2,355.9,333.4,357.9z"/>
		<path fill="#404040" stroke="#252525" d="M321.9,343.3c0,0-5.1-7.7-11.2-4.6c1.3-1.8,5.2-7.9,15.7-6"/>
	</g>
	<g id="Uke_arm">
		<path fill="#FFD4AE" stroke="#7F4E29" stroke-width="2" d="M365.1,169.7c0,0,5.3-8.6,6.3-11.9c1-3.3,14.2-14.9,15.5-15.8
			c1.3-1,20.8-0.7,22.1-0.7c1.3,0,4.3,5,5.3,11.6c0.7,4.6,4,26.7-8.9,29c-4.6,1-5.3,4.6-5.3,4.6s-3.6,8.3-11.9,9.2
			c-8.3,1-11.2,2.3-13.2,6.9C373.1,207.3,365.1,169.7,365.1,169.7z"/>
		<path id="gi_top_2_" fill="#2937B7" stroke="#151E56" stroke-width="3" d="M288.9,187.5c13.9-3.5,42.6-10.3,53.5-14.8
			c11-4.5,22.7-7.1,24.7-9.3c1.9-2.3,4.4,39.6,15.3,46.4c4.8,10-30.6,21.9-37.7,22.9c-7.1,1-24.4,2.4-38.1,5.5"/>
		<path fill="none" stroke="#7F4E29" stroke-width="2" d="M399.6,171.1c0,0,13.3-2.2,12.7,0.8c-0.6,3,0,4.7,0,4.7"/>
		<path fill="none" stroke="#7F4E29" stroke-width="2" d="M394.4,161.4c0,0,16.3-4.1,17.4,0c1.1,4.1,3.6,3,3.6,3"/>
		<path fill="none" stroke="#7F4E29" stroke-width="2" d="M395.7,153.4c0,0,14.1-5.5,16-1.1c1.9,4.4,2.8,5.8,2.8,5.8"/>
	</g>
</g>
</svg>
