<?xml version="1.0" encoding="utf-8"?>
<!-- Generator: Adobe Illustrator 18.1.1, SVG Export Plug-In . SVG Version: 6.00 Build 0)  -->
<svg version="1.1" xmlns="http://www.w3.org/2000/svg" xmlns:xlink="http://www.w3.org/1999/xlink" x="0px" y="0px"
	 viewBox="0 0 320 580" enable-background="new 0 0 320 580" xml:space="preserve">
<g id="Tori_x005F_lowerhalf">
	<g id="skin_1_">
		<path fill="#F9C6A0" stroke="#704425" stroke-width="2" d="M211.9,506.7c0,0,9.9,15.8,16.3,19.6c4.4,2.6,8.6,7.3,9.3,11.4
			c0.5,2.5-0.5,10.1-7.7,11.7c-9,2-9.9,9.1-14.5,14.1c-4,4.4-8.2,5.3-9.9,6.4c-1.4,1-8.8,5.3-16.1,5.7c-7.3,0.4-13.2,0-14.8-1.3
			c-1.6-1.3-5.3,2.4-8.1-1.5c-2.7-3.8,2.2-7.3,4-8.4c1.8-1.1,11.7-14.1,14.3-15.6c2.6-1.5,9.7-5.9,9.7-8.8c0-2.9,2.7-17.2-1.5-20.7
			L211.9,506.7z"/>
		<path fill="#F9C6A0" stroke="#704425" stroke-width="2" d="M111.1,441.9c0,0-5.8,4.4-6.8,6.6c-1.1,2.1-1.5,6.8,1.8,8
			c3.3,1.2,13.2-1.4,16.3-3.4c3-2-8.1-14.6-8.1-14.6L111.1,441.9z"/>
	</g>
	<g id="Gi_bottom">
		<path fill="#FCFCFC" stroke="#8C8C8C" stroke-width="3" d="M216,512.5c0,0-18.5,9.5-22.5,12.5s-28.5,10.5-37,10s-11-16-13.5-21.5
			S119.5,450,116.5,447s-2-12-4.5-12s-3.5,3-6-1.5S90.5,396,84,372s-4-22-3.5-25s14-37,16.5-40s17.5-30.5,21-31s42-7.5,46-11.5
			s9.5,18.5,40.5,22c0,0,5,7.5,2,18.5S193,341,185,342s-7-2-7-2s-1,35-11.5,51c0,0-3.5,4-0.5,7s-0.5,7,2.5,11s2,12,3.5,14
			s8.5,7.5,9,13s33,71.5,35.5,72s3.5,4.5,0,6"/>
		<path fill="none" stroke="#8C8C8C" stroke-width="3" d="M118,331c0,0-13,68-10.5,82s4.5,22,4.5,22"/>
		<path fill="none" stroke="#8C8C8C" stroke-width="2" d="M109.5,299c-4,10.5-6,27-6.5,39s11,14,11,14"/>
		<path fill="none" stroke="#8C8C8C" stroke-width="2" d="M111,376c0,0-2-10-7.5-12.5c-3.7-1.7-16-11.5-12-22s4.5-14.5,4.5-17"/>
		<path fill="none" stroke="#8C8C8C" stroke-width="2" d="M109.5,380.5c0,0-5.5,2.5-12.5-11.5"/>
		<path fill="none" stroke="#8C8C8C" stroke-width="2" d="M126,426.5c0,0,6.5,7.5,14.5,7s13.5,2.5,19.5,6"/>
		<path fill="none" stroke="#8C8C8C" stroke-width="2" d="M205.5,513c0,0-18.5,5-24,2.5s-26-11.5-31-11.5"/>
		<path fill="none" stroke="#8C8C8C" stroke-width="2" d="M207,507c0,0-9,2-15-1s-26-20.5-32.5-25s-16-14.5-30-30"/>
		<path fill="none" stroke="#8C8C8C" stroke-width="2" d="M201,493.5c0,0-15-1-25.5-17.5"/>
		<path fill="none" stroke="#8C8C8C" stroke-width="2" d="M149,407c0,0,12.5-2,18.5-18.5"/>
		<path fill="none" stroke="#8C8C8C" stroke-width="2" d="M156.5,418c0,0,0.5-11.5,6-15"/>
		<path fill="none" stroke="#8C8C8C" stroke-width="2" d="M176.5,340.5c-3-1-8,0-7.5-6.5s3.5-13,1-26.5s-7.5-17-7.5-25"/>
		<path fill="#FCFCFC" stroke="#8C8C8C" stroke-width="3" d="M166.5,297c-4,12-17.5,38-24.5,35.5c-29,1-51.5-7-57-14.5
			c-3.5-3,20.5-35.5,20.5-35.5l19.5-8"/>
	</g>
</g>
<g id="Uke">
	<g id="skin">
		<path fill="#FFD4AE" stroke="#7F4E29" stroke-width="2" d="M206.5,291.8c-1.5-4.8-2.3-6.8-2.3-6.8s32.1-30.9,32.1-32.5
			c0-1.7,6.4,30.3,11.7,35.5c5.4,5.2,17.9,17.1,23.1,18.7c2.3,0,2.5-0.8,3.5-2.6c0.7-1.3,3.1-4.4,6.6-3.4c3.4,1,6.8,7,6.9,7.2
			c1,3.8,2.5,9.5,2.5,9.5s9.1,1,11.2,1.5c1.8,0.4,8.6,0.6,10.4,1.5c1.8,0.8,3.7,6.4-0.3,7.5c-4,1.2-3.7,6.5-6.2,8.4
			c-2.5,1.8-6.7,8.4-11.9,8.5c-5.2,0.2-14.7-3.5-16.7-3.7c-2-0.2-20.9,4.4-24.7,7.4c-3.9,3-8.3,7.4-13.5,6.4
			c-5.2-1-11.9-4.3-12.2-13.5c-0.3-9.2-3.4-21-6.2-25.1c-3-4.4-9.6-10.8-13.6-12.5C207.2,301.1,207.8,295.9,206.5,291.8z"/>
		<path fill="#FFD4AE" stroke="#7F4E29" stroke-width="2" d="M176.1,142.5c0,0,8.4-3.7,9.5-5.8c1.1-2.1,2.3-13.4,5.6-14.4
			c3.3-0.9,11.8-1.4,13.1,0.3c1.3,1.7,2.2,6,1.5,7.7c-0.7,1.7,5.9,0.8,3.7,8.3c-1.5,2.7-3,7.7-9.4,8.7c-4.7,0.7-18.1,16.6-18.5,17.8
			C181.3,166.3,181.2,148.1,176.1,142.5z"/>
		<path fill="none" stroke="#7F4E29" stroke-width="2" d="M273,341.7c0,0,13.4-7.2,16.9-15.6c0.9-4.4,0.8-7.9,0.8-7.9"/>
		<path fill="none" stroke="#7F4E29" stroke-width="2" d="M272.5,306.9c0,0-11.3,11.3-18.2,11.3c-6.9,0-8.1-1.9-9.7-3.1
			c-0.6-2.4-10.9-10-13.4-11.9c-6.5-4.7-17.8-12.5-24.3-14.6"/>
		<path fill="#FFD4AE" stroke="#7F4E29" stroke-width="2" d="M119.8,55.8c0,0,2.5-2.5,1.9-7.3c0,0-3.9-20.1,0.6-28.4
			s11.8-14.1,20.9-14.9c9.1-0.8,25.1,0.2,32.8,7.7c7.7,7.5,7.9,13.7,7.7,16.4s1.5,15.3,1.5,16.5c0,2.1-1.9,4-2.3,5.9
			c0,0-0.6,6.7,0.6,10.6c1.6,4.8-1.6,4.7-2.6,4.7c-1,0-2.1,4.2-3.2,6.7c-1,2.5-3.1,4.4-3.5,6c-0.4,1.7-0.4,8.3-6.6,6.2
			c-2.9-1-4.6-3.3-9-4.3C154.2,80.5,119.8,55.8,119.8,55.8z"/>
		<path fill="#7F4E29" stroke="#5E371C" stroke-width="2" d="M119.8,55.8c0,0,2.5-2.5,1.9-7.3c0,0-3.9-20.1,0.6-28.4
			s12.2-14.1,21.2-15.5c9.1-1.5,24.3,0.7,32.4,7.6c8.8,7.6,7.8,17,7.8,17c0,0-7.8,0.7-11.6-2.2c-3.8-2.9,0,10.9-1.3,14
			c-1.3,3.1-4.9,11.5-3.8,13.3c1.1,1.8-4.7,1.6-4.7,1.6s-3.5-8.2-7.8-8.9c-4.4-0.7-10.2,3.8-9.3,6.9c0.9,3.1,3.5,5.8,2.7,7.5
			c-0.7,1.6-4.7,2.9-4.7,2.9L119.8,55.8z"/>
		<path fill="#FCFCFC" stroke="#8C8C8C" stroke-width="3" d="M204.5,286.5c0,0,5,7.5,2,18.5"/>
	</g>
	<g id="Gi_leg">
		<path id="gi_leg_1_" fill="#2937B7" stroke="#151E56" stroke-width="3" d="M238,255.5c0,0-22.8,33.4-37.4,33.9
			c-14.7,0.5-13.2,0.5-17.7-3c-4.6-3.5-13.2-17.7-17.2-18.7c-4-1-28.3,9.6-44,10.6s-24.8,11.1-37.4,11.1c-12.6,0-22.3-5.1-26.8-15.7
			s20.7-70.8,20.7-70.8l69.3,6.6l56.2,4c0,0,21.8,1.5,25.3,6.1c3.5,4.6,4.6,11.6,7.6,22.3C239.5,252.5,238,255.5,238,255.5z"/>
		<path id="leg_wrinkle_6_1_" fill="none" stroke="#151E56" stroke-width="2" d="M120.1,211c0,0-4.9-3.3-9.1-2
			c-4.2,1.3-7.8,7.1-9.1,7.6"/>
		
			<path id="leg_wrinkle_1_1_" fill="none" stroke="#151E56" stroke-width="3" stroke-linecap="round" stroke-linejoin="round" stroke-miterlimit="1" d="
			M69.5,240.3c0,0,4.6,33.9,10.1,35.9c0,0-10.6-7.6-13.7-15.2C65.9,261.1,74,263.6,69.5,240.3z"/>
		<path id="leg_wrinkle_2_1_" fill="none" stroke="#151E56" stroke-width="3" d="M81.6,239.8c0,0-3.5,14.7,2.5,24.8"/>
		<path id="leg_wrinkle_3_1_" fill="none" stroke="#151E56" stroke-width="3" d="M153.5,268.7c0,0-35.4-12.6-41.5-12.6"/>
		<path id="leg_wrinkle_4_1_" fill="none" stroke="#151E56" stroke-width="3" d="M151,248.4c3,8.6,16.7,16.2,16.7,16.2
			s21.3,0.5,28.3-4.6"/>
		<path id="leg_wrinkle_5_1_" fill="none" stroke="#151E56" stroke-width="2" d="M191.9,267.2c0,0,14.7-6.1,20.2-20.2"/>
		<path id="butt_wrinkle_1_" fill="none" stroke="#151E56" stroke-width="2" d="M63.9,270.7c0,0,4.6,7.6,7.1,8.6"/>
	</g>
	<g id="Gi_top_rollover">
		<path id="gi_top_rollover" fill="#2937B7" stroke="#151E56" stroke-width="3" d="M43.7,187.7c0,0-13.7,16.7-16.2,19.2
			c-2.5,2.5,0.5,4-1,8.6c-1.5,4.6-8.1,32.9-10.6,38.5c-2.5,5.6-6.6,15.7-6.1,17.7c0.5,2,5.1,4,20.7,7.1c15.7,3,24.3,3.5,26.3,1.5
			c0,0,12.7-23.8,14.7-35.4c2-11.6,5.6-12.1,5.6-16.2c0-4,6.6-18.2,14.2-17.7c3.8,0.3,6.1,5.9,10.6,5.6c4-6.1,11.1-6.6,13.2-6.1
			c4,1,23.3,1.5,22.8-1.5c-0.5-3-17.2-26.8-17.2-26.8s-11.7,15.7-16.2,18.7c-4.6,3-12.1,4.6-16.7,2.5
			C83.2,201.4,43.7,187.7,43.7,187.7z"/>
		<path id="rollover_wrinkle_1_1_" fill="none" stroke="#151E56" stroke-width="3" d="M100.4,211c0,0,12.6-8.6,15.2-13.7"/>
		<path id="rollover_wrinkle_2_1_" fill="none" stroke="#151E56" stroke-width="3" d="M131.7,206.9c0,0-9.6-4.6-14.7-2.5"/>
		<path id="rollover_wrinkle_3_1_" fill="none" stroke="#151E56" stroke-width="2" d="M66.5,226.7c0,0-2,11.1-9.1,12.1
			c-7.1,1-21.3,3.5-24.8,7.6"/>
		<path id="rollover_wrinkle_4_1_" fill="none" stroke="#151E56" stroke-width="2" d="M48.7,203.9c5.1,4.6,23.8,9.6,23.8,9.6
			s-5.6,12.6-18.7,12.6"/>
	</g>
	<g id="Gi_top">
		<path fill="#2937B7" stroke="#151E56" stroke-width="3" d="M118.2,54.1c0,0,16.1,1.3,29.1,14c13.8,15.6,22.8,19.2,23.1,23.1
			c0.3,3.9,0.8,8.3-0.3,11.7c-1,3.4-8.3,20-8.3,20l4.2,18.4c0,0,10.1-1.6,12.2,1.6c2.1,3.1,6,20.5,3.4,23.9
			c-2.6,3.4-0.8,15.6-9.3,16.9c-15.9,2.4-19.2,2.1-29.1,2.6c-4.7,0.2-19.6,2.8-24.1,2.6c-6.7-0.3-7.5,2.6-11.4,6.5
			c-3.3,3.3-9.9,0-13.5-0.3c-3.6-0.3-23.6-0.5-23.6-0.5l-29.3-13.2c0,0,1.3,0.5-0.8-2.9c-2.1-3.4-6-4.7-3.1-11.2
			c2.9-6.5,12.2-27.5,18.7-32.7c6.5-5.2,14.5-26.2,16.4-31.9c1.8-5.7,8.3-21,21-31.1C106,61.4,109.9,59,115.6,58
			C117.7,56.7,118.2,54.1,118.2,54.1z"/>
		<path fill="none" stroke="#151E56" stroke-width="2" d="M80.6,193.2c0,0,4.9-11.9-0.3-21"/>
		<path fill="none" stroke="#151E56" stroke-width="2" d="M101.6,96.9c-1.3,2.1-3.6,7.8-8.6,11.7c-4.9,3.9-3.9,11.2-3.9,11.2
			s0,7-0.5,10.1c-0.5,3.1,1.8,21,1,24.9c-0.8,3.9-0.5,22.3,0.8,25.2c1.3,2.9,4.8,5.5,9.1,7.3c4.4,1.8,15.1,1.8,19.7,2.1"/>
		<path fill="none" stroke="#151E56" stroke-width="2" d="M91.7,194.5c0,0,5.2-6.7,21.8-5.7"/>
		<path fill="none" stroke="#151E56" stroke-width="2" d="M112,190.6c0,0-3.1,4.4-5.2,4.9"/>
		<path fill="none" stroke="#151E56" stroke-width="2" d="M79.8,188.8c0,0-1-5.7-14.8-7.3c-12.5-1.4-13.8-3.9-17.6-7.5"/>
		<path fill="none" stroke="#151E56" stroke-width="2" d="M79.5,191.9c0,0,4.4-10.9-11.4-17.9c-8.3-3.4-6.7-6.2-6.7-6.2"/>
		<path fill="none" stroke="#151E56" stroke-width="2" d="M114,149.9c0,0,1.2-10.8,7.3-11.9c10.1-1.8,12.5-5.2,15.1-6.5
			c2.6-1.3,11.9,2.1,7.5,9.6c-4.4,7.5-13.8,13.8-12.5,21.5"/>
		<path fill="none" stroke="#151E56" stroke-width="2" d="M158.4,91.5c0,0,1.6-3.1-3.4-7.8c-4.9-4.7-9.6-9.6-9.6-9.6"/>
		<path fill="none" stroke="#151E56" stroke-width="2" d="M115.9,59c0,0,12.7,6,20,11.2c4.9,3.5,16.9,13.5,21.8,22.8"/>
		<path fill="none" stroke="#151E56" stroke-width="2" d="M154.8,100.6c1,10.4-4.9,15.1-4.9,15.1s6-2.9,8.3,1.3"/>
		<path fill="none" stroke="#151E56" stroke-width="2" d="M161,124.2c0,0-3.4,11.4-7,12.7c3.4-2.3,9.9-3.9,10.4,0.3
			c0.5,2.9-0.8,5.5-0.8,5.5s4.9-4.4,10.4-1.8"/>
		<path fill="none" stroke="#151E56" d="M140.5,89.1c0,0-15.8,5.4-18.7,11.7c-2.9,6.2,0-7.3,5.5-9.6"/>
		<path fill="none" stroke="#151E56" d="M145.2,102.1c0,0-26.7,23.1-18.9,21.8c7.8-1.3,12.5-7,21.3-5.5"/>
		<path fill="none" stroke="#151E56" d="M120.8,178.2c0,0,11.9-8.3,27.5-6.2c15.6,2.1,18.9,0,21.3-3.1c-2.3,11.2-29.8,7.3-32.4,12.5
			"/>
	</g>
	<g id="Greybelt">
		<path fill="#EDEEF4" stroke="#595959" stroke-width="2" stroke-linejoin="bevel" d="M107.3,199.1c0,0-55-13.5-67.6-20
			c0,0-2,3.5-2.5,6.6c-0.5,3-1.5,6.6,0.5,7.1c2,0.5,42.5,16.2,57.2,15.7L107.3,199.1z"/>
		<path fill="#2937B7" stroke="#151E56" stroke-width="3" d="M90.3,211.2c0,0,11.8-6.8,18.3-14.4"/>
	</g>
</g>
<g id="Tori_x005F_upper_half">
	<g id="skin_x002F_hair">
		<path fill="#F9C6A0" stroke="#704425" stroke-width="2" d="M166.2,126.3c-2.7,3.4-5,4.9-7,5.7c0,0,5.6-17-5.8-17.5
			c-0.6-6.1,2.3-14,2.4-15.6c0.1-2.1,2.1-8.2,5.5-6.1c1.2,0.7-2.7,8.4,2.7,10.6c3.2,1.3,5.7-0.9,6.4-1.8c0.8-1,1.5-3.6,1-5.7
			c2.6,1.4,5.6,6.3,4.6,10.6c-0.8,3.3-1.9,5.2-2.9,6.9c-0.7,1.3-1.7,3-3.5,4.6C167.3,119.4,167.9,124.2,166.2,126.3z"/>
		<path fill="#F9C6A0" stroke="#704425" stroke-width="2" d="M276.2,123.1c-5-5.6-1-12.8,1.6-16.2c3.5-4.6,13.1-4,19.6-13.5
			c3.1-4.5,6.6-20.5,2.9-29.3c-3.6-8.5-8.3-14.3-19.7-17.8c-14.1-4.3-22.1,1.6-24.5,3.7c-1.7,1.5-7.2,7.1-9.3,9.1
			c-1.8,1.8-0.3,4.8-2.9,7.7c-5.8,6.5-10.4,5-10.7,8.7c0.6,2.2,2.1,3,2.1,4c0,1-4.6,7.1-6.3,8c-1.6,1-4,4.7-3,7.4
			c1.1,3,6.7,8.2,8.8,9.6c2.1,1.4,2.2,7.4,1.3,9.8c-1,2.4-10.4,9.5-10.4,9.5L276.2,123.1"/>
		<path fill="none" stroke="#704425" stroke-width="2" stroke-linecap="round" d="M234,104.1c0,0,7.7,5.9,18.6,5.4"/>
		<path fill="#1C120A" stroke="#382010" stroke-width="2" d="M256,50c-3.3-3.2,11.1-9.4,25.2-5.1c11.4,3.5,17,10.5,20.6,19
			c3.7,8.8,2.1,20.9-3.7,30c-6.2,9.6-16.2,9-19.7,13.6c0,0-2.4-5.1-0.2-5.9c2.2-0.8,5.9-1.9,6.7-5c0.8-3,2.1-7.9-0.6-8.8
			c-2.7-1-9.5-0.2-10.4,0.5c-1,0.6-6.1,1-7.4,1.3c-1.3,0.3-3.5-2.9-3-3.4c0.5-0.5,3.7-5.8,3.5-8.2c-0.2-2.4-2.4-9.3-3.8-9.8
			c-1.4-0.5,1.9-7.4,1-8.8C263,58,262.7,50.8,256,50z"/>
	</g>
	<g id="Gi_top_1_">
		<path fill="#FCFCFC" stroke="#8C8C8C" stroke-width="3" d="M123.5,189c0,0,16.1,26.6,24.6,30.6c8.5,4,19.3,1.3,27.8,0
			c8.5-1.3,12.5-2,18.6-3.3c6-1.3,13.4-2.3,18.1-3.3c8.8-1.8,14.1,2.1,17.3,4c3.3,2,4.5,8.5,7.3,16.1c4-3,21.1-17.1,24.3-22.3
			c3.3-5.3,14.3-19.3,15.5-25.1c1.3-5.8,2.5-16.8,1.3-27.3c-1.3-10.5,0.5-19.3,1.3-22.1c0.8-2.8,1.5-5,1-7.5
			c-0.5-2.5-3.5-6.8-12.8-9c-9.3-2.3-16.1-0.5-24.3,1.3c-8.3,1.8-23.3,4-28.1,6c-4.8,2-6,4.5-6,4.5s4,1,2.8,4.3
			c-1.3,3.3-8.3,10.3-11.3,11.8c-3,1.5-17.8,11.8-17.8,13.3s-2.5,19.6-4.8,20.8c-2.2,1.2-22.7,5-22.8,5c-10.3,0.8-11-0.5-15.6,0.8
			C135.3,188.8,123.5,189,123.5,189z"/>
		<path fill="none" stroke="#8C8C8C" stroke-width="3" d="M215,212.6c0,0,8.8-0.5,14.5-1.5c5.8-1,7-7.5,7-9s9.8-14,13.3-16.3
			c3.5-2.3,4.8-8.3,5.5-11"/>
		<path fill="none" stroke="#8C8C8C" stroke-width="2" d="M241.9,184.2c0,0-1.3,4.3-21.8,4.3c-23.3,0-34.4-0.2-43.6,1.8
			c-9.3,2-21.3,5.8-27.6,10.3"/>
		<path fill="none" stroke="#8C8C8C" stroke-width="2" d="M189.5,207.6c0,0,16.6-4.8,22.1-3.8c5.5,1,10-3.8,10.8-5.3
			c0.8-1.5,11-9.3,17.1-9"/>
		<path fill="none" stroke="#8C8C8C" d="M251.4,195.5c0,0,5.5-9,9.8-11.3c4.3-2.3,7.8-8,8.5-17.3"/>
		<path fill="none" stroke="#8C8C8C" stroke-width="2" d="M233.1,222.6c0,0,3.3-8.3,11-11c7.8-2.8,15-9.8,18.1-15.8"/>
		<path fill="none" stroke="#8C8C8C" stroke-width="2" d="M209.5,139.8c0,0,2-4.3,7.8-3.5c5.8,0.8,8.5-3,9.8-4.5
			c1.3-1.5,3.8-4.5,10-3.8"/>
		<path fill="none" stroke="#8C8C8C" d="M216.6,130.1c0,0,6.8,3.8,9.3,2"/>
		<path fill="#FCFCFC" stroke="#8C8C8C" stroke-width="3" stroke-linecap="round" d="M149,116.4c0,0,8.2-2.4,9.9,2
			c1.6,4.4,0.9,13.6-3.3,17c6.4-3.5,10.1-0.9,8.2,4c-2.7,2-12.9,1.7-15.8,5.3c-2.2,2.7-2.6-2.4-1.8-4.4c0.7-2,2.6-8.2-3.5-10.6
			C150.1,121.2,149,116.4,149,116.4z"/>
	</g>
	<g id="uke_cover">
		<path display="none" fill="#2937B7" stroke="#151E56" stroke-width="3" d="M178.1,142.9c2.1,3.1,6,20.5,3.4,23.9
			c-2.6,3.4-0.8,15.6-9.3,16.9c-15.9,2.4-19.2,2.1-29.1,2.6c-4.7,0.2-19.6,2.8-24.1,2.6"/>
		<path fill="none" stroke="#151E56" d="M120.8,178.2c0,0,11.9-8.3,27.5-6.2c15.6,2.1,18.9,0,21.3-3.1c-2.3,11.2-29.8,7.3-32.4,12.5
			"/>
		<path fill="none" stroke="#151E56" stroke-width="3" d="M165.7,141.9c0,0-16.5,0.7-20.9,8.4"/>
		<line fill="none" stroke="#2937B7" stroke-width="4" stroke-linecap="round" x1="138.6" y1="152.9" x2="144.4" y2="145.7"/>
	</g>
</g>
</svg>
