<?xml version="1.0" encoding="utf-8"?>
<!-- Generator: Adobe Illustrator 18.1.1, SVG Export Plug-In . SVG Version: 6.00 Build 0)  -->
<svg version="1.1" xmlns="http://www.w3.org/2000/svg" xmlns:xlink="http://www.w3.org/1999/xlink" x="0px" y="0px"
	 viewBox="0 0 470 700" enable-background="new 0 0 470 700" xml:space="preserve">
<g id="Tori">
	<g id="feet">
		<path fill="#F9C6A0" stroke="#704425" stroke-width="2" d="M407.4,632.5c0,0,3.9,13,3.9,24.2s-5.3,15.2-1,22.7
			c3.4,5.8,8.2,1,11.1,3.4c2.9,2.4,5.8,7.2,13,7.2c7.2,0,15,0,18.8-1c3.9-1,5.3-7.7,0-13c-5.3-5.3-15.5-7.2-18.4-17.9
			c-2.9-10.6-2.4-20.8-0.5-29L407.4,632.5z"/>
		<path fill="#F9C6A0" stroke="#704425" stroke-width="2" d="M167.8,631.5c0,0,6.8,15.9,2.4,22.7c-4.3,6.8-15.9,12.6-24.1,14.5
			s-16,4.8-14,9.6c2.4,6,11.9,8.2,14.5,8.2c11.3,0,22.2-5.5,28-6.8c10.6-2.4,20.2,5.1,31.9-1.9c7.2-4.3,1.3-21-2.9-26.1
			c-4.3-5.3-3.4-20.8-1.9-24.2C203.1,624.3,167.8,631.5,167.8,631.5z"/>
		<path fill="#F9C6A0" stroke="#704425" d="M421.9,676.9c0,0-7.7-3.4-6.3-10.1"/>
		<path fill="#F9C6A0" stroke="#704425" d="M191.4,663.5c0,0,7.2-1,7.7-9.2"/>
	</g>
	<g id="pants_1_">
		<path fill="#FCFCFC" stroke="#8C8C8C" stroke-width="3" d="M140.6,635.2c0,0,26.5,9.1,45.2,1.3c15.9-6.6,17.8-11.3,17.8-11.3
			s0.9-17.4,0.9-21.7c0-4.3,0-47.8,3.5-52.2c3.5-4.3,15.2-24.8,16.5-37c1.3-11.7,9.1-13,13.5-15.2c4.3-2.2,13.5-29.1,22.2-30.4
			c8.7-1.3,42.7,4.9,48.7,13c4.8,6.5,23.5,33,26.5,43.9c3,10.9,9.6,13,12.6,13c3,0,14.3,6.5,16.5,10.4c2.2,3.9,9.1,2.2,9.6,4.8
			c0.4,2.6-2.2,24.8,1.3,29.1c3.5,4.3,2.2,14.8,4.3,18.3s13.5,27.4,13.5,34.4c0,7,43.5,7.4,49.1,3c5.7-4.3,2.2-28.7,0.4-35.2
			c-1.7-6.5-4.8-23.5-4.8-28.7c0-5.2-1.3-36.1-4.3-45.2c-3-9.1-20.9-36.5-24.4-43.5s-18.7-34.8-19.6-39.1
			c-0.9-4.3-11.7-12.2-17-20.9c-5.2-8.7-16.3-34.9-19.8-48c-3.5-13-116.5-3.7-123-18c-7.8,19.6-35.9,33.4-45.9,52.9
			c-10,19.6-33,53.9-40,73.1c-7,19.1-10,25.9-10.1,35c-0.3,18.4,2.3,45.4,3.6,57.1C139,591.6,140.6,616.9,140.6,635.2z"/>
		<path fill="none" stroke="#8C8C8C" stroke-width="3" d="M239.7,467.3c0,0-54.8,2.2-64.8,10.9"/>
		<path fill="none" stroke="#8C8C8C" stroke-width="2" d="M231.3,502.3c0,0-11.3,2-19.9-2.2c-11.3-5.5-14.9-0.7-18.7-0.7"/>
		<path fill="none" stroke="#8C8C8C" stroke-width="2" d="M225.8,503c0,0-3.6,10.4-41.5,11.7"/>
		<path fill="none" stroke="#8C8C8C" stroke-width="2" d="M164.5,512.1c9.6,26.5,37.4,34.2,39.1,33c1.7-1.1-5.1-9.3-1.1-17.8
			c3.9-8.5,24.5-24,24.5-24"/>
		<path fill="none" stroke="#8C8C8C" stroke-width="2" d="M201.9,563c0,0-6.1-8.7-31.7-10"/>
		<path fill="none" stroke="#8C8C8C" stroke-width="2" d="M196.3,555.3c0,0-14.3-10.3-33-9.7"/>
		<path fill="none" stroke="#8C8C8C" stroke-width="2" d="M194.7,614c0,0-10.3,11.7-19.3,11.7"/>
		<path fill="none" stroke="#8C8C8C" stroke-width="2" d="M362,508.7c0,0-24.7-13.3-28-3.7c-3.7,10.6,26.7,24.3,38.7,22.3"/>
		<path fill="none" stroke="#8C8C8C" stroke-width="2" d="M374.3,555.7c0,0,2.3-11.7-0.3-15.7"/>
		<path fill="none" stroke="#8C8C8C" stroke-width="2" d="M385.3,589.3c0,0,15.3-14.7,9.7-47.7"/>
		<path fill="none" stroke="#8C8C8C" stroke-width="2" d="M367.3,497.3c0,0-36.3-2.7-55.3-15.3"/>
		<path fill="none" stroke="#8C8C8C" stroke-width="2" d="M416,536.3c0,0,18.3,50.3,16.3,69.3"/>
		<path id="rollover" fill="#FCFCFC" stroke="#8C8C8C" stroke-width="3" d="M230.5,363.5c0,0-21,14-28,26.5
			c-6.4,11.4-15.1,30.6-16,38.5c3.4,3,33.7,25,58.7,28.4c25,3.4,82.3,4,110.1-8.2c-2.1-8.2-4.6-21.3-5.5-29c-0.9-7.6-0.3-11,3-27.4
			c2.7-13,0.2-18.2,0.2-18.2L230.5,363.5z"/>
	</g>
	<path fill="#F9C6A0" stroke="#704425" stroke-width="2" d="M309.4,252.6c0,0,10.1-19.8,15.3-19.8c0-1.7-33.2-35.1-33.2-35.1
		s-4.9,19,2.6,28.7C301.6,236.2,309.8,250.4,309.4,252.6z"/>
	<path id="jacket_1_" fill="#FCFCFC" stroke="#8C8C8C" stroke-width="3" d="M228.2,349.8c0,0-6.2-4.7-4-10.5
		c2.2-5.8,5.8-19.2,11.6-22.1c5.8-2.9,3.2-31,3.2-31L173,271c0,0-54,24.3-53-6.7c1-31,34-53.3,43-49.3s140,42.3,140,42.3
		s11.4-22.5,21.8-26.1c12.3-4.4,30.4-27.2,31.9-34.5c1.5-6.9,2.5-10.2,2.5-10.2l15.2,10.5l14.9,30.8l6.9,57l-3.1,8.8
		c0,0-5.6,16.2-7.8,24.2c-2.2,8-15.6,18.1-20.7,26.1c-5.1,8-4.4,8.3-4,11.3c0.4,2.9,0.6,9-1.5,11.2c-2.2,2.2-5.7,3-5.7,3l-8,1.5
		l-63.5-1.5l-35.6-10.9L228.2,349.8z"/>
	<path fill="#E6E6E6" stroke="#8C8C8C" stroke-width="3" d="M123.9,251.9c0,0,11.1-20.9,25.8-0.2c0,0-2.7,12.7-8.7,14.7
		S123.9,251.9,123.9,251.9z"/>
	<path fill="#D8A27D" stroke="#704425" stroke-width="2" d="M155.7,257.2c-8.9-10.2-8.6-9.3-10.9-10.9c-7.7-1-17.8-2.1-14.7,3.1
		c6,10,7.5,14.9,7.5,14.9L155.7,257.2z"/>
	<path fill="none" stroke="#8C8C8C" stroke-width="3" d="M123,252.3c0,0,12-21.3,26.7-0.7c0,0-2.7,12.7-8.7,14.7
		S123,252.3,123,252.3z"/>
	<g id="blackbelt">
		<path fill="#404040" stroke="#252525" d="M355.1,379.3c-1.9,1-34.2,8.8-82-0.5c-31.8-6.1-42.3-13.1-46.4-15.8
			c-2.7-1.5-1.7-15.3,0.7-14.1c2.4,1.2,28,13.9,46.9,17.7c19.4,3.9,68.2,4.8,79.1,1.4C356.8,368.4,357.1,378.4,355.1,379.3z"/>
		<path fill="#404040" stroke="#252525" d="M320.9,380.8c0,0,11.9,11.9,20.6,18.9c8.7,7,21.1,16.7,23,17.2c1.9,0.5-5.3,11.9-7,11.2
			c-1.7-0.7-29.1-18.9-32-25.5C322.6,396.1,320.9,380.8,320.9,380.8z"/>
		<path fill="#404040" stroke="#252525" d="M245.5,370c0,0-36.5,2.5-59,14.5c1-6,9-12,10.5-14c6.5-3.5,34-12,51-7l4,4L245.5,370z"/>
	</g>
</g>
<g id="Uke">
	<g id="skin_x002F_hair">
		<path fill="#FFD4AE" stroke="#7F4E29" stroke-width="2" d="M379.5,42.6c0,0,2.7-5.6,7.5-13.8c4.7-8.1,11-14.8,15.8-16.7
			c5-2,17.8-5,27.6-0.2c8.3,4,23,21,23,34.3c0,0,0.7,12.2-7.2,23.5c-5.4,10.8-5.6,10.2-8.4,9.3c-2.7-0.7-3.9,2.1-4.3,5
			c-0.5,3.8-0.7,10.8-3.2,9.7c-1.8,0-1.7-1.2-2.7-1.2c-1.2,0-2.6,0.6-3.8,1.9l-23-30L379.5,42.6z"/>
		<path fill="#FFD4AE" stroke="#7F4E29" stroke-width="2" d="M381.4,281c-2.3,9.7-0.5,10.1-1.4,12.7c-1.3,3.7,0.2,8.2-1.9,12
			c4.1-0.7,10-2,13.6-8.7c3.5-6.4,4.5-6.1,5.3-12.3C397.8,278.7,381.4,281,381.4,281z"/>
		<path fill="#7F4E29" stroke="#5E371C" stroke-width="2" d="M452.7,53.8c0.8-4.5,0.7-7.6,0.7-7.6c0-13.3-14.8-30.3-23-34.3
			c-9.7-4.7-22.6-1.8-27.6,0.2C398,14,391.7,20.6,387,28.8c-4.7,8.1-7.5,13.8-7.5,13.8l15.1,11.7L405,64.9c0,0-3.2-9.3,1.7-14.7
			c3.3-3.7,5.1-6.1,5.5-6.8c0.5-0.7,5.6-2.9,7.2,0.2c1.6,3.2,1.6,8.8-0.7,11.3c-2.3,2.5-3.8,4.7-3.8,4.7l3.8,5.2
			c0,0,4.7-5.9,8.4-4.5c3.6,1.4,8.6-1.1,11.1-3.4c2.5-2.3,4.7-8.6,6.8-8.6c2,0,5.4,1.4,6.3,2.7C452.2,52.5,451.9,58.2,452.7,53.8z"
			/>
		<path fill="#FFD4AE" stroke="#7F4E29" stroke-width="2" d="M62.7,399.7c0,0-7.3,25-15.3,37.6c-8,12.6-15.6,30-20.2,33.2
			c-3.7,2.5-16.3,5.8-11.9,22.9c2.6,10.1,0.6,18.9,2.6,23.8s8.8,14.4,12.9,17.1c4.1,2.7,14.1,2.4,16.3-0.5c2.6-2.4-1.2-8.7-1.5-12.7
			c-0.3-3.3,0-10.4,0.3-13.4c0.4-4.7,5.3-12.1,6.6-17c1-3.8,1-6.9,2.8-13c1.8-6.1,4.3-10.2,8.1-17.3c3.7-6.9,37.3-41.2,43.4-44.6
			L62.7,399.7z"/>
		<path fill="none" stroke="#7F4E29" d="M36.6,477.8c0,0,3.7-10.4,14.7-15.3"/>
		<path fill="#FFD4AE" stroke="#7F4E29" stroke-width="2" d="M261.7,479.2c0,0,7.7,20,3.9,36.3c-3.9,16.3-6.4,20.2-9.2,23.4
			c-2.8,3.2-9.8,10.7-6.9,19.3c4.3,12.4,17.2,11.6,21,23.4c2.4,7.5,5.4,14.4,9.9,18.9c4.5,4.5,25.3,12.5,30.1,10.7
			c3.8-1.4,4-4.7,3-8.9c-1.5-6.3-7.1-14.9-7.8-18.9c-0.5-3-7.3-26.7-9.7-31.4c-2.8-5.5,1.3-38.4,2.6-43.8c1.2-4.9,6-22.5,7.5-24
			C307.5,482.7,261.7,479.2,261.7,479.2z"/>
		<path fill="none" stroke="#7F4E29" d="M274.3,556.3c0,0,10.3,2.7,10.7-9.3"/>
	</g>
	<g id="pants">
		<path fill="#2937B7" stroke="#151E56" stroke-width="3" d="M59.3,404.9c0,0,7.7,11.6,22.7,15c15,3.4,28.8,0.1,34-3
			c5.2-3,18-27.1,23.5-32.2c5.6-5.2,11.6-17.6,15.5-19.7c3.9-2.1,13.7-15.9,15.5-20.6c1.7-4.7,15.3-15.9,19.3-20.6
			c4.9-5.6,13.7-25.8,16.7-30c3-4.3,2.9-6.1,8.2-6.9c9.3-1.3,13,10.9,16,12.2c3,1.3,23,18.7,21.8,28.6c-1.3,9.9-6.9,38.2-9.9,48.5
			c-3,10.3-1.3,30-3,41.6s-5.2,46.8-6.4,51.1c2.1,3.8,10.8,9.5,14.2,11.2c7.9,4.1,30.8,13.4,42.7,14.1c7,0.4,18.2,0.9,18.2,0.9
			s-1.3-8.6,2.6-16.3c3.9-7.7,3.4-24.5,3.4-30.9s2.1-23.2,8.2-30.5c6-7.3,11.6-39.5,10.3-46.8c-1.3-7.3,9.4-42.9,2.6-59.7
			c-6.9-16.7-21-21-18-28.8s1.3-13.3-2.1-17.6c-3.4-4.3-11.6-21.5-11.6-24c0-2.6-3.1-12.1-8.9-16.3c-6.5-4.7-2.9-38.5-2.9-38.5
			l-12.6-5.2l-106.5,39.4v-25.8l-0.9-14.2c0,0-17.6,10.3-17.6,21.9c0,11.6-3.3,14.2,1.9,22c5.2,7.7-7.3,28.3-7.3,28.3
			s-24,27.9-27.9,39.1c-3.9,11.2-27.9,39.1-33.9,53.2c-6,14.2-14.6,27-18.9,35.2C63.7,387.8,61.4,397.2,59.3,404.9z"/>
		<path fill="none" stroke="#151E56" stroke-width="2" d="M131,346.6c-0.7-17.2,20.3-88,20.3-88s-42.6,94.2-43.7,143.4"/>
		<path fill="none" stroke="#151E56" stroke-width="2" d="M100.1,414c-0.4-3.5-4.8-8.6,2.8-37.5"/>
		<path fill="none" stroke="#151E56" stroke-width="2" d="M189.5,276.2c0,0,10,9.3,23.7,10.3"/>
		<path fill="none" stroke="#151E56" stroke-width="2" d="M182.6,255.2c0,0,13,23,48.3,36.1"/>
		<path fill="none" stroke="#151E56" stroke-width="2" d="M302.3,478c0,0-20.3,6.5-32-21"/>
		<path fill="none" stroke="#151E56" stroke-width="2" d="M302.6,473.2c-6.2-1-20.3,6.5-32.7-60.5"/>
		<path fill="none" stroke="#151E56" stroke-width="2" stroke-linejoin="round" d="M259,269.3c17.1,26.7,58.9,22.9,58.9,22.9
			s-29.2,0-34.8-14.6"/>
		<path fill="none" stroke="#151E56" stroke-width="3" stroke-linejoin="round" d="M274.3,296c0,0-34,0-46.2-22.6"/>
		<path fill="none" stroke="#151E56" stroke-linejoin="round" d="M171.3,337.7c-1.3-1,7.3-41.3,16.3-48.3c9-7-8.3,18.3-3,32.7"/>
	</g>
	<g id="gi_rollover">
		<path fill="#2937B7" stroke="#151E56" stroke-width="3" d="M205.7,143.3c-3.3,1.1-15.6,2.2-17.7,5.2c-3.1,4.3-21.2,31.4-25.5,36.5
			c-4.3,5.1-9.8,13.9-10.1,23.3c-0.2,8.6-1.8,12.2,2.9,24c2.7-1.3,25.7-3.2,33,1.1c7.3,4.3,22.8,7.3,43.8,15.3
			c20.9,8.1,35.4,9.9,36.8,12.9c1.3,3-1.6-18.3-0.3-24.7c1.3-6.4,11.8-34.9,14.8-38.7c3-3.8,8.6-10.7,8.6-10.7s5.3-20,7.5-22.7
			c2.1-2.7-26.3-24.3-26.3-24.3l-63.1-3C210,137.5,209,142.2,205.7,143.3z"/>
		<path fill="none" stroke="#151E56" stroke-width="2" d="M241.4,212.4c6.2-11.5,50.8-38.1,50.8-38.1s-22.8,13.2-27.9,30.1"/>
		<path fill="none" stroke="#151E56" stroke-width="2" d="M290.6,189c0,0-7.3,20.7-7.5,29.8"/>
		<path fill="none" stroke="#151E56" stroke-width="2" d="M221.3,140.7c0,0-19.9,8.6-26.3,28.7"/>
		<path fill="none" stroke="#151E56" stroke-width="2" d="M233.4,140.2c0,0-16.6,0.8-21.5,18.3"/>
	</g>
	<g id="jacket">
		<path fill="#2937B7" stroke="#151E56" stroke-width="3" d="M209.8,132.6c0,0-3.4-7.4,0-11.5c3.4-4.1,8.8-4.7,12.5-8.8
			c3.7-4.1,24.4-24,27.4-32.1c3-8.1,24-29.4,31.5-34.2c7.4-4.7,23.3-6.1,35.2-5.1c11.8,1,19.2,1.9,30.4,2.7c11.3,0.7,17.7,1.6,21,0
			c2-0.9,5.8-2.9,11.5-3.4c5.2,1,27.1,25,30.8,32.5c3.7,7.4,15.2,18.3,19.3,35.2c4.1,16.9,4.7,43.6-1,63.6c-5.7,20-8.5,38.2-8.8,48
			c-0.2,5.7-2.4,54.1,0,66.6c-5.4,5.1-32.4,3.3-38.1-5.2c0,0,11.5-48.2-4.7-59.7c-2.4-7.1-0.9-20.6-22.6-28.7
			c2.4-5.4,12.5-22.1,8.5-35.3c-4.1-13.2-14.5-19.7-28.7-19.7c-19.3,0-28.4,13.7-31.1,20.1l-24.4-12.5l-12.2-7.1l-56.8-0.3
			L209.8,132.6z"/>
		<path fill="#213089" d="M370.4,200.1c0,0-3.1-6.6-3.1-9.8c0.1-3.1,3.5-5.4,4.4-9.1c0.9-3.8-1.9-5.4-1-9.4
			c1.2-5.1,7.8-13.4,8.2-17.8c1.2-15.4-3-50.4-3-50.4s-8.7,55.2-24,39.4C353,197,370.4,200.1,370.4,200.1z"/>
		<path fill="none" stroke="#253C9E" d="M376,103.6c0,0-8.7,55.2-24,39.4"/>
		<path fill="none" stroke="#151E56" stroke-width="3" stroke-linejoin="round" d="M376.9,113c1.7,5.7,2,32.1,2,37.2
			c0,5.1-1,9.8-5.7,15.6c-4.7,5.7-1.4,16.9-0.7,15.6c0,0-6.1,3.7-4.1,11.8c2,8.1,9.8,10.5,8.4,15.9"/>
		<path fill="none" stroke="#151E56" stroke-width="2" d="M365.4,136c3.4-1.4,13.5,10.8,13.5,10.8s1-18.3-11.9-23.7"/>
		<path fill="none" stroke="#151E56" stroke-width="2" d="M376.9,124.1c0,0-21.3-18.3-30.4-19.6c-8.4-1.2-3.1-11.2,5.7-5.1
			c9.8,6.8,12.2,11.5,12.2,11.5"/>
		<path fill="none" stroke="#151E56" stroke-width="2" stroke-linejoin="round" d="M401.9,213.1c0,0-14.5-22-25-20.3"/>
		<path fill="none" stroke="#151E56" stroke-width="2" stroke-linejoin="round" d="M376.9,113c0,0-3.7-36.9-19.3-44
			c-8.9-4.1-12.2-5.7-13.9-5.7"/>
		<path fill="none" stroke="#151E56" stroke-width="3" d="M364.2,45.1c0,0,14.4,4.2,27.3,23"/>
		<path fill="none" stroke="#151E56" stroke-width="2" d="M373,71.9c0,0,8.3-5.3,18.5-3.8c0,0,23.2,1.3,34.2,30"/>
		<path fill="none" stroke="#151E56" stroke-width="2" d="M230,116c0,0,14-3,19-8"/>
		<path fill="none" stroke="#151E56" stroke-width="2" d="M240,114c0,0,36,6,52-1"/>
		<path fill="none" stroke="#151E56" stroke-width="2" d="M253,116c0,0,22-3,28-17"/>
		<path fill="none" stroke="#151E56" stroke-width="2" d="M375,203c13,11,25,26,27,41"/>
	</g>
	<path id="greybelt" fill="#EDEEF4" stroke="#595959" stroke-width="3" d="M305,156c0,0-7-20-35.4-23.8c-20.2-2.7-24-2.2-31.4-1.9
		c-7.4,0.3-27,0.8-28.1,1.9c-3,1.4-8.5,6-9.8,9.6c6,0,27.8-1.4,34.9-0.8c6.9,0.5,23.8,1.1,32.2,3.3c14.6,3.8,28.6,16.4,30.2,24.1
		L305,156z"/>
</g>
<g id="Tori2">
	<g id="skin_x002F_hair_1_">
		<path fill="#F9C6A0" stroke="#704425" stroke-width="2" d="M119.9,281.1c0,0,5.5,5.3,9.8,7.4c4.4,2.2,9.6,6,14.4,3.9
			c4.7-2.2,8-2.8,10.2-4.3c2.2-1.5-0.3-8.1-3.5-12.1c-3.5-4.2-5.3-11.7-7.9-16.7c-0.9-1.7-4.8-11.3-9-13c-4.3-1.7-8.9,4.3-11.3,9.8
			C118.3,265.5,115.5,274.6,119.9,281.1z"/>
		<path fill="#F9C6A0" stroke="#704425" stroke-width="2" d="M261.9,296.1c0,0-20.3-2.2-26.9-8.1c-12.6-0.2,1.9,9.4-8,13
			c-9,0-8.7,23-1,26c13,5,23,5,33-2C254,317,259.9,302.1,261.9,296.1z"/>
	</g>
	<g id="gi_arm">
		<path fill="#FCFCFC" stroke="#8C8C8C" stroke-width="3" d="M256.6,295c0,0-5.9,23-1.8,35.6c0,0,2.2,18.5,5.8,18.8
			c3.7,0.3,24,6.7,33.9,7c9.9,0.3,29.9,1.2,35.7,0s16-2.4,23.7-7.3c7.7-4.9,11.6-8.9,16.2-13.5c4.6-4.6,8.9-6.3,9.5-8.8
			c0.6-2.5,8.1-7.9,3.8-25.8c-2.7-11.3-2.8-20.3-0.9-24.3c1.8-4,3.4-26.5,4.3-29.9c0.9-3.4-0.3-15.1-6.8-21.9
			c-3.4-6.8,0-22.5-20.3-30.8c-3.1,8-13.5,17.3-17.9,22.5c-4.2,5-12.9,12.5-17.8,15.1c-9.8,5.1-14.4,14.9-13.5,19.4
			c1.8,9.2,3.3,32.3,8.5,30.5c-7.7,5.8-7.4,11.7-7.4,11.7S281.2,298.7,256.6,295z"/>
		<path fill="none" stroke="#8C8C8C" stroke-width="2" d="M329.3,279.3c0,0,2.8-10.9,20.3-11.2"/>
		<path fill="none" stroke="#8C8C8C" stroke-width="2" d="M318.1,282.7c0,0,13.3-6.2,25.6-3.2c9.5,2.3,15.4,3.8,23.4,9.9"/>
		<path fill="none" stroke="#8C8C8C" stroke-width="2" d="M340.4,290.6c0,0-14.2-8.3-27.4,3.4c19.7-2.2,20.6,6.5,21.2,12.3"/>
		<path fill="none" stroke="#8C8C8C" stroke-width="2" d="M334.2,255.5c0,0,9.5-20.6,24.6-21.6"/>
		<path fill="none" stroke="#8C8C8C" stroke-width="2" d="M329.9,248.7c0,0,8.3-25.6,17.5-32"/>
		<path fill="none" stroke="#8C8C8C" d="M377.9,271.2c-4.3,0-8.9,6.2-8.9,6.2s5.8-2.8,8,1.2"/>
		<path fill="none" stroke="#8C8C8C" d="M361.9,265.6c2.2-2.2,10.5-0.3,11.7-0.9c1.2-0.6-1.8-5.2,4-8.9"/>
		<path fill="none" stroke="#8C8C8C" d="M342.2,347.5c0,0-40.3-5.8-60.3-17.2c-20.3-11.4,0.3,8.9,31.7,22.5"/>
	</g>
	<path fill="#F9C6A0" stroke="#704425" stroke-width="2" d="M303.5,231c0,0-8-2.4-10.6-11.3c-2.7-9.4-3.7-12.9-3.4-21.5
		c0.4-8.6,1.2-17.2,2-20.5c0.8-3.5,6.2-23.5,10-29.5c3.7-6,9.4-12,17.9-14.3c7.9-2.2,19.1-2.1,29.2,4.2c6.9,4.4,21.6,17.9,18.7,37.1
		c-2.6,16.8-14.2,27.8-20.1,34.2c-4.7,5-18.5,19.1-23.5,20.9C318.4,232.1,313.2,237.3,303.5,231z"/>
	<path fill="#1C120A" stroke="#382010" stroke-width="2" d="M347.1,209.3c5.2-7,17.5-17.4,20.1-34.2c3-19.2-11.7-32.7-18.7-37.1
		c-10.1-6.3-21.3-6.4-29.2-4.2c-8.5,2.4-14.2,8.3-17.9,14.3c-3.7,6-9.2,26-10,29.5c0,0,6-11.6,12.3-12.3c3.7,0.7,8.1,11.1,16.8,15.7
		c8.6,4.5,19,6,26.5,4.5c7.5-1.5,4.1,4.8,2.2,9C347.1,199.3,350.5,200.4,347.1,209.3z"/>
</g>
</svg>
