<?xml version="1.0" encoding="utf-8"?>
<!-- Generator: Adobe Illustrator 18.1.1, SVG Export Plug-In . SVG Version: 6.00 Build 0)  -->
<svg version="1.1" xmlns="http://www.w3.org/2000/svg" xmlns:xlink="http://www.w3.org/1999/xlink" x="0px" y="0px"
	 viewBox="0 0 390 720" enable-background="new 0 0 390 720" xml:space="preserve">
<g id="Tori">
	<g id="feet">
		<path fill="#F9C6A0" stroke="#704425" stroke-width="2" d="M319.9,634.7c0,0,3.1,11.4,5.7,14.5c2.6,3.1,4,6.2,4,12.8
			s0.9,22.9,2.6,26.8c1.8,4,0,12.8-6.6,16.7c-6.6,4-35.6,7.5-36.1,9.2c-0.4,1.8-22.4-1.3-16.7-8.8c5.7-7.5,17.6-23.3,16.7-30.4
			c-0.9-7,0.4-26.8-6.2-34.3c-6.6-7.5-14.5-28.6-14.5-28.6l42.2,0.4L319.9,634.7z"/>
		<path fill="#F9C6A0" stroke="#704425" stroke-width="2" d="M71.8,642.2c0,0-6.2,11.4-14.1,18c-7.9,6.6-19.4,11.9-23.3,12.3
			c-4,0.4-4.4,9.7,3.1,9.7c4,0,14.1,2.2,27.7,0.4c13.6-1.8,17.6-12.8,39.6-7c5.1,1.3,16.7-4.4,16.7-15.4c0-9.4-5.7-17-9.2-25.1
			c-3.1-7-1.8-16.7,2.2-29.9c4-13.2-49.3,11-49.3,11S74.9,635.6,71.8,642.2z"/>
	</g>
	<g id="pants_1_">
		<path fill="#FCFCFC" stroke="#8C8C8C" stroke-width="3" d="M47.6,646.6c0,0,10.2,15.2,35.5,1.7c11.8-7.6,18.2-6.8,22-7.2
			c3.8-0.4,14.4-9.7,14-19.5c-0.4-9.7-3.4-40.2,1.3-49.1c4.7-8.9,14.8-16.5,16.1-31.3c1.3-14.8,0.8-23.7,5.9-29.6
			c5.1-5.9,17.8-14.8,22.8-27.1c5.1-12.3,3.8-20.7,5.1-25c1.3-4.2,5.5-28.3,11-27.5c5.5,0.8,15.2,17.3,14.8,23.7
			c-0.4,6.3,15.2,32.2,24.5,36.4c9.3,4.2,7.6,9.7,8,11.8c0.4,2.1,2.5,11.8,5.1,14.8c2.5,3,9.3,14.8,11.4,22
			c2.1,7.2,3.8,16.5,7.2,23.7c3.4,7.2-0.8,10.2,1.3,16.1c2.1,5.9,7.2,25.4,11.4,31.3c4.2,5.9,4.2,13.5,4.2,18.2s-3.4,9.7,2.1,13.1
			c5.5,3.4,26.7,7.6,34.7,3.8c8-3.8,22-9.7,23.3-17.3c1.3-7.6-6.8-43.2-6.8-49.5s-1.3-25-0.4-36c0.8-11-35.5-163.7-35.5-163.7
			L246.4,364l-93.1,48.2l-58,51.2L45,475.7c0,0,0.8,24.1,1.7,32.2c0.8,8,5.1,45.7,1.7,56.7c-3.4,11-1.7,28.8-1.7,28.8
			S48.4,632.7,47.6,646.6z"/>
		<path fill="none" stroke="#8C8C8C" stroke-width="2" d="M288.3,535.6c0,0-16.5-21.4-21.4-34.8c-4.8-13.4-12.1-26.2-20.7-24.1"/>
		<path fill="none" stroke="#8C8C8C" stroke-width="2" d="M281.1,549.7c0,0-8.3-30-22.4-43.8"/>
		<path fill="none" stroke="#8C8C8C" stroke-width="2" d="M215.6,469.1c0,0,11.7,5.9,15.2,15.2"/>
		<path fill="none" stroke="#8C8C8C" stroke-width="2" d="M170.8,422.9c0,0-10,20-25.5,21.7"/>
		<path fill="none" stroke="#8C8C8C" stroke-width="2" d="M213.2,437.4c0,0,5.8-0.3,14-3.7c5.9-2.4,13-7.4,20.1-10.4"/>
		<path fill="none" stroke="#8C8C8C" stroke-width="2" d="M250.4,410.2c0,0-25.2-1-25.8,7.2"/>
		<path fill="none" stroke="#8C8C8C" stroke-width="2" d="M176.3,418.8c0,0,7.9,4.8,24.8,3.8"/>
		<path fill="none" stroke="#8C8C8C" stroke-width="2" d="M208.1,404.6c0,0,20-0.7,23.8-11"/>
		<path fill="none" stroke="#8C8C8C" d="M118.8,535.2c0,0,12.8-2.1,14.5-18.3"/>
		<path fill="none" stroke="#8C8C8C" d="M86.8,622.8c0,0,17.2,10,5.2,9.6c-12.1-0.3-18.6,1-21.7,4.1"/>
		<path fill="none" stroke="#8C8C8C" d="M112.6,618.6c0,0-4.1,10.3-25.8-0.7"/>
	</g>
	<g id="head">
		<path fill="#F9C6A0" stroke="#704425" stroke-width="2" d="M129.8,94.8c0,0,1.9-12.8-1.4-16.5c-3.3-3.7-10.3-16.7-9.3-28
			c1-11.3,5.3-23.8,11.5-30.7c7.4-8.2,26-15.3,40.2-12c17.7,4.1,27.2,11.3,31.7,21.2c4.7,10.3,0,23.9,0.2,29.5
			c0.2,5.6,0.6,11.3-1.4,17.5c-2.1,6.2-1,19.4-6.8,24.5c-3.3,2.9-2.4,2.5-25.8,36.3l-15-0.2L129.8,94.8z"/>
		<path fill="#F9C6A0" stroke="#704425" stroke-width="2" d="M178.5,108.5c0,0-16.5-4.8-24.5-11.3S142.8,86,142.8,84.8"/>
		<path fill="#1C120A" stroke="#382010" stroke-width="2" d="M202.5,28.8c-4.6-10-14.1-17.1-31.7-21.2c-14.2-3.3-32.8,3.7-40.2,12
			c-6.2,6.9-10.5,19.4-11.5,30.7c-1,11.3,6,24.3,9.3,28c0,0-3.5-10.7-3.7-15.5c-0.2-4.7-1.2-12.2,4.5-12.4c5.8-0.2,6.2,5.4,8,8.5
			c1.9,3.1,6.2,2.3,7.4,1.9c1.2-0.4,1.2-10.3,2-13.6c0.6-2.4,1.8-7.9,4.6-9.5c2.9-1.6,4.5-7.4,4.1-11.1c-0.4-3.7,9.5-7.2,14.4-6.9
			c4.4,0.2,13.8,2.8,17.1,4.9c3.3,2.1,8,4.5,10.5,4.7C199.9,29.4,202.5,28.8,202.5,28.8z"/>
	</g>
	<path id="blackbelt" fill="#404040" stroke="#252525" d="M93.9,318.2v13.1c0,0,11.6,2,19,3.5c7.4,1.5,100.2,40.2,108.8,45.9
		c8.6,5.7,27.4,19.5,29.1,22.2c1.7,2.7,13.6-10.1,12.3-11.4c-1.2-1.2-22-17.8-29.6-18.3c-7.6-0.5-97.5-46.9-97.5-51.6
		c0-4.7-3-4.4-3-4.4S107,321.1,93.9,318.2z"/>
	<g id="jacket_1_">
		<path fill="#FCFCFC" stroke="#8C8C8C" stroke-width="3" d="M127.9,95.5c0,0-3.4,9.5-8.4,9.9c-4.9,0.4-33.4,4.7-39.6,10.6
			c-8.8,8.4-10.3,27.1-12.9,30.9c-2.7,3.8-1.1,10.7-0.8,14.1c0.4,3.4-7.2,9.1-7.6,16.4c-0.4,7.2-1.1,30.1,7.2,45.7
			c8,10.7,0,12.2,1.1,17.5c1.1,5.3,7.2,6.5,6.5,10.7c-0.8,4.2-2.7,6.9-0.8,10.7c1.9,3.8,11.4,14.8,12.6,24.7
			c1.1,9.9-8.4,12.6-6.5,20.2c1.9,7.6,7.6,11.7,12.1,12.6c3.5,0.7,8.9-1,15.8-1.5c7.3-0.5,17.8-0.2,17.8-0.2l19.8-2.5l74.6-37.7
			l52.9-43.8l45.3,1.1l24.4,8c0,0,24-1.5,28.2-4.9c3.6-2.9,17.1-14.8,1.9-30.1l-10.7-26.6l-46.8-43l-89.1-9.9l-62,6.9
			c-6.6-14.6-4.5-12.4-12.9-23.6C142.8,102,135.9,97.8,127.9,95.5z"/>
		<path fill="none" stroke="#8C8C8C" stroke-width="2" d="M159.9,149.2c0,0-12.6,25.1-3,37.7c9.5,12.6,50.6,30.4,41.1,74.6"/>
		<path fill="none" stroke="#8C8C8C" stroke-width="2" d="M131.4,315.5c0,0-26.6-15.6-40-8"/>
		<path fill="none" stroke="#8C8C8C" stroke-width="2" d="M65.9,215.1c0,0-3.8-19.4,2.7-21.7"/>
		<path fill="none" stroke="#8C8C8C" stroke-width="2" d="M114.6,272.1c1.1,20.2,20.6,40,20.6,40s-21.3-19.8-28.9-20.6
			c-7.6-0.8-8,1.5-8,1.5"/>
	</g>
</g>
<g id="Uke">
	<g id="skin">
		<path fill="#2937B7" stroke="#151E56" stroke-width="3" d="M74.5,511.5c0,0-59.4-26.9-33.7-32.5c27.7-6,58.2,28,62.2,34
			S74.5,511.5,74.5,511.5z"/>
		<path fill="#2937B7" stroke="#151E56" stroke-width="3" stroke-linecap="round" stroke-linejoin="round" d="M288.9,433
			c-1-0.5-9.3-9.6-9.2-17.2c0.1-7.7-0.1-25.2-0.1-25.2l21.4-11.1l21.9,14.8l6.3,21.4C329.1,415.7,321.2,434.7,288.9,433z"/>
		<path fill="#FFD4AE" stroke="#7F4E29" stroke-width="2" d="M69.8,478.9c0,0,0.8,26.3-2.9,37.8c-3.7,11.5-17.6,43.9-24.6,50.9
			c-7,7-16,19.3-20.9,21.8c-4.9,2.5-11.1,9.4-11.5,12.3c-0.4,2.9,1.6,7,15.2,7c13.5,0,21.3-0.8,23.8-5.3
			c2.5-4.5,18.5-13.5,24.2-13.5c5.7,0,20.1-2.1,26.3-4.5c6.2-2.5,12.3-4.9,14.8-11.9c2.5-7-9.9-24.6-9.9-31.2c0-6.6-0.4-32,4.9-38.2
			L69.8,478.9z"/>
		<path fill="#FFD4AE" stroke="#7F4E29" stroke-width="2" d="M91.2,556c0,0,12.7-7.4,13.1-14"/>
		<path fill="#FFD4AE" stroke="#7F4E29" stroke-width="2" d="M282,365.2c0,0-2.9,23.8,3.3,48.4c3.5,13.9,7.8,42.3,7,52.1
			c-0.8,9.9-5.3,43.1-4.9,50.1c0.4,7-6.2,20.9-7.4,24.2c-1.2,3.3-7,17.4,1.2,20c8.2,2.6,16.4-6,22.2-6.8c5.7-0.8,12.7-0.5,17.2-5.2
			c4.5-4.7,4.9-14.5,3.3-20.3c-1.6-5.7,1.2-32,2.5-33.7c1.2-1.6,7.8-13.5,2.9-25.9c-3.1-7.9-3.7-29.1-3.7-36.9c0-7.8,2.1-41,5.7-48
			L282,365.2z"/>
		<path fill="#FFD4AE" stroke="#7F4E29" stroke-width="2" d="M307.7,64.4c0,0,0.8-14.4-2.6-21.5c-3.4-7.1-12.9-18.3-20.7-20.3
			c-7.9-1.9-21.7-4.9-30.7-2.2c-9,2.7-15.9,6.9-19.7,12.2c-3.8,5.3-4.6,18.4-4.6,22.4c0,4,1.9,14.9,4.8,20.7l3.5,8.5l70.5-9.3
			L307.7,64.4z"/>
		<path fill="#7F4E29" stroke="#5E371C" stroke-width="2" d="M233.8,40.6c-1.7-1.2-3.5,7.2-4.5,14.4c-1-7.1,0.8-17.2,4.6-22.4
			c3.8-5.3,10.7-9.4,19.7-12.2c12.4-3.8,25.5-0.8,31.5,2.2c7.2,3.6,16.5,13.2,19.9,20.3c3.4,7.1,2.6,21.5,2.6,21.5s0.2-11.9-9-9.8
			s-4.3,12.2-5.6,15.7c-1.3,3.5-5.6-1.6-5.6-1.6s-0.8-19.9-4.6-19.9c-3.8,0-6-7.1-6.9-9.5c-1.2-3.3-4-6.5-9.9-7.6
			c-5.9-1.1-17.3-0.2-21.2,5C241,41.7,237,42.9,233.8,40.6z"/>
	</g>
	<g id="pants">
		<path fill="#2937B7" stroke="#151E56" stroke-width="3" stroke-linecap="round" stroke-linejoin="round" d="M108.1,518.6
			c-1.2-1.3-3.3-5-4.6-6.4c-4.9-5.3-32.9-38.2-58.9-34.2c0,0-7.4,1.5-9.6,3.3c2.5-7,9.6-15.5,9.6-34.3c0-21.6,9.5-46,13.5-53
			s0.2-13.7,5.5-19.5c5.5-6,5-9.5,4.5-14s2-16,13.5-21.5c13.3-6.4,27-12,31.5-16s35-18,38-23s29-18.5,39-18.5s50-8.5,50-8.5
			l44.5-39.5l50.5,14c0,0,2.5-2,6,1.5s18.7,28.6,19.5,32.5c0.8,3.7,2,12,2,12S350.5,322,350,326s-7,39-7.5,46s-5.5,15-6.5,25
			c-0.5,4.6-1,14.5-6.5,19c-2-7-14.7-32.5-31-31c-16,1.5-18.5,19-19,32.5C270,400.5,271,379,264,376s-30-2.5-33,0.5
			s-26,19-30.5,21.5s-15,13.5-23.5,16.5c-1,1.5-3.5,4.5-2,5s-15,11-26,4c-10.5,4-7.5,14.1-17.5,18.5c-4.5,2-6,14-3.5,16
			s2.5,12-2.5,17s-5.5,7.5-5.5,13s-2.5,20.3-5.3,23.3C112.4,513.8,110.3,517.6,108.1,518.6z"/>
		<path fill="#2937B7" stroke="#151E56" stroke-width="2" d="M267.7,346.4c0,0-1.3-29.7,1.6-37.2"/>
		<path fill="none" stroke="#151E56" stroke-width="2" d="M276.5,375.9c0,0,8.8-12.1,12.1-14.5c3.4-2.3,3.6-11.4,2.3-15
			c-1.3-3.6-5.4-15.2-5.4-25.3c0-10.1-0.3-19.6-0.3-19.6"/>
		<path fill="none" stroke="#151E56" stroke-width="2" d="M343.7,329.6c0,0,4.4-0.8,1-10.3c-3.4-9.6-13.2-22-13.4-29.5"/>
		<path fill="none" stroke="#151E56" stroke-width="2" d="M236.4,341.2c0,0,5.4,5.2,12.4,5.2s16-1.8,19.4,15.2"/>
		<path fill="none" stroke="#151E56" stroke-width="2" d="M249.9,304.8c0,0,10.3,24.6,6.7,31.3c-3.6,6.7-10.3,4.9-10.3,4.9"/>
		<path fill="none" stroke="#151E56" stroke-width="2" d="M259.9,340.7c0,0,11.1,1.6,7.5,29.2c-1,9.6,4.4,24,4.4,24"/>
		<path fill="none" stroke="#151E56" stroke-width="2" d="M231,361.7c0,0-65.3-17.3-98.7-7.3"/>
		<path fill="none" stroke="#151E56" stroke-width="2" d="M233,372.3c0,0-24-3.3-42.7,0"/>
		<path fill="none" stroke="#151E56" stroke-width="2" d="M210.3,382.3c-14.7-3.3-46.7,6.7-46.7,6.7s30-4,30.7,4.7"/>
		<path fill="none" stroke="#151E56" stroke-width="2" d="M119.7,488c0,0-2.4-17.2-13.8-23.2"/>
		<path fill="none" stroke="#151E56" stroke-width="2" d="M121,387.7c6.7-8.7,26.7-4.7,21.3,0c-5.3,4.7-19.3,14.7-12.7,20.7
			c6.7,6,16,11.3,9.3,20"/>
		<path fill="none" stroke="#151E56" stroke-width="2" d="M149,418.3c0,0-10.7-11.3-3.3-11.3c7.3,0,10-6,10-9.3"/>
	</g>
	<g id="rollover">
		<path fill="#2937B7" stroke="#151E56" stroke-width="3" stroke-linecap="round" stroke-linejoin="round" d="M181.7,281.7
			c0,0,11,13.9,46.7,14.7s29.9-12.8,36.1-17.1c6.1-4.3,19.5-20.6,26.4-26.2c7-5.6,16.6-13.2,32.1-2.9c17.7,11.8,19.8,8.8,23.2,7.7
			c-4.8-9.9-8.8-17.4-15.2-20.3c-5.5-2.5-18.1-23.9-18.1-23.9l-59.1-11.9l-24.3-0.5l-25.1,35.5c0,0-5.9,17.6-8.3,21.1
			C193.8,261.4,191.4,273.9,181.7,281.7z"/>
		<path fill="none" stroke="#151E56" stroke-width="2" stroke-linecap="round" stroke-linejoin="round" d="M223.1,281.9
			c0,0,21.9-0.8,26.2-3.2c4.3-2.4,10.4-15.2,17.4-22.7"/>
		<path fill="none" stroke="#151E56" stroke-width="2" stroke-linecap="round" stroke-linejoin="round" d="M247.4,272
			c0,0,4.5-5.1,5.1-5.9c0.5-0.8,9.1-17.1,17.1-21.1"/>
		<path fill="none" stroke="#151E56" stroke-width="2" stroke-linecap="round" stroke-linejoin="round" d="M249.3,263.8
			c0,0,6.9-17.4,12.6-22.2"/>
		<path fill="none" stroke="#151E56" stroke-width="2" stroke-linecap="round" stroke-linejoin="round" d="M334.8,241.1
			c0,0-24.3-2.1-24.8-6.7"/>
		<path fill="none" stroke="#151E56" stroke-width="2" stroke-linecap="round" stroke-linejoin="round" d="M328.6,235.7
			c0,0-1.6,2.7-8.5-1.1"/>
		<path fill="#151E56" stroke="#151E56" stroke-width="3" stroke-linecap="round" stroke-linejoin="round" d="M203.7,240.5
			c3.3-6.7,32.6-27.5,32.6-27.5s24-8,40.7-2s28.7,1.3,28.7,1.3L229,197l-20.7,40.7"/>
	</g>
	<g id="jacket">
		<path fill="#2937B7" stroke="#151E56" stroke-width="3" d="M169.2,138.9c-2.3-14.8-2.5-22.5,2.7-25.2c5.2-2.7,23.6-4.8,26.7,0.4
			c3.1,5.2-2.5,48.2-2.5,48.2S173.6,167.1,169.2,138.9z"/>
		<path id="arm" fill="#FFD4AE" stroke="#7F4E29" stroke-width="2" d="M198.3,107.3c0,0-21.4,12.6-29.1,14.5
			c-7.6,1.9-23,10.6-26.7,12.1c-3.7,1.5-17,10.3-23.7,10.5c-1.6,0-7.1-2-9.8-2c-6.3,2.4-3.9,6.2-5.1,6.7c-7.2,3-10.6,6.6-11.2,8.4
			c-0.9,2.8-3.7,9-2.1,13c0.6,1.6,2.1,7.6,5.5,12.1c2.1,2.8,9.2,5,10.8,5.4c4,1,9-11.1,10.9-13.4c0.9-1.1,2.3-3.6,4.9-4.5
			c2.8-0.9,5.5-0.3,8.5-0.7c1.8-0.3,4.2-2.5,7.8-5.7c3.6-3.1,14.7-4.7,18.6-6.4c5.7-2.6,25.8-6.9,32.6-8.3c0,0,10.9-2.7,14.6-1
			l5.1-28.2L198.3,107.3z"/>
		<path fill="#2937B7" stroke="#151E56" stroke-width="3" d="M371,207c0,0-6.7-43.3-2.7-62.7c4-19.3-6.7-26-7.3-29.3
			s-14.7-29.3-22.7-38c-8-8.7-27.3-16.7-40-14C285.7,65.7,273,73.7,269,74.3c-4,0.7-34-0.7-38,2.7c-4,3.3-43.3,26.7-46.7,27.3
			c-3.3,0.7-14.7,7.3-14.7,12.7c8.7-7.3,40.6,4.2,17.9,45.1c10.2,4.2,26.4-4.8,37.1-6.7c13-2.3,28.3,1.8,36.4-0.4
			c14.7-4,45.3-8.7,45.3-8.7l32.7,24L371,207z"/>
		<path fill="none" stroke="#151E56" stroke-width="2" d="M263.7,80.3c0,0,10-2,19.3,1.3"/>
		<path fill="none" stroke="#151E56" stroke-width="2" d="M363,137.7c0,0-9.3-12.7-53.3-6.7"/>
		<path fill="none" stroke="#151E56" stroke-width="2" d="M357.7,134.3c0,0-30.7-2-36.7,6c0,0-6.7,6-31.3,4.7"/>
		<path fill="none" stroke="#151E56" stroke-width="2" d="M251.7,130.3c0,0-18.7,3.3-36.7-4.7"/>
		<path fill="none" stroke="#151E56" stroke-width="2" d="M217.7,139.7c0,0,32,5.3,59.3-7.3"/>
	</g>
	<path id="grey_belt" fill="#BFBFBF" stroke="#4D4D4D" stroke-width="3" d="M197.6,257.4c0,0,0.3-25.3,11.7-40.7
		c7-9.5,11.2-18.5,21-22.4c6.9-2.7,19.5-2,25.5-1.3c17.1,2,38.1,3.6,54.6,18.9c0,0,8.4,7.1,11.2,13.1c-11.3-9.4-25.8-17.7-67-18.3
		c-6.6-0.1-14.4-1.5-19.7,1c-5.4,2.4-8.3,8.6-11.4,12.5c-6.6,8.1-15.4,20.3-17.2,23.7C204.6,247.2,201.6,249.9,197.6,257.4z"/>
	<path fill="#BFBFBF" stroke="#4D4D4D" stroke-width="3" d="M233.5,207.3c0,0,8.5-3.1,11.8-3.1c5.7,0,21,9.2,31.2,19.1
		c10.2,9.9,18.4,18.4,19.6,18.9s8-6.8,8-8c0-1.2-18.6-19.7-22.9-22.7c-3.8-2.6-15.6-12.3-23.1-14.9c-6-2.1-11.6-5.2-24.1-2.6
		c-6.8,1.4-11.1,5.4-11.1,5.4L233.5,207.3z"/>
</g>
<g id="Tori2">
	<path fill="#E6E6E6" stroke="#8C8C8C" stroke-width="3" d="M65.9,219.6c0,0,15.6,19.4,18.6,19.8c3,0.4,14.5,0.8,16,1.1
		c1.5,0.4,53.7-3,57.8,0c4.2,3,15.6,1.5,18.3,1.1c2.7-0.4,12.6-7.6,12.6-11c0-3.4,16-39.3,7.2-41.9c-6.4-1.9-19.8-5.7-22.1-3.8
		c-2.3,1.9-10.3,4.9-15.2,3c-4.9-1.9-4.9-3.8-8.4-4.9c-3.4-1.1-11-1.5-11-1.5s-0.8-6.5-5.7-8.8"/>
	<path fill="#E6E6E6" stroke="#8C8C8C" stroke-width="3" d="M371.7,235.8c0,0-7.4,7.4-20.8,8.2c-13.5,0.8-20.3-6.6-20.3-6.6
		l-0.5-13.2l22.2-17.1c0,0,22.4,2.1,24.8,7.7C378.8,218.9,380.1,227.6,371.7,235.8z"/>
	<path fill="#F9C6A0" stroke="#704425" stroke-width="2" d="M357,214c0,0,5,24,7,28.5s-1,23.5,1,26s6,14,4.5,16s-19.5,23-23.5,24
		s12-25.5,9.5-29.5S343,254.5,343,250.5s1.5-20-5.5-27s-18.5-18-18.5-18l26.5-18L357,214z"/>
	<path fill="#FCFCFC" stroke="#8C8C8C" stroke-width="3" stroke-linecap="round" d="M286.6,152.3c13.1-3.4,18.2-3.5,21.8-3.3
		c6.5,0.4,14.6,11.8,21.6,11.8s19,16,27.5,25s21.3,29.6,18,27.5c-7.5-3.5-14-5.5-29.5,1s-15.5,23-15.5,23s-8.5-7-12.5-18.5
		s-16.5-13.5-19-15s-27-6.5-30.5-10c-3-3-19-0.3-25-3.5c-8-2.1-20.6,4.9-20.6,4.9"/>
	<path fill="none" stroke="#8C8C8C" stroke-width="2" d="M216.5,202c0,0,14.5-21.5,28.5-25.5"/>
	<path fill="none" stroke="#8C8C8C" stroke-width="2" d="M218,198c1-2,23-13.5,32-13"/>
	<path fill="none" stroke="#8C8C8C" stroke-width="2" d="M217.5,200c0,0-2.5-16.5-0.5-19.5"/>
	<path fill="#F9C6A0" stroke="#704425" stroke-width="2" d="M182.1,223.6c3.9,1.8,15.8,14,26.9,14.3c6.3,0.9,13.8-10.4,17.4-15.6
		c0.9-1.3,8.8-14.5,5.2-18.5c-4.1-4.5-11-8.2-14.9-9.5c-3.5-1.2-3.8-4.5-8.5-4.5c-3.7,0-6.7,2.9-13.2,1.9c-6.6-1-13.9-0.3-13.9-0.3
		l-10,31.7C171.1,223.1,178.2,221.8,182.1,223.6z"/>
	<path fill="#FCFCFC" stroke="#8C8C8C" stroke-width="3" d="M65.9,219.6c0,0,15.6,19.4,18.6,19.8c3,0.4,14.5,0.8,16,1.1
		c1.5,0.4,53.7-3,57.8,0c4.2,3,15.6,1.5,18.3,1.1c0,0,0.2-37,19.8-52.9c-6.1-2.7-19.8-5.7-22.1-3.8c-2.3,1.9-10.3,4.9-15.2,3
		c-4.9-1.9-4.9-3.8-8.4-4.9c-3.4-1.1-11-1.5-11-1.5s-2.8-8.5-7.7-10.8"/>
	<path fill="none" stroke="#8C8C8C" stroke-width="2" d="M177.8,195.6c0,0-14.1,8.4-17.5,8.8c-3.4,0.4-10.7,5.7-18.3,7.6
		c-7.6,1.9-9.1,3-19.4,3.8c14.5,0.4,25.9,1.5,35.4-4.6"/>
	<path fill="none" stroke="#8C8C8C" stroke-width="2" d="M158,198.3c0,0-11.8,7.6-14.1,7.6s-6.5-4.2-12.9-1.9
		c-6.5,2.3-23.6,6.1-28.5,6.1"/>
	<path fill="none" stroke="#8C8C8C" stroke-width="2" d="M108.9,202.1c0,0,27-0.4,31.2,2.7"/>
	<path fill="none" stroke="#8C8C8C" stroke-width="2" d="M117,175c0,0-3,16-15,21"/>
	<path fill="none" stroke="#8C8C8C" stroke-width="2" d="M137.8,177c0,0-11.4,8.4-11.8,15.2c3.8-7.2,9.9-8.8,16-9.5"/>
	<path fill="none" stroke="#8C8C8C" stroke-width="2" d="M317,215.5c0,0-8-11.5-4.5-25.5"/>
	<path fill="#2937B7" stroke="#151E56" stroke-width="2" d="M342.4,312.3c0,0,5.3-14,6.6-16.9c1.3-2.9,5.3-10.3,5.5-11.9
		c0.3-1.6,0.3-7.4-3.4-9.8c-3.7-2.4-10.8-6.9-12.7-9"/>
	<path fill="#2937B7" stroke="#151E56" stroke-width="2" d="M342.9,312.8c0,0,6.1-6.9,11.9-10"/>
	<path fill="#2937B7" stroke="#151E56" d="M342.4,309.9c0,0,0.8-13.7,3.7-17.4c2.9-3.7,1.6-12.4-4-14"/>
	<path fill="none" stroke="#8C8C8C" stroke-width="2" stroke-linecap="round" d="M277.8,153.6c0,0,8.7-1.3,10.3-1.9"/>
	<path fill="#FCFCFC" stroke="#8C8C8C" stroke-linecap="round" d="M272,154.4c0,0,14.2-2.8,16-3.1"/>
</g>
</svg>
