<?xml version="1.0" encoding="utf-8"?><svg enable-background="new 0 0 600 800" height="800" viewBox="0 0 600 800" width="600" xmlns="http://www.w3.org/2000/svg"><path d="m432.9 595.7s5.5 9.4 4.9 17.5-6.1 17.9-5.3 24.3c.6 5.3 5.5 16 14.9 16.2 12.4.2 16-7.9 23.7-6s11.9 9.8 18.3 10.7 17.7 3 26.2.9 6.2-7.8 4-10.9c-2.8-4-19.2-13.4-23.2-16-2.8-1.8-13.4-8.7-15.1-13.6-1.1-3-.2-17.5 2.1-24.9 2.3-7.6-50.5 1.8-50.5 1.8z" fill="#f9c6a0" stroke="#704425" stroke-width="2"/><path d="m89.6 693.1c-4.2 5.9-17.7 17.1-21.3 21.5-4.1 5-9.2 11.9-9.9 16.5-1.5 10.5 28 7.9 32.8 10.1 0 0 9.1 3.8 12.4-2.4 3.4-6.2 5.3-9.3 6.5-14.6s1.4-11.2 4.1-13.2c2.6-1.9 8.6-7.4 8.4-16.8-.2-9.3 3.8-13.2 5.7-14.6s-27-27.3-27-27.3-5.3 31.7-11.7 40.8z" fill="#f9c6a0" stroke="#704425" stroke-width="2"/><path d="m181 466s-21-3-21-9 31-91 31-91l44 30z" fill="#fcfcfc" stroke="#8c8c8c" stroke-width="3"/><path d="m93 651s-2 13 2 18 17 22 44 22 29-7 29-7 12-31 18-40 22-56 32-69 19-35 27-49 33-51 40-51 38 2 44 8 36 24 39 31 37 31 43 46 12 51 12 51l59-7-4-115-99-140-109 20-77 9-3 28s-35 102-42 119-30 73-37 83-18 43-18 43z" fill="#fcfcfc" stroke="#8c8c8c" stroke-width="3"/><path d="m279 468s-70 63-73 88" fill="none" stroke="#8c8c8c" stroke-width="3"/><path d="m269 473c-42 25-103 99-103 99s58-78 103-105 0 6 0 6z" fill="#8c8c8c" stroke="#8c8c8c" stroke-width="3"/><path d="m158 595s16-29 29-39" fill="none" stroke="#8c8c8c" stroke-width="2"/><path d="m271 488s27-29 40-30" fill="none" stroke="#8c8c8c" stroke-width="3"/><path d="m320 479s20 10 57 4" fill="none" stroke="#8c8c8c" stroke-width="3"/><path d="m383 476c3-1 19-2 30 4" fill="none" stroke="#8c8c8c" stroke-width="3"/><path d="m387 497s14-3 30 4" fill="none" stroke="#8c8c8c" stroke-width="2"/><path d="m364 506s5-6 12-5" fill="none" stroke="#8c8c8c" stroke-width="2"/><path d="m405 550s-19-13-18-39" fill="none" stroke="#8c8c8c" stroke-width="3"/><path d="m436 504s-18-16-33-16" fill="none" stroke="#8c8c8c" stroke-width="2"/><path d="m357 494s20 2 32-6" fill="none" stroke="#8c8c8c" stroke-width="2"/><path d="m189 371s-7 30-5 55c1.6 20.2 12.1 34.8 13 42 25 6 68-3 68-3s55-7 94-39 9-47 9-47l-108-12z" fill="#fcfcfc" stroke="#8c8c8c" stroke-width="3"/><path d="m235 152s3.3-4.6 6.5-5.3 3.6 29.5 3.6 29.5z" fill="#fcfcfc" stroke="#8c8c8c" stroke-linecap="round" stroke-linejoin="round" stroke-width="3"/><path d="m234.2 159 63.8 87.5 5.5-.5 9.3-39.8-4.6-27.7-10.4-14-56-16.7-6.8 8.4z" fill="#f9c6a0" stroke="#704425" stroke-width="2"/><path d="m184.6 349.7c1.7 2.2 5.2 6.8 6.8 7.7 1.7.8 74.5 7.6 74.5 7.6l30-33s12-55 12-69-23-52-32-66-41-45-41-45-21 21-27 24-37 16-43 26-4 44-3 57 1 20 2 43 16 32 16 32 3.1 13.5 4.7 15.7z" fill="#fcfcfc" stroke="#8c8c8c" stroke-width="3"/><path d="m246.9 299.8s-19.1-15.5-23.4-18c-2.5-7.6 2.2-23.4.7-38.5" fill="#fcfcfc" stroke="#8c8c8c" stroke-linecap="round" stroke-linejoin="round" stroke-width="3"/><path d="m198 272.9s20.5 4 25.5 9" fill="#fcfcfc" stroke="#8c8c8c" stroke-linecap="round" stroke-linejoin="round" stroke-width="3"/><path d="m190.8 252s15.8 25.2 31.6 20.9" fill="none" stroke="#8c8c8c" stroke-linecap="round" stroke-linejoin="round" stroke-width="3"/><path d="m222.5 271.1s-21.9-3.6-28.4-36" fill="none" stroke="#8c8c8c" stroke-linecap="round" stroke-linejoin="round" stroke-width="2"/><path d="m224.3 244.5s1.1-8.6-4-13.7c-5-5-4-15.1-3.6-16.5" fill="#fcfcfc" stroke="#8c8c8c" stroke-linecap="round" stroke-linejoin="round" stroke-width="2"/><path d="m223.9 254.2s.4-15.1-15.8-20.1" fill="none" stroke="#8c8c8c" stroke-linecap="round" stroke-linejoin="round" stroke-width="2"/><path d="m240 182c15 12 30.9 32 37 45 7 15 18 36.9 18 44" fill="none" stroke="#8c8c8c" stroke-linecap="round" stroke-linejoin="round" stroke-width="2"/><path d="m231.1 274.3s11.1-6.1 10.1-23c-1.1-16.9-4-24.1-6.8-35.6 1.8 5.4 4 20.9 12.9 32" fill="none" stroke="#8c8c8c" stroke-linecap="round" stroke-linejoin="round" stroke-width="2"/><path d="m218 359s22.4-33.9 40-58 33.1-44.2 39-55c4.3-7.8 15-35 8.2-53l-8.6-20.1 13.3-7.9s26.2 6.8 33.8 15.1c7.5 8.3 28.8 29.5 35.6 33.4 6.8 4 40.6 26.2 46.4 27.7 5.8 1.4 35.6 17.6 35.6 17.6l26.3 14.2s-68 25.7-71.2 25.7-47.8-14.4-47.8-14.4-26-23.3-28.6-29.1c1.1 7.6 2.9 12.9 1.8 19.4s-4.3 18.3-5.8 18.7-51.4 51.1-51.4 51.1z" fill="#fcfcfc" stroke="#8c8c8c" stroke-linecap="round" stroke-linejoin="round" stroke-width="3"/><path d="m266 318s15-23 22-35 29-44 30-57 3-37-12-59" fill="none" stroke="#8c8c8c" stroke-linecap="round" stroke-linejoin="round" stroke-width="2"/><path d="m189 357s42 9 76 3-7 18-7 18-37 12-71-1c-3-5 2-20 2-20z" fill="#404040" stroke="#252525"/><path d="m175.6 329.9c5 5.1 19.4 11.1 29.4 19.1 9.8 7.8 71 43 71 43s26-37 12-52-41-40-41-40" fill="#fcfcfc" stroke="#8c8c8c" stroke-linecap="round" stroke-linejoin="round" stroke-width="3"/><path d="m318 419.5s11.5 3.3 15.6 6.7 18.5 4.4 24.4-2c5.8-6.4 7.3-28 7.3-28l-6.3-13.8-21-5.1-14.7 13.2z" fill="#f9c6a0" stroke="#704425" stroke-width="2"/><path d="m476.5 368.2s12 2.8 16.8-6.5c0 0 9.3-10.5 7.8-23.2s-6.9-19.3-18.7-25.4c-11.9-6.2-17 9.3-17 9.3z" fill="#f9c6a0" stroke="#704425" stroke-width="2"/><path d="m238.5 152.2s5.8-6.8 2.2-16.2-6.5-17.8-7-26 1.5-23.5 14-31 27.5-8.8 39-4.8 23.8 15 28 25.8 3.8 21.5 2.8 25.8-1.2 7.8-.5 12 3 9.8 2.2 11.2-4.2 1.5-5.2 1.2-.5 7.2-.2 8.8 1 8.2-.5 9.5c-1.2 1-8.5 7.5-13.2 6.8s-31.5-6-36.2-15.8" fill="#f9c6a0" stroke="#704425" stroke-width="2"/><path d="m258.3 466s10 13.3 17.3 8.7c7.3-4.7-1.3-24-10.7-36.7-9.3-12.7-41.3-44.7-36.7-25.3z" fill="#1c2d8e" stroke="#151e56"/><path d="m474.3 556c-6.3-1.3-30.6-11.5-33.3-16.7s21-14.4 30.7-12.2 39.1 20.3 36.1 30.4c-3 10-33.5-1.5-33.5-1.5z" fill="#1c2d8e" stroke="#151e56"/><path d="m457.8 528.4s4 13.1 3.6 27.3-6.5 22.6-8.7 29.5c-4.2 8.2-8.9 14.8-8.4 17.4.4 2.6 1.1 5.3 9.4 5.9 8 .6 23.3-4.3 26.7-5.7 3.5-1.5 7.5-3.3 6.9-10.5-.6-4.3-2.9-21.5-1.6-26.9 2.3-3.4 3.7-7.9 1.7-15.7-.5-2 5.6-23.6 5.6-23.6z" fill="#ffd4ae" stroke="#7f4e29" stroke-width="2"/><path d="m275 441.3c-3 3-12 15.2-12.5 25.7-.4 10.5-5.8 15.9-9.4 17.4s-15.2 3-21.7-4.1c-6.4-7.1-13.7-21.2-20-23.4-6.2-2.1-18-10.3-21.9-18.9s-1.9-17.8-1.1-20.4 6.9-12.6 7.9-16.1c.8-3 9.3-10.5 14.2-.9 5 9.7 11.1 15.3 17.7 15.3 5.3 0 16-7.3 16-7.3z" fill="#ffd4ae" stroke="#7f4e29" stroke-width="2"/><path d="m230 415.3c-9.1-25.8 26.5 10.1 35.8 22.7s16.6 32.3 9.3 37c0 0 17.9-14.3 22.6-23.6s13.3-24 18-26.7 10.7-10.7 12-22.7 10.7-22 16-22 18.6 4.9 20.7 12.7c1.3 4.7 2 13.1-1.4 23.2 12.9-2.1 18.1 4.4 18.1 4.4s10.5 6.2 17.4 20.9c6.7 14.3 24.6 29.5 27.9 41.5s12.7 13.3 12.7 29.3-1.3 23.3 1.3 26.7c2.9-.5 13.3-8 36-4.7s27.3 16.7 28.7 22.7 6-10.7 3.3-25.3c-2.7-14.7 0-36.7-1.3-44s-10.7-38.7-10.7-49.3-14.3-65.3-17.7-78c-3.3-12.7-4-23.7-3.2-31.1.6-6.3 1.3-6.1 1.2-12.3l-93.7-34-42.7-31.3s-4.5 36.5-5 41c-7.3-1.3-31-4.3-39 8.3-8 12.7-17.3 39.3-28 50s-9.3 20.7-16.7 26.7-21.3 24-24 27.3c-2.6 3.3 2.4 10.6 2.4 10.6z" fill="#2937b7" stroke="#151e56"/><path d="m430.8 482.3s-11.6-14-18.4-20-22.3-53.1-49.5-46.5c3.1-8.5 3-22.9-.2-27.4 3.7-1.3 12.5-7.8 13-15.5.4 5.1 2.6 20 8.7 23.1 11.2 5.8 16.7 20.3 19.5 25.7 4.5 8.5 19.7 18 20.1 30.8.5 12.9 6.8 29.8 6.8 29.8z" fill="#18298c"/><g stroke="#151e56"><path d="m439.3 514.9s8.5-19.2 8.5-28.1 1.8-27 .4-33.6" fill="none"/><path d="m471.8 524.8s-.7-15.9 4.1-24 1.1-16.6.7-18.9" fill="none"/><path d="m474.7 330s4.1 41 .4 50.3c-3.7 9.2-9.2 31.8-8.9 38.4" fill="#2937b7"/><path d="m476.2 440.9s-.7-12.9 1.8-17.7c2.6-4.8 5.9-25.9 4.1-34" fill="#2937b7"/><path d="m376.5 360.2c-4.8 12.6 5.9 36.6 5.9 36.6s12.4 15.9 17.9 16.8" fill="#2937b7"/><path d="m430.8 482.3s-12.6-27-8.1-46.6c4.4-19.6 13.7-46.6 24.8-52.1" fill="#2937b7"/><path d="m420.6 442s-8.1 1.8-7-18.5 9.6-39.9 9.6-39.9" fill="#2937b7"/><path d="m413.9 433.9s-13.3-8.1-15.2-25.9c-1.3-12.5 2.2-31.4 6.7-40.3" fill="#2937b7"/><path d="m321.7 409.9s-6.3 10.7-8.5 4.8-14.1-45.5-18.9-50.6c-4.9-5.2-12.9-5.9-12.9-5.9" fill="none"/><path d="m328.4 385.5s-6.8-19.4-15.5-24c-6.3-3.3-12.9-2.6-12.9-2.6" fill="none"/><path d="m279.9 457.9s.7-5.2 8.9-8.5c8.1-3.3 1.8-20.3-1.1-16.6-3 3.7-.4 12.6-.4 12.6" fill="none"/><path d="m310.2 322.6s16.5 5.1 22.2 29.6c1.2 5.2 3.3 11.3 7 14 2.3 1.7 4 3.1 5.9 1.5 5.9-9.5-6.7-30.3-6.7-30.3" fill="none"/><path d="m346.8 341.1s8.9-1.3 18.6 7c7.8 6.7 9.4 19 8.7 26.6-.6 7.6-11.5 13.7-11.5 13.7" fill="#2937b7"/><path d="m335.3 292.3s19.3 3.8 31.6 11.6c12.5 7.9 17.5 13 25.5 24.3" fill="#2937b7"/><path d="m385.4 316.2s12 10.9 13.9 18.4" fill="#2937b7"/><path d="m340.3 251.3c2.4 2.3 39.6 30.5 43.1 31.4 3.8.9 31 13.1 40.8 12.5 10.7-.7 5.9 5.9 5.9 5.9l-11.8 13s-6.6 4.2-4.5 11.8 2.4 10 6.8 10.9c4.5 1-12.9 12.8-21.9-8.2s-53.3-36.8-63.2-36.8c.1-.1 4.7-40.6 4.8-40.5z" fill="#18298c"/><path d="m405 337s20 18 44 25 28 3 37 2c1-11-6-34-12-48s-69 21-69 21z" fill="#2937b7"/></g><path d="m476 322s-56.8-20-87.6-24.4c-27.5-4-36.4-4.6-52.4-1.6l.3-14.5s30.7-5.5 57.7 1.5 82 24 82 24z" fill="#edeef4" stroke="#595959" stroke-width="3"/><path d="m312.8 291.8s15-1.4 26.9 2.2c9.4 2.9 13.9 2 24.6 11.4" fill="#2937b7" stroke="#151e56"/><path d="m380 290.5c2.2 12.1 12.6 24.5 21.9 38 11.2 20 35.7 29.8 35.7 29.8s1.6-4.5 5.6-7.9c-11-8.3-22.6-15.6-30.3-25-6.7-8.2-13.2-18.8-23.3-37.1z" fill="#edeef4" stroke="#595959" stroke-width="3"/><path d="m394 290.8s12.4 13.5 17.7 42.2c3.5 18.6 12.4 32.3 12.4 32.3s6.8 1.4 11.8 0c-6.5-12.1-9-21.9-11.8-33.7-.7-3-9.9-31.2-15.2-39.4-1.9-3-14.9-1.4-14.9-1.4z" fill="#edeef4" stroke="#595959" stroke-width="3"/><path d="m381.4 282s-5.3 9.6-.6 13.5c4.8 3.9 16.3 2.5 16.3 2.5l-3.9-14.6z" fill="#edeef4" stroke="#595959" stroke-width="3"/><path d="m392.6 289.1s-15.5-7.3-5.1-9.6c4.2-.9 12.4-.6 16.3 4.2s4.5 14.5-3.7 16.3c-7.9 1.7-18.8-1.1-18-5.1 1-3.9 10.5-5.8 10.5-5.8z" fill="#edeef4" stroke="#595959" stroke-width="3"/><path d="m439.5 288.1s8.6 16.4 22.7 25.4c15.1 9.6 24.1 15.1 32.2 15.4 8.2.3-3.6-11.8-8.4-15.9-5-4.3-21.7-15.8-26.2-18.3-6.7-3.8-22.2-12.2-20.3-6.6z" fill="#18298c" stroke="#151e56"/><path d="m452.1 278.9s-3.9 8-10.7 9c-6.9 1-12.4 6.4-15.2 7.2s0 4.4 3.2 3.7-6.4 7.7-7.5 8.2c-1.2.5-6.7 8.4-7.4 13.9-.5 4 .6 11 3 14.1 3 3.9 12.9 4.3 16.4 3.3 3.2-.9 14.4-6 17.7-10.2s6.7-15.6 11-20.1c3.5-3.7 13.6-11.4 18.1-12.6z" fill="#ffd4ae" stroke="#7f4e29" stroke-width="2"/><path d="m494.4 328.9c8.8 0-3.6-11.8-8.4-15.9-5-4.3-21.7-15.8-26.2-18.3-6.7-3.7-21.2-11.5-20.3-6.6.3-5 11.2-17 11.2-17l11.8-11.9-63.1-31.8-40.9-30.1-24.2-19-24.2-11.4 8.5-30.7s10.2 12.5 14.2 12.2 10.2-7.1 17.1-8c6.8-.9 15.4-6 21.3-7.4s52.9-.5 66.2 9.7c13.4 10.3 13.6 11.9 13.6 11.9s15.1-2.8 25.6.6 27.5 15.7 32.1 25.9c4.8 10.5 10.2 10.7 14.1 32 4 21.3 4.6 23.6 4 37s-7.8 34.1-10 44c-2.5 11.3-13.9 37.4-22.4 34.8z" fill="#2937b7" stroke="#151e56"/><path d="m320 137s16 17 16 30" fill="none" stroke="#151e56"/><path d="m459 265s5-14 19-14" fill="none" stroke="#151e56"/><path d="m469 251s12-21 15-28-7-14 4-33" fill="none" stroke="#151e56"/><path d="m466 243s-14-44 9-71c-10 31-9 71-9 71z" fill="none" stroke="#151e56"/><path d="m453 157s-6 15-6 29-1 24 4 36" fill="none" stroke="#151e56"/><path d="m517 228s9 26 6 38-15 14-15 20" fill="none" stroke="#151e56"/><path d="m498 232s10-9 17-8 10-17 5-22" fill="none" stroke="#151e56"/><path d="m360.1 139.7s11.2-4.8 13.5-6.9c2.3-2 22.4-1 26.8-1.3 4.3-.3 35.9 9.4 35.1 12.7s-8.2 48.4-12.8 56.9c-4.6 8.4-13.5 25-19.1 27.8s-27.8-11.2-27.8-11.2-12-14.5-13-27.3c-.9-12.7-3.5-34.3-2.7-50.7z" fill="#ffd4ae" stroke="#7f4e29" stroke-width="2"/><path d="m428.2 151.2c-2.8 13-18.1 23-24.7 24.2-4.8.9-12.5 0-16.1-3.1s-16.6-16-16.8-30.1c-.5-6.6-.5-10.2-.5-10.2s-4.6.8-5.4-11.5c-.8-12.8 2.5-12.8 3.8-9.9 1.3 2.8-.6-5.6.2-16.8s6.2-25.3 16.4-30.6c8.3-4.4 20-4.4 27.5-2.6 9.5 2.3 18.1 7.4 24 16.3s4.1 25.5 2.3 32.4-1.3 7.1 1.5 6.1 2.6 0 2.3 4.3-4.1 19.9-7.7 18.6-3.3-2.3-3.3-2.3-.7 2.2-3.5 15.2z" fill="#ffd4ae" stroke="#7f4e29" stroke-width="2"/><path d="m378.3 90.9c-1.8 2.8-1.5 10-4.4 13.1-3.6 3.7-2.7 18.7-2.9 14.1s-1.1-3.4-1.9-6.4c-.9-3.1-.4-17.8-.4-17.8.8-11.2 6.2-25.3 16.4-30.6 8.3-4.4 20-4.4 27.5-2.6 9.5 2.3 18.1 7.4 24 16.3s4.1 25.5 2.3 32.4c0 0-4 8.2-5.2 13.6.8-10-2.2-12.6-3.7-18.7-1.5-5.9-2.2-14.8-8.7-11.4-2.3 1.2-8.8 5.1-16.3 4.2-6.9-.9-22.7-12.6-26.7-6.2z" fill="#7f4e29" stroke="#5e371c" stroke-width="2"/><path d="m361.7 136.6s3.6 34.1 4.2 40.9 14.2 41.2 17.6 44.8c0 0-21.4-15.5-23.6-20-2.1-4.5-5.5-25.3-5.5-28.9 0 0-1.1-18.1-.8-22.1s0-11.9 0-11.9z" fill="#2937b7" stroke="#151e56"/><path d="m434.3 141s-10.3 42.5-14.7 50.8c-5.1 9.8-18.7 27-25.5 30.8-1.7 1.5-6.6 2.3-6.6 2.3l20 7.4s13.7-19.3 16.8-23.8c4-5.9 12.3-33.1 14.4-41.6 1.7-6.6 2.8-21.2 2.8-21.2z" fill="#2937b7" stroke="#151e56"/><path d="m341.8 261.3-5.4-5.8.9-9.6 36.5 12 13.4 12.2 34.9 8s14.8 8.2 16.8 9.1c-2 .3-7.4 3.6-11 5.7-1.6.9-2.9 1.3-3.4 1.8-1.9 2.6 2 5.1 3.9 5.1-3.3 3.8-6.8 5.8-6.8 5.8l-39.7-14.1-19.9-10.8z" fill="#fcfcfc"/><path d="m460.5 259.7s-20.2-9.9-26.5-14.1-28.9-16.2-37.9-20.2c-9-3.9-24.7-13.5-33.7-25.9-9-12.3-15.6-15-26.5-23.8-10.8-8.7-31.9-6.6-31.9-6.6l10.2 38.8" fill="#fcfcfc" stroke="#8c8c8c" stroke-width="3"/><path d="m420.7 304.4-9.4-3c-11.9-2.1-32.8-10.5-43.3-16.4-10.2-5.8-30-28-30-28s-1.2 27-3.5 35" fill="none" stroke="#8c8c8c" stroke-width="3"/><path d="m266 318s15-23 22-35 29-44 30-57 3-37-12-59l-7.9 8.8 5.4 14.1s3.5 7.5 3.5 13.2l-.2 14.4s-3 13.9-7.8 24.2c-4.8 10.2-23.8 35.1-23.8 35.1l-21.4 29.5z" fill="#fcfcfc" stroke="#8c8c8c" stroke-width="3"/><path d="m258 301c17.6-24.1 33.1-44.2 39-55 4.3-7.8 15-35 8.2-53l-8.6-20.1" fill="none" stroke="#8c8c8c" stroke-linecap="round" stroke-linejoin="round" stroke-width="3"/><path d="m355.5 275.2s17.8 3.3 19.3-6.3c.9-5.8 2.8-25.8-28.4-48.1" fill="none" stroke="#8c8c8c" stroke-linecap="round" stroke-width="2"/><path d="m238.5 152.2s5.8-6.8 2.2-16.2-6.5-17.8-7-26 1.5-23.5 14-31 27.5-8.8 39-4.8 23.8 15 28 25.8 4.8 21.5 3.8 25.8c-2.6 4.3-2.2 7.8-1.5 12s3.8 10.4 2.2 13.2c-1.2 2-3.6 1.2-5.3 1.2-1-.2-1.4 5.4-1.1 6.9s1 8.2-.5 9.5c-1.2 1-7.5 7.5-12.2 6.8s-31.5-6-36.2-15.8" fill="#f9c6a0" stroke="#704425" stroke-width="2"/><path d="m308.7 113c5.5-.8 7.2-5.6 6-13-1.9-11.4-16.5-21.8-28-25.8s-26.5-2.8-39 4.8-14.5 22.8-14 31 3.5 16.5 7 26c0 0 1.9 5.3 1.2 7.3s3 4 5.7 1.7 4-6.7 1-12.3c-6.9-13 3.7-17.7 8.7-9 0 0 4 5 3.3 11.7 1.3 2.7 6.3 1.7 6.3 1.7s-1-11 8.3-14.3c8-2.3 1.7-14.5 13-13 5.8.8 15 4 20.5 3.2z" fill="#1c120a" stroke="#382010" stroke-width="2"/><path d="m337.6 252.9s8 11.3 16.9 8.9" fill="none" stroke="#8c8c8c" stroke-linecap="round" stroke-width="2"/><path d="m359.8 218.6s-10.8-5.4-15-16.2c5.2 7.3 12 8.5 12 8.5" fill="none" stroke="#8c8c8c" stroke-linecap="round" stroke-linejoin="round"/><path d="m337.7 259.4s-.3-11.5 4.7-18.5" fill="none" stroke="#8c8c8c" stroke-linecap="round" stroke-width="3"/></svg>