<?xml version="1.0" encoding="utf-8"?>
<!-- Generator: Adobe Illustrator 18.1.1, SVG Export Plug-In . SVG Version: 6.00 Build 0)  -->
<svg version="1.1" xmlns="http://www.w3.org/2000/svg" xmlns:xlink="http://www.w3.org/1999/xlink" x="0px" y="0px"
	 viewBox="0 0 600 510" enable-background="new 0 0 600 510" xml:space="preserve">
<g id="Uki_-_under">
	<g id="tori-hiding">
		<polyline fill="#E29F71" stroke="#704425" points="444.3,388.7 481.4,390.1 485.9,351 433.3,351 444.3,388.7 		"/>
		<linearGradient id="SVGID_1_" gradientUnits="userSpaceOnUse" x1="467.7366" y1="392.7386" x2="458.6641" y2="346.0648">
			<stop  offset="3.289470e-003" style="stop-color:#E29F71"/>
			<stop  offset="0.2581" style="stop-color:#D48758"/>
			<stop  offset="0.4441" style="stop-color:#CC7A4A"/>
			<stop  offset="0.7368" style="stop-color:#AB5E2E"/>
			<stop  offset="1" style="stop-color:#874010"/>
		</linearGradient>
		<polyline fill="url(#SVGID_1_)" stroke="#874010" points="444.3,388.7 481.4,390.1 485.9,351 433.3,351 444.3,388.7 		"/>
	</g>
	<g id="Gi_Jacket">
		<path id="jacket-base_1_" fill="#2937B7" stroke="#151E56" d="M512.6,454.4c0,0,17.9-1.5,29.2-14.2c11.2-12.7,29.2-48.6,32.9-62.8
			c3.7-14.2,1.5-26.9-0.7-27.7c-2.2-0.7-65.8,0-65.8,0s-27.7-0.8-27.7,9.7c0,10.5-1.5,24.7-1.5,24.7s-18.7-3-30.7,0
			c-12,3-34.4,15-40.4,19.4c-6,4.5-12.7,32.2-12.7,32.2s40.4-11.2,53.1-9.7c12.7,1.5,38.5,5.4,45.2,3.1
			C500.2,426.9,517,441.7,512.6,454.4z"/>
		<linearGradient id="jacket_hl_2_" gradientUnits="userSpaceOnUse" x1="487.4698" y1="394.8508" x2="571.767" y2="405.2012">
			<stop  offset="5.618000e-003" style="stop-color:#2937B7"/>
			<stop  offset="0.3208" style="stop-color:#2D3AB7"/>
			<stop  offset="0.6187" style="stop-color:#3844B6"/>
			<stop  offset="0.909" style="stop-color:#4B54B5"/>
			<stop  offset="0.9438" style="stop-color:#4E56B5"/>
		</linearGradient>
		<path id="jacket_hl_1_" fill="url(#jacket_hl_2_)" stroke="#151E56" d="M483.8,425c6.7-2.2,29.7,17.4,31.8,29.1
			c0,0,14.9-1.1,26.2-13.8c11.2-12.7,29.2-48.6,32.9-62.8c3.7-14.2,1.5-26.9-0.7-27.7c-2.2-0.7-65.8,0-65.8,0"/>
		<linearGradient id="jacket-shadow_2_" gradientUnits="userSpaceOnUse" x1="483.4635" y1="401.8816" x2="453.0753" y2="365.6664">
			<stop  offset="5.618000e-003" style="stop-color:#2937B7"/>
			<stop  offset="0.1839" style="stop-color:#2836B2"/>
			<stop  offset="0.4001" style="stop-color:#2532A3"/>
			<stop  offset="0.6359" style="stop-color:#202C8B"/>
			<stop  offset="0.8841" style="stop-color:#192369"/>
			<stop  offset="1" style="stop-color:#151E56"/>
		</linearGradient>
		<path id="jacket-shadow_1_" fill="url(#jacket-shadow_2_)" stroke="#151E56" d="M552,344.4c-16.3,2.2-43.9,5.4-43.9,5.4
			s-27.7-0.8-27.7,9.7c0,10.5-1.5,24.7-1.5,24.7s-18.7-3-30.7,0c-12,3-34.4,15-40.4,19.4c-6,4.5-12.7,32.2-12.7,32.2
			s40.4-11.2,53.1-9.7"/>
		<path fill="none" stroke="#151E56" d="M541.4,372.6c-40.1,16.8-60-7.5-60-7.5s-0.4,18.5,18.1,21.2"/>
		<path fill="none" stroke="#151E56" stroke-width="0.5" d="M482.3,362.9c0,0,18.1,11.9,34,9.3"/>
	</g>
	<path id="pantleg-inside_1_" fill="#1C2B7F" stroke="#151E56" d="M381.7,69c0,0,17.5-16.3,45.9-18.3c22.5-1.6,18.6,0.3,18.6,0.3
		s-21.9,18.9-34,21C400,74.1,381.7,69,381.7,69z"/>
	<path id="foot_1_" fill="#FFD4AE" stroke="#7F4E29" d="M445.3,55.5c0,0-3.6-16.3-2.1-22c1.5-5.6,4.2-13.6-0.8-18.6
		c-5-5-16.3-5.6-19.3-5.9c-5.9-0.4-20.1-2.9-26.6-0.8c-8.6,2.7-19.7,9.6-21.6,11.3c-1.9,1.7-0.8,8,3.8,8s19.3,1.3,24.6,6
		c5,4.4,12.1,15.8,12.8,23.9c0.6,8.2,0.6,14.2,0.6,15.9C416.8,75,445.3,55.5,445.3,55.5z"/>
	<linearGradient id="SVGID_2_" gradientUnits="userSpaceOnUse" x1="430.42" y1="20.4143" x2="442.7776" y2="73.9409">
		<stop  offset="5.618000e-003" style="stop-color:#FFD4AE"/>
		<stop  offset="0.1728" style="stop-color:#FBD0AA"/>
		<stop  offset="0.3456" style="stop-color:#EFC39E"/>
		<stop  offset="0.521" style="stop-color:#DBAF89"/>
		<stop  offset="0.6982" style="stop-color:#C0926C"/>
		<stop  offset="0.875" style="stop-color:#9C6D48"/>
		<stop  offset="1" style="stop-color:#7F4E29"/>
	</linearGradient>
	<path fill="url(#SVGID_2_)" d="M444.2,23.8c0,2.4-1.1,6.8-1.1,6.8c-0.5,1.3-1.3,4.5-1.3,6.9c0,2.6,4.8,30.2,4.8,30.2l-16.1,9
		c0,0-0.3-30.6,0.3-35.7c0.4-4,3.1-5.8,3.3-10.8c0,0-1.5-8.2-7.9-8.8"/>
	<g id="pants_comp">
		<path id="Pants_base" fill="#2937B7" stroke="#151E56" d="M417.5,293.1c4.6-4.6,33-18.2,33.7-21.1c0.7-3-6-44.1-15.7-52.3
			c-9.7-8.2-23.9-37.4-30.7-61.3c-6.7-23.9-6.9-53-15.8-65c-9-12-8-22.2-8.1-24.7c3.7,0,19.4,5.2,35.1-1.5
			c15.7-6.7,29.9-12,29.9-16.5c0-4.5,9,35.9,11.3,44.9c2.2,9,12.4,37.1,10.9,47.9c-1.3,9.7,4,24.6,12.2,32.9
			c8.2,8.2,20.9,18.7,26.2,22.4c5.2,3.7,30.2,19.3,38.4,21.6c8.2,2.2,25.9,12.9,29.6,25.6c3.7,12.7,3,19.4,3,19.4l-44.1,68
			l-44.9,19.4c0,0-35.9,6-48.6,9c-12.7,3-41.1,1.5-53.1,0c-12-1.5-36.6-12.7-45.6-17.2c-9-4.5,27.6-58.2,40.3-55.9
			C394.3,290.8,413.3,297.4,417.5,293.1z"/>
		<linearGradient id="SVGID_3_" gradientUnits="userSpaceOnUse" x1="482.253" y1="199.6702" x2="436.1875" y2="258.6314">
			<stop  offset="2.247200e-002" style="stop-color:#2937B7"/>
			<stop  offset="0.2066" style="stop-color:#2734AB"/>
			<stop  offset="0.5401" style="stop-color:#202C8B"/>
			<stop  offset="0.9822" style="stop-color:#151E58"/>
			<stop  offset="0.9944" style="stop-color:#151E56"/>
		</linearGradient>
		<path fill="url(#SVGID_3_)" d="M561.2,265.5c0,0-11.9-17.2-28.7-16.8c-16.8,0.4-41.9,15-56,16.8c-14.1,1.8-24.2,5.8-24.2,5.8
			s-2.9-34.8-14-48.9c-13.5-17.1-23.5-37.9-26.9-46.3c-5.5-13.5-10.2-39.7-10.2-39.7"/>
		<path fill="none" stroke="#1B2A75" d="M522.4,227c-7.7-3-13-9-15.7-13.7c-2.7-4.7-51.3-56.6-51.3-56.6s51.8,60,80.5,69"/>
		<path fill="none" stroke="#1B2A75" d="M413.5,174.7c0,0,8.2,8.5,25.9,6.5"/>
		<path fill="none" stroke="#1B2A75" d="M439.1,154.2c0,0,12.5,9.2,10,19.4"/>
		<linearGradient id="SVGID_4_" gradientUnits="userSpaceOnUse" x1="479.8584" y1="316.375" x2="540.5947" y2="316.375">
			<stop  offset="2.247200e-002" style="stop-color:#2937B7"/>
			<stop  offset="0.2077" style="stop-color:#2734AB"/>
			<stop  offset="0.5431" style="stop-color:#202C8B"/>
			<stop  offset="0.9877" style="stop-color:#151E58"/>
			<stop  offset="1" style="stop-color:#151E56"/>
		</linearGradient>
		<path fill="url(#SVGID_4_)" d="M479.9,339.6c0,0,39.7-28.3,60.7-50.4c-9.7,16.9-31.1,49-41.4,54.2"/>
		<linearGradient id="rollover_3_" gradientUnits="userSpaceOnUse" x1="508.1204" y1="288.7251" x2="562.7505" y2="339.6686">
			<stop  offset="5.618000e-003" style="stop-color:#2937B7"/>
			<stop  offset="2.262884e-002" style="stop-color:#2836B3"/>
			<stop  offset="0.2063" style="stop-color:#212D92"/>
			<stop  offset="0.3945" style="stop-color:#1C2778"/>
			<stop  offset="0.5866" style="stop-color:#182265"/>
			<stop  offset="0.7851" style="stop-color:#161F5A"/>
			<stop  offset="1" style="stop-color:#151E56"/>
		</linearGradient>
		<path id="rollover_1_" fill="url(#rollover_3_)" d="M480.2,333.9c8.2-5.3,41.7-18.8,55-30c19-16.1,29.2-34.4,30.7-47.1
			c1.5-12.7,0.1-19-3.8-25.8c7.9,3.7,25.9,21.6,29.8,37.5c1.1,4.4,1.3,33.2-10.9,51.1c-12.2,17.9-36.5,22.3-36.5,22.3
			s-72.7,12.4-81.6,14.4C462.7,348.6,471.9,339.2,480.2,333.9z"/>
		<linearGradient id="SVGID_5_" gradientUnits="userSpaceOnUse" x1="343.2803" y1="349.5794" x2="367.1122" y2="351.2458">
			<stop  offset="2.247200e-002" style="stop-color:#2937B7"/>
			<stop  offset="0.2066" style="stop-color:#2734AB"/>
			<stop  offset="0.5401" style="stop-color:#202C8B"/>
			<stop  offset="0.9822" style="stop-color:#151E58"/>
			<stop  offset="0.9944" style="stop-color:#151E56"/>
		</linearGradient>
		<line fill="url(#SVGID_5_)" x1="366.8" y1="355.2" x2="343.6" y2="345.6"/>
	</g>
	<path id="rollover_2_" fill="#2937B7" stroke="#151E56" d="M484.5,337.9c8.2-5.3,41.7-18.8,55-30c19-16.1,29.2-34.4,30.7-47.1
		c1.5-12.7,0.2-21.6-3.7-28.4c8.1,2.1,19.8,20.9,23.9,33.6c2.8,8.6,4.7,22.1,3.5,28.4c-1.2,6.3-4.9,24.3-8.4,33.1
		c-3.5,8.8-5.8,18.3-16.3,19.8c-10.5,1.5-37.9,5.4-42.4,5.4c-4.5,0-26.2,3-26.2,3s-24,4.9-33.7,5.1
		C466.9,353.2,476.3,343.2,484.5,337.9z"/>
	<linearGradient id="belt_2_" gradientUnits="userSpaceOnUse" x1="587.0296" y1="342.6701" x2="479.9082" y2="342.6701">
		<stop  offset="5.618000e-003" style="stop-color:#EDEEF4"/>
		<stop  offset="0.2009" style="stop-color:#E9EAF0"/>
		<stop  offset="0.3866" style="stop-color:#DEDFE5"/>
		<stop  offset="0.5685" style="stop-color:#CCCDD2"/>
		<stop  offset="0.7479" style="stop-color:#B2B3B7"/>
		<stop  offset="0.9241" style="stop-color:#929294"/>
		<stop  offset="1" style="stop-color:#818183"/>
	</linearGradient>
	<path id="belt_1_" fill="url(#belt_2_)" stroke="#595959" stroke-width="2" d="M587,322.9c0,0-8.4,6.2-19.4,12.2
		c-8.6,4.7-21.8,8.8-37.5,13.1c-13.4,3.6-18.7,5.2-27.2,7.6c-7.4,2.1-17.4,5.6-23,6.4c10.1,1.1,51.5-3,66.8-5.6
		c15.9-2.7,27.6-7.7,27.6-7.7S588,337,587,322.9z"/>
</g>
<g id="Tori">
	<g id="feet">
		<path fill="#F9C6A0" stroke="#704425" d="M362.9,208.1c0,0,20.8-27.8,22.5-42.5c1.8-14.7-3.5-17.5-0.6-26.5
			c2.9-9,15.7-9.8,24.5-5.3c8.8,4.5,28.4,1,32.3-0.2c4.1-1.2,13,1.4,16.7,6.9c3.7,5.5,7.8,7.3,10.1,10.2c2.7,3.5,1.5,10.9-2.9,9.4
			c-9.5-3.1-35.9-0.8-42.6,7.6c-6.7,8.4-16.5,19.4-19,27.8c-2.5,8.4-8.2,30-7.6,35.5C396.9,236.5,362.9,208.1,362.9,208.1z"/>
		<linearGradient id="SVGID_6_" gradientUnits="userSpaceOnUse" x1="366.3467" y1="196.74" x2="392.03" y2="205.0851">
			<stop  offset="0" style="stop-color:#B68764"/>
			<stop  offset="2.060747e-002" style="stop-color:#B98A66"/>
			<stop  offset="0.2655" style="stop-color:#D5A480"/>
			<stop  offset="0.5112" style="stop-color:#E9B792"/>
			<stop  offset="0.7562" style="stop-color:#F5C29C"/>
			<stop  offset="1" style="stop-color:#F9C6A0"/>
		</linearGradient>
		<path fill="url(#SVGID_6_)" d="M361.9,210.4c0,0,20.9-24.9,24.8-46c5.2,2.6,7.2,14.3,7.6,23.4c0.5,11.3-2.2,22.8-14.3,39
			C358.8,255.3,361.9,210.4,361.9,210.4z"/>
		<path fill="#F9C6A0" stroke="#704425" d="M81,380.7c0,0-8.9,25.5-17.1,34.5c-8.2,9-19.4,25.8-26.2,30
			c-7.2,4.4-21.3,14.1-23.4,14.6c-2.1,0.5-16.2,7.6-4,17.9c12.1,10.4,25.8,5,32,2.5c6.2-2.5,15-13.5,21.7-15
			c6.7-1.6,20.4,1.4,23.9-6.3c3.5-7.7,1.1-17.1,2.1-23.9c1.1-6.9,2.5-15,12.2-17.7L81,380.7z"/>
		<linearGradient id="SVGID_7_" gradientUnits="userSpaceOnUse" x1="93.8134" y1="425.7928" x2="77.893" y2="423.2713">
			<stop  offset="0" style="stop-color:#B68764"/>
			<stop  offset="2.060747e-002" style="stop-color:#B98A66"/>
			<stop  offset="0.2655" style="stop-color:#D5A480"/>
			<stop  offset="0.5112" style="stop-color:#E9B792"/>
			<stop  offset="0.7562" style="stop-color:#F5C29C"/>
			<stop  offset="1" style="stop-color:#F9C6A0"/>
		</linearGradient>
		<path fill="url(#SVGID_7_)" d="M87.6,395.8c0,0-9.3,13.4-9.3,27.9c0,14.4,10.8,14.4,10,30.3c0,0.8,1.2-8.1,0.7-12.7
			c-0.8-7.5,2-16.9,5.1-20.2C98,416.6,87.6,395.8,87.6,395.8z"/>
	</g>
	<g id="head">
		<path fill="#828282" stroke="#5B5B5B" stroke-width="2" stroke-linecap="round" stroke-linejoin="round" d="M424.4,430.7
			c0,0,21.7,6,22,7.7c0.1,0.5,16.4,53.4,16.4,53.4l-7.9,6.6l-15.2,2.1l-15.3-61.5V430.7z"/>
		<linearGradient id="SVGID_8_" gradientUnits="userSpaceOnUse" x1="421.7474" y1="460.105" x2="517.8667" y2="460.105">
			<stop  offset="0" style="stop-color:#F9C6A0"/>
			<stop  offset="0.2031" style="stop-color:#F6C09A"/>
			<stop  offset="0.4833" style="stop-color:#EDB188"/>
			<stop  offset="0.8069" style="stop-color:#DE976B"/>
			<stop  offset="1" style="stop-color:#D38556"/>
		</linearGradient>
		<path fill="url(#SVGID_8_)" stroke="#704425" d="M442.9,490.8c0,0,10.1-2.4,15,0c4.8,2.4,11,8.7,24.5,9.7
			c13.5,1,22.5-6.2,27.9-11.8c4-4.1,8.8-18.8,7.4-30.5c-1.2-10-6.6-24.3-24.4-32.3c-8.9-4-21.4-2.2-25.6-4c-4.3-1.9-7.6-2.2-7.8-2.2
			c0,0-2.7,0-3.7,3.7c-6.6,0.2-7.8,2.6-10.6,4c-3.1,1.5-18.5,1.8-12.1,11c-3.6-1-2.6-1.4-9.4-5.3c-6.7-3.9,3.8,30.8,3.8,30.8
			L442.9,490.8z"/>
		<path fill="#1C120A" stroke="#382010" d="M457.8,490.8c4.8,2.4,11,8.7,24.5,9.7c13.5,1,22.5-6.2,27.9-11.8
			c4-4.1,8.8-18.8,7.4-30.5c-1.2-10-6.6-24.3-24.4-32.3c0,0,8.8,15,1.7,24.2c-7.1,9.2-7.1,8-11.1,8.6c-4,0.6-2.4,4.5-2.4,4.5
			s6.4-1.2,9.8,2.4c3.4,3.6,2.4,10.2-3.3,10.7c-5.8,0.6-6.6-3.6-9.8-2.7c-3.1,1-8.7,1.5-11.2,4.8
			C464.4,481.8,457.8,490.8,457.8,490.8z"/>
		<path fill="none" stroke="#93552B" d="M466.9,471.8c0,0-9.3,0.5-15.3-6.3c-6-6.9-7-7.8-9.9-13.3c-2.9-5.5-5.1-10.3-8.2-13.7"/>
	</g>
	<g id="gi_top">
		<path fill="#FCFCFC" stroke="#8C8C8C" stroke-width="2" stroke-linejoin="round" d="M266,467.5c0,0,6.1,3.1,18.1,6.8
			c6.4,2,10.9,9.9,16.8,13c0,0,13.7,6.8,29.2,10.3c15.6,3.4,15.4,3.4,29,3.4c13.6,0,77,0.8,83.5,2.3c6.5,1.5,14.4-4.6,15.2-8
			c0.3-1.5-7.7,3.2-13.8-5.8c-3.4-5.1-4.9-13.2-8-22.4c-4-11.8-9.4-25.4-12.8-36.4l-7.6-3.7c0,0,6.1-6.2,6.5-15.2
			c0.4-8.9-1.1-15,6.8-16.5c8-1.5,15.2-3.2,15.6-9.2c0.4-6,0.4-12.8-0.8-15.5c-1.1-2.7-1.9-14.1-19.7-12.9
			c-17.9,1.1-27.7,2.5-34.9,4.9c-7.2,2.4-20.1,9.2-20.1,11.5c-4.9,2.8-8.8,0.5-14.9-2.1c-4.3-1.8-8.9-3.6-15.4-3
			c-9.4,1-42,45.7-42,45.7L266,467.5z"/>
		<path fill="#EAEAEA" d="M454.9,497c0,0-4.5,7.9-20.8,4.1c-7.4-1.7-33.4-1.7-45.4-1.2c-4,0.2-0.4-29,8-41.7
			c3.1-4.7,8.6-17.2,10.8-20.9c13.5-22.5,18.8,9.2,18.8,9.2s4.5,10.2,6.7,16c2.9,7.6,4,16.7,6.7,23.1
			C443.4,494.1,450.9,497.5,454.9,497z"/>
		<path fill="#DDDDDD" d="M368.6,501.2c0,0-43.9-4.4-50-8.8c-6.2-4.4-20-11-22.8-15.1c-2.8-4.2-13.6-23.1,1.6-33.1
			c22.2-14.5,64.7-61.8,64.7-61.8s-6.2,52-6.9,58.2c-0.7,6.1-3.2,24.7-3.8,31.6C350.7,481.9,363.8,501.5,368.6,501.2z"/>
		<path fill="none" stroke="#8C8C8C" stroke-width="2" stroke-linejoin="round" d="M305.5,434.5c0,0,30.2-22.3,41.7-35.4
			c19.6-22.2,21.8-24.9,21.8-24.9"/>
		<path fill="none" stroke="#8C8C8C" stroke-width="1.5" stroke-linejoin="round" d="M300.9,436c0,0,4-20,15.9-29.9
			c11.9-9.9,18.6-18.4,19.4-25"/>
		<path fill="none" stroke="#8C8C8C" stroke-width="2" stroke-linejoin="round" d="M310,471.5c0,0,8,11.3,15.6,14"/>
		<path fill="none" stroke="#8C8C8C" stroke-linejoin="round" d="M334.5,490c0,0-2.3-23.9,0-34.7"/>
		<path fill="none" stroke="#8C8C8C" stroke-width="1.5" stroke-linejoin="round" d="M388.7,471.5c0,0,13.5-30.9,27-44.3"/>
		<path fill="none" stroke="#AFAFAF" stroke-linejoin="round" d="M409.5,472.7c0,0-6.7-11.3-4.8-20.5"/>
		<path fill="#E2E2E2" d="M399.1,388.7c0,0-17.5,29.8-17,51.9c0.5,22.1,10.6-3.1,13-9.7c3.9-10.5,7.4-23.9,10.9-27.2
			c3.4-3.2,9.6-12.2,37-19.3c0,0,1-3.3,1-6.5c0.4-32.2-42.5-15.2-49-10.7c-6.5,4.5-13,4.1-13,4.1s16.9,2.3,19.2,8.7
			c2.2,6.5-9.5-0.5-16.8,1.3C377.3,382.9,399.1,388.7,399.1,388.7z"/>
		<path fill="none" stroke="#8C8C8C" stroke-linejoin="round" d="M341.2,494.2c0,0-1.3-33,3.9-44.9"/>
		<path fill="none" stroke="#7A7A7A" stroke-linecap="round" stroke-miterlimit="10" d="M411.8,434.5c-4.9,7.5,0,15,0,15
			s0.6,2.2,5.2-2.1c9-8.2,2.7-6.7,4.6-15.8"/>
		<path fill="#7F7F7F" d="M409.5,445.2c0,0,0.9,12.4,5.1,16c2.3-6.8,2-13.6,7-17C414.1,445.1,409.9,449.3,409.5,445.2z"/>
		<path fill="none" stroke="#AFAFAF" stroke-linejoin="round" d="M433.3,473.7c0,0-0.3,10.9-7.2,16.4"/>
		<path fill="none" stroke="#A0A0A0" stroke-linejoin="round" d="M421.5,499.5c0,0-19.2,4.5-26.3-5.9"/>
		<path fill="none" stroke="#AFAFAF" stroke-linejoin="round" d="M378.9,380.2c0,0,17.4-0.6,23.3,4.5"/>
		<path fill="none" stroke="#AFAFAF" stroke-linejoin="round" d="M378.9,372.6c0,0,18.7-6.3,33.9,9.8"/>
		<path fill="none" stroke="#AFAFAF" stroke-linejoin="round" d="M421.5,389.7c-1.9-5.2,20.1-11.9,20.1-11.9s-2.8-10.4-20.2-10.7"/>
	</g>
	<g id="Layer_10">
		<path fill="#404040" stroke="#252525" stroke-linecap="round" stroke-linejoin="round" d="M252.3,463.4c0,0,4.1,4.3,7.7,4.9
			c3.5,0.6,5.5,1,8.6,0c3.1-1,10.5-5.9,22.8-27.9c12.3-22,25.3-45.9,32.7-55.2c7.5-9.2,9.3-16,12.1-16.2c-9.1-1.9-11.5,8-19.4,10.9
			c-7.9,2.9-37.5,15.5-41.2,23.4c-3.7,7.9-14.1,37.3-17.9,43C254.1,452,259.8,459.8,252.3,463.4z"/>
	</g>
	<g id="Pants">
		<path fill="#BCBCBC" stroke="#8C8C8C" stroke-width="2" d="M256.3,459.3c0,0,17.7-9.8,24-20.4c6.3-10.6,23.7-31.7,28.5-41.3
			c4.8-9.6,9-13.6,13.7-19.2c2.4-2.9-49.6,23.5-49.6,23.5L256.3,459.3z"/>
		<path id="Pants-base" fill="#FCFCFC" stroke="#8C8C8C" stroke-width="2" d="M340.9,227.9c-3.1,3.5-22.2,23.1-26.2,34
			c-3.9,10.9-35.7,42.7-41,50.5c-2.8,4.1-23.1,29.2-28.8,28.8c-2.7-0.2-28.3-11.3-35.7-14.4c-7.4-3-27.5-10-34.9-12.2
			c-7.4-2.2-28.3-2.2-28.3-2.2c-12.6,0.4-24,6.6-30.5,10.9c-6.5,4.4-22.2,16.1-27.9,21.8c-3.4,3.4-20.5,14.8-27.5,19.6
			c0,4.4,6.1,13.1,10.5,17c4.4,3.9,25.7,43.6,27.5,44.4c1.7,0.9,12.6-7.8,17.4-13.1c4.8-5.2,20.5-13.5,20.5-13.5
			c5.3-4,17-17.9,21.8-20.5c2.8,2.5,5.2,9.4,9.6,16c4.4,6.6,12.8,10.1,18.5,13.7c5.7,3.5,13.2,14.5,17.2,20.3
			c4,5.7,45.6,32.6,49.8,33.1c5.6,0.7,15.4-10.1,18.1-14.1c2.6-4,10.6-36.6,12.3-43.7c1.8-7.1,23.8-14.5,34.4-20.3
			c10.6-5.7,36.2-33.1,40.1-39.2c4-6.2,28.3-43.3,28.3-43.3s2.8-21.8,3.5-28.3c0.9-8.3,23.1-35.7,23.1-41.8
			c0-6.2-54.9-35.7-54.9-35.7S347.5,220.5,340.9,227.9z"/>
		<path id="shade" fill="#EAEAEA" d="M153.8,325c0,0,84.7,20.3,96.1,22.9c11.5,2.6,73.4-22.3,82.3-16.1c8.8,6.2,19.3,17.8,19.3,17.8
			s-23,28.8-41.6,36.5c-10.1,4.2-28.6,10.8-29,20.7c-1.5,10.2-8.9,30.9-11.2,39.6c-4.3,5.8-11.1,13.3-13.3,14.7
			c-4.1,2.4-43.5-23.2-50.5-38.2c-7.1-15-26.5-22.9-36.2-33.5C160,378.8,163.5,341.8,153.8,325z"/>
		<path fill="none" stroke="#8C8C8C" d="M202.5,412c0,0-8.9-6.4-15.3-25.7"/>
		<linearGradient id="SVGID_9_" gradientUnits="userSpaceOnUse" x1="65.9225" y1="374.9742" x2="121.1581" y2="343.0838">
			<stop  offset="0" style="stop-color:#8C8C8C"/>
			<stop  offset="0.2847" style="stop-color:#B0B0B0"/>
			<stop  offset="0.5713" style="stop-color:#CDCDCD"/>
			<stop  offset="0.8198" style="stop-color:#DFDFDF"/>
			<stop  offset="1" style="stop-color:#E5E5E5"/>
		</linearGradient>
		<path fill="url(#SVGID_9_)" d="M63.4,369.7c0,0,47.1-34.1,50.4-38.6c3.3-4.5-24.8,30.3-26.7,33.8c-2.4,4.3-11.6,16.8-11.4,20.3
			C75.9,388.9,64.8,375.2,63.4,369.7z"/>
		<linearGradient id="SVGID_10_" gradientUnits="userSpaceOnUse" x1="75.3405" y1="388.0497" x2="102.4669" y2="372.3882">
			<stop  offset="0" style="stop-color:#8C8C8C"/>
			<stop  offset="0.1233" style="stop-color:#9F9F9F"/>
			<stop  offset="0.3547" style="stop-color:#BEBEBE"/>
			<stop  offset="0.5816" style="stop-color:#D3D3D3"/>
			<stop  offset="0.7999" style="stop-color:#E1E1E1"/>
			<stop  offset="1" style="stop-color:#E5E5E5"/>
		</linearGradient>
		<path fill="url(#SVGID_10_)" d="M78.3,391.7c0,0,10.2-23,15-29.7c8.5-11.8-11.2,29.7-10.3,36.5C83.8,405.3,78.3,391.7,78.3,391.7z
			"/>
		<linearGradient id="SVGID_11_" gradientUnits="userSpaceOnUse" x1="104.194" y1="425.3027" x2="102.0888" y2="385.1337">
			<stop  offset="5.618000e-003" style="stop-color:#8C8C8C"/>
			<stop  offset="0.1404" style="stop-color:#8C8C8C"/>
			<stop  offset="0.3345" style="stop-color:#A7A7A7"/>
			<stop  offset="0.6138" style="stop-color:#C9C9C9"/>
			<stop  offset="0.8457" style="stop-color:#DEDEDE"/>
			<stop  offset="1" style="stop-color:#E5E5E5"/>
		</linearGradient>
		<path fill="url(#SVGID_11_)" d="M112.4,414.4c0,0-3.9-14.5-1-27c3-13-15.6,23.9-16.9,29.1c-1.3,5.2,4.7,9.1,4.7,9.1L112.4,414.4z"
			/>
		<linearGradient id="SVGID_12_" gradientUnits="userSpaceOnUse" x1="152.8634" y1="356.193" x2="188.9651" y2="356.193">
			<stop  offset="5.618000e-003" style="stop-color:#D1D1D1"/>
			<stop  offset="1" style="stop-color:#B5B5B5"/>
		</linearGradient>
		<path fill="url(#SVGID_12_)" d="M175.2,388.7c0,0-21.3-39.2-22.3-63.1c-0.5-11.9,22.3,35.6,34.3,46.7c6.5,6.1-5.9-1.2-15.8-10.6
			C166.4,357,175.2,388.7,175.2,388.7z"/>
		<path fill="none" stroke="#8C8C8C" stroke-width="0.5" d="M141.4,392.9c0,0-4.9-13.2,0.5-30.1"/>
		<path fill="none" stroke="#8C8C8C" stroke-width="0.5" d="M131.6,389.7c0,0-6.8-0.5,0.3-17.1"/>
		<path fill="none" stroke="#8C8C8C" stroke-width="0.5" d="M64,370.2c0,0,46.6-34.1,50.2-38.4"/>
		<path fill="none" stroke="#8C8C8C" stroke-width="0.5" d="M153,326.5c0,0,2.1,18.6,8.8,33.4c6.7,14.8,14.2,29.5,15.9,34.9
			c1.7,5.4,3.6,10.2,6.7,12.7"/>
		<path fill="none" stroke="#8C8C8C" stroke-width="0.75" d="M205.3,430c0,0,38.7,4.4,49.7-6.5"/>
		<path fill="none" stroke="#8C8C8C" d="M254.2,406.2c0,0-18.4,10-29.9,12.3c-11.6,2.3-25.3,3.8-33.2-4"/>
		<linearGradient id="SVGID_13_" gradientUnits="userSpaceOnUse" x1="347.7656" y1="251.3769" x2="394.4041" y2="267.4359">
			<stop  offset="5.618000e-003" style="stop-color:#B8B8B8"/>
			<stop  offset="0.12" style="stop-color:#C0C0C0"/>
			<stop  offset="0.6792" style="stop-color:#E4E4E4"/>
			<stop  offset="0.9775" style="stop-color:#F2F2F2"/>
		</linearGradient>
		<path fill="url(#SVGID_13_)" d="M378.9,218.7c0,0-8.5,57.8,2,79.9c8,16.8-26.7-4.6-26.7-4.6l-18-9.1c0,0,16.5-19.6,20.4-31.9
			C360.5,240.7,372.4,220,378.9,218.7z"/>
		<path fill="none" stroke="#8C8C8C" d="M336.2,284.8c0,0,16.5-19.6,20.4-31.9c3.9-12.2,15.8-33,22.2-34.3"/>
		<path fill="none" stroke="#8C8C8C" stroke-width="1.5" d="M363.7,211.3c-1.7,0.6-7.7,7.1-10.2,12.2c-2.6,5.1-7.1,15.1-16.5,21.9
			c-9.4,6.8-15.1,21.6-15.1,21.6s-1.4,8-5.1,10.8"/>
		<path fill="none" stroke="#969696" d="M286.8,343c0,0,13-8.7,25.5-3.1c12.5,5.6,26.9-3.5,31.2-5.8"/>
		<path fill="none" stroke="#8C8C8C" d="M352,342.8c-5.1,4.8-18.8,20.8-32,15c-7.3-3.2-22.1-3.6-32.9,0c-9.1,3-15.9,2.3-18.6,1
			c-7.9-3.6-15.8-15.3-27.3-18.3"/>
		<path fill="none" stroke="#969696" d="M258.8,390.4c0,0,29.8-22.9,60.1-22.7c17.1,0.1,33.3-24.2,33.3-24.2s-11.4,26.6-41.4,33.1
			c-14.3,3.1-25,7.9-31.6,16.8"/>
		<path fill="none" stroke="#8C8C8C" stroke-width="0.75" d="M173.2,330.3c0,0,59.1,41.4,82,46.7"/>
	</g>
</g>
<g id="Uki-over">
	<path fill="#172577" stroke="#151E56" stroke-linejoin="round" d="M287.2,275.3c2.1-11,6.5-22.9,10.4-21.2
		c3.9,1.7,11.2,28.3,11.2,28.3l-13,28.4l-8.6-1.8C287.2,309.1,284.5,289.3,287.2,275.3z"/>
	<path fill="#FFD4AE" stroke="#7F4E29" d="M308.5,271.3c0,0-10.5-3.4-16-10.7c-6-8-7.2-13.5-13.2-16.1c-6-2.6-17.4-2.9-21.2,8.6
		c-3.7,11.4-11.7,20.3-17.2,22.9c-5.4,2.6-16.9,8.2-23.6,14.9c-5.2,5.1-12.6,10.9-12.6,21.7c0,11.4,4.6,9.4,14.6,3.9
		c6-3.3,12-5.4,19.6-8.3c11.5-4.4,16.3-6.4,24.8-9.7c8.6-3.3,27.3,4.1,35.9,7.8L308.5,271.3z"/>
	
		<linearGradient id="SVGID_14_" gradientUnits="userSpaceOnUse" x1="191.6677" y1="263.3362" x2="208.571" y2="336.5522" gradientTransform="matrix(0.3922 -0.9199 0.9199 0.3922 -68.9904 360.0909)">
		<stop  offset="5.618000e-003" style="stop-color:#FFD4AE"/>
		<stop  offset="0.1728" style="stop-color:#FBD0AA"/>
		<stop  offset="0.3456" style="stop-color:#EFC39E"/>
		<stop  offset="0.521" style="stop-color:#DBAF89"/>
		<stop  offset="0.6982" style="stop-color:#C0926C"/>
		<stop  offset="0.875" style="stop-color:#9C6D48"/>
		<stop  offset="1" style="stop-color:#7F4E29"/>
	</linearGradient>
	<path fill="url(#SVGID_14_)" d="M245.5,303.7c3.1-5.7,22-9,22-9c4.5,2.2,15.4,4.4,18.9,6.4c4.5,2.5,34.1,9.9,34.1,9.9l-2-18.4
		c0,0-17.5-7.3-24.4-9.2c-2.4-0.7-10.2-1.2-11.2-2.1c0,0-4.3-3.4-7.5-5.9c-3.2-2.6-9.6,0-18.8,7.2"/>
	<path id="hand_1_" fill="#FFD4AE" stroke="#7F4E29" d="M288.1,456.6c0,0,9.4-17.9,12.8-20.6c3.4-2.7,8-6.4,17.4-6.4
		c9.4,0,27.3-4.1,33.7-7.6c6.4-3.4,12.1-5.3,12.1-5.3l-3.7,33.7c0,0-24.7,1.6-27.9,6.4c-3.2,4.8-17.9,13.1-24.3,15.3
		c-6.4,2.3-17.6,1.8-19.2-1.1C287.4,468.1,286.5,460.5,288.1,456.6z"/>
	<path fill="#2937B7" stroke="#151E56" stroke-linecap="round" stroke-linejoin="round" d="M466.9,356.5l-21.1,3.3
		c-12.8,3-33,3.1-46.7,3c-13.6-0.1-26.2-4.8-26.2-4.8c-5.2-1.6-28-11.7-28-11.7c-6.5-3-22.9-10.9-28.9-16
		c-6-5.1-22.7-15.7-28.7-21.2c10.1-4.1,12.4-13.2,14.1-21.2c4-19.1-3.4-27.2-3.7-33.7c5.3,1.7,16.9,9.4,18,10.6
		c1.1,1.1,26.6,14.2,36.7,17.4c11.7,3.7,29.3,6.5,29.3,6.5s9.4,2,13.5,3c0,0,13.9,4.3,18.1,2.9"/>
	<linearGradient id="SVGID_15_" gradientUnits="userSpaceOnUse" x1="360.3109" y1="307.5077" x2="516.2583" y2="318.4126">
		<stop  offset="2.247200e-002" style="stop-color:#2937B7"/>
		<stop  offset="0.2066" style="stop-color:#2734AB"/>
		<stop  offset="0.5401" style="stop-color:#202C8B"/>
		<stop  offset="0.9822" style="stop-color:#151E58"/>
		<stop  offset="0.9944" style="stop-color:#151E56"/>
	</linearGradient>
	<path opacity="0.75" fill="url(#SVGID_15_)" d="M365.4,353.7c9.7,4.6,26.4,1.5,26.4,1.5c6.3,2.3,34.2-5.1,40.4-0.6
		c6.3,4.6,24.5,1.7,25.6-2.3c1.1-4,66-55.8,59.2-53.5c-6.8,2.3-54.6,43.3-64.3,41c-9.7-2.3,60.9-45.5,58.1-45.5
		c-2.8,0-50.7,32.4-57.5,37c-6.8,4.6-10.2,9.1-5.1,10.8c5.1,1.7,8.5,7.4-6.3,7.4c-14.8,0-9.1-11.4-6.3-19.4
		c2.8-8,19.9-16.5,23.9-19.4c4-2.8,18.2-11.4,23.9-11.4c5.7,0,29.6-17.1,26.8-17.1c-2.8,0-17.6,8-22.8,10.2
		c-5.1,2.3-14.2,2.8-18.2,5.7c-4,2.8-27.9,17.1-35.9,20.5c-8,3.4-7.4,25-8.5,24.5c-1.1-0.6-4-11.4-4-16.5c0-5.1,3.4-13.1,4.6-15.4
		c1.1-2.3,34.7-19.9,40.4-24.5c5.7-4.6,50.1-15.9,50.1-15.9s-37.6,0.6-49,2.3c-11.4,1.7-44.4,23.3-44.4,23.3
		c-4.1,1.6-13.8,5.9-34.3-4.4l-26.6-5.4"/>
	<path fill="#FCFCFC" stroke="#8C8C8C" stroke-width="2" stroke-linecap="round" d="M380.2,501.2c-12.6-0.9-18.4-7-23-14.2
		c-5.5-8.5-5.8-17-5-23.1c0.8-5.5,0.8-4.1,3-23.3c2.5-22.4,5-35.7,6.6-44.8c1.6-9.1,1.4-15.4,7.7-22.6l8.4-5.6"/>
	<path fill="none" stroke="#AAAAAA" stroke-linecap="round" stroke-linejoin="round" d="M368.6,386.9c-2.9,8.8-3.2,30.9-5,48
		c-2,18.5-6.4,38.8-8,42.7"/>
</g>
</svg>
